<?xml version="1.0" encoding="UTF-8" standalone="no"?>
<!-- Created with Inkscape (http://www.inkscape.org/) -->

<svg
   xmlns:dc="http://purl.org/dc/elements/1.1/"
   xmlns:cc="http://creativecommons.org/ns#"
   xmlns:rdf="http://www.w3.org/1999/02/22-rdf-syntax-ns#"
   xmlns:svg="http://www.w3.org/2000/svg"
   xmlns="http://www.w3.org/2000/svg"
   xmlns:sodipodi="http://sodipodi.sourceforge.net/DTD/sodipodi-0.dtd"
   xmlns:inkscape="http://www.inkscape.org/namespaces/inkscape"
   width="210mm"
   height="297mm"
   viewBox="0 0 210 297"
   version="1.1"
   id="svg4491"
   sodipodi:docname="testcameo_small.svg"
   inkscape:version="0.92.1 r15371">
  <defs
     id="defs4485" />
  <sodipodi:namedview
     id="base"
     pagecolor="#ffffff"
     bordercolor="#666666"
     borderopacity="1.0"
     inkscape:pageopacity="0.0"
     inkscape:pageshadow="2"
     inkscape:zoom="0.35"
     inkscape:cx="47.003966"
     inkscape:cy="1039.9152"
     inkscape:document-units="mm"
     inkscape:current-layer="g18431"
     showgrid="false"
     inkscape:window-width="1364"
     inkscape:window-height="746"
     inkscape:window-x="0"
     inkscape:window-y="20"
     inkscape:window-maximized="1" />
  <metadata
     id="metadata4488">
    <rdf:RDF>
      <cc:Work
         rdf:about="">
        <dc:format>image/svg+xml</dc:format>
        <dc:type
           rdf:resource="http://purl.org/dc/dcmitype/StillImage" />
        <dc:title />
      </cc:Work>
    </rdf:RDF>
  </metadata>
  <g
     inkscape:label="Layer 1"
     inkscape:groupmode="layer"
     id="layer1">
    <g
       id="g18431"
       transform="matrix(0.00253999,0,0,0.00253999,45.064581,46.952023)">
      <path
         inkscape:connector-curvature="0"
         id="polyline12748"
         d="m 18695.56,5149.5291 -15.999,39 -25,58 -31,72 -9.001,19 -68,160 -63,167 -56,166 -44.999,155 -31.001,137 -3,19 -10,57 -7,48.999 -3,47.001 -1,52 2,62 6,81 8,104 5,64.999 11.001,127 9,138 9,137 7,125 3,91 3,134 -3,108 -11,92 -20,82 -30,80 -44,88 -33,61 -50,93 -47,101 -42,101 -34,94 -23,81 -11,61 v 7 l 11,76 32,93 51,102 56,93 34,48 37,51 45,58 54,66 67,79 80,94 98,112 116.999,133 27,31 151,175 128,156 107,140 87,128.9999 69,119 52,114 38,111 24,113 14,116 4,124 v 1 l -14,181.999 -42,166 -68,149 -92,130 -116,108 -136,85 -157,59 -15.999,4 -87.001,15 -106.999,8 -116,1 -113,-7 -98,-12 -46,-11 -123,-43 -104,-54 -96,-73 -61,-57 -100,-113 -82,-123 -65,-141 -54,-163 -26,-106.999 -18,-96.001 -10,-89.999 v -88 l 10,-92 20,-99 34,-111 46,-127 60,-147.9999 75,-172 4,-9 46,-103 35,-83 25,-69 15,-61 5,-60 -3,-65 -12,-77 -21,-95 -27,-120 -7,-30 -28,-129 -20,-111 -12,-105 -8,-112 -1,-26 -3,-106 2,-92 10,-86 17,-84 27,-89 39,-101 51,-116 66,-140 9,-20 59,-120 46,-97 37,-81 28,-70 20,-65 14,-66 9,-72 6,-85 3,-103 3,-127 2,-89 4,-140 3,-112 3,-88 4,-69 5,-54 6,-44 9,-39 11,-39 12,-40 42,-114.999 58,-135 69,-147 78,-152 82,-149 30,-52 42.999,-72 37.001,-60 27,-44 14.999,-22 2.001,-2 -4.001,15"
         style="fill:none;fill-opacity:1;fill-rule:evenodd;stroke:none;stroke-width:3.93700933;stroke-linecap:round;stroke-linejoin:round;stroke-opacity:1" />
      <path
         inkscape:connector-curvature="0"
         id="polyline12750"
         d="m 18898.56,9188.5281 51,6 73,11 90,14 103,18 109,19 112,20 108,21 100,20 86,18 67,15 1,1 76,20 67,21 64,25 64,31 73,41 85,54 104,69 61,41 86,61 71,59 63,62 59,73 63,90 65,102.9999 106,177 87,159 70,148 54,141.999 41,142.001 28,150.999 19,163 9,183 3,209 v 26 l -1,129 -1,100 -2,79 -4,62 -6,51 -9,45 -11,45 -4,14 -70,198 -100,194 -100,150 -62,76 -80,91 -92,98 -98,100 -98,95 -91,83 -79,66 -19,15 -113,75 -138,77 -156,74 -167,68 -169,60 -162,47 -95,19 -122,18 -140,16 -153,12 -157.999,10 -157,6 -148,3 -132,-2 -109,-7 h -3 l -133,-19 -144,-28 -144,-36 -132,-40 -96,-37 -114,-55 -130,-74 -137,-87 -137,-95 -129,-98 -113,-95 -30,-27 -77,-79 -65,-80 -58,-92 -57,-111 -32,-68 -97,-238 -83,-243 -69,-242 -53,-238 -37,-228 -19,-215 -2,-197 14,-149.999 52,-262 72,-239 93,-216 112,-190.9999 131,-166 149,-141 166,-113 183,-85 194,-56 87,-15 78,-8 63,-3 45,4 19,11 v 6 l -10,22 -20,46 -29,66 -35,79 -26,58 -72,180 -64,194.9999 -54,202 -42,201 -29,191 -13,174 -1,45 10,163 30,169 45,166.999 60,157 71,139 72,104 90,94 117,98 135,96 148,91 154,82 153,69 146,52 31,9 133,25 149,11 153,-4 142.999,-18 65,-14 187,-68 172,-96 155,-124 136,-148 115,-173 89,-184 52,-155 29,-152.999 5,-158 -18,-169 -36,-170 -45,-148 -63,-148 -82,-152 -103,-160 -127,-169.9999 -144,-175 -79,-94 -80,-96 -77,-95 -72,-90 -63,-82 -54,-70 -40,-55 -24,-36 -5,-15 v 0 l 23,1"
         style="fill:none;fill-opacity:1;fill-rule:evenodd;stroke:none;stroke-width:3.93700933;stroke-linecap:round;stroke-linejoin:round;stroke-opacity:1" />
      <path
         inkscape:connector-curvature="0"
         id="polyline12846"
         d="m 29843.558,9304.5281 -66,32 -53,21 -47.999,15 -50.001,10 -50,8 -200,12 -193.999,-20 -185.001,-49 -173,-79 -156.999,-105 -140.001,-131 -118.999,-155 -65,-112 -76.001,-185 -44,-186 -10,-189 23,-191 37,-139 72.001,-182 91,-156 112.999,-135 138.001,-116 139.999,-88 118.001,-61 101.999,-41 42,-12 196,-33 195,-2 191.001,30 181.999,58 171,88 156,115 59,56 125,149 95.999,162 68.001,173 40,180 11,184 -16,184 -45,180 -73,174 -102,162 -99,118 -41.999,42 -37.001,34 -41,30 -50,31 -68,37 -74.999,38 -88.001,44"
         style="fill:none;fill-opacity:1;fill-rule:evenodd;stroke:none;stroke-width:3.93700933;stroke-linecap:round;stroke-linejoin:round;stroke-opacity:1" />
      <path
         inkscape:connector-curvature="0"
         id="polyline12848"
         d="m 26548.559,10984.527 -66,31 -52,21 -47,14 -50,10 -60,9 h -5 l -197,10.001 -192,-22 -183,-51 -171,-80 -157,-105 -138,-129 -117,-152 -92,-170 -66,-189 -33,-187.9999 1,-191 33,-193 20,-69 75,-186 100,-164 126,-143 151,-121 102,-62 113,-58 98,-41 49,-15 198,-33 197,-2 191,29 182,58 170.999,87 155.001,114 110.999,110 108.001,147 85,164 60.999,176 33.001,181 6,181 -24.001,175.9999 -2,7 -57,187 -79.999,166 -106,151 -71,80 -42,42 -38,33 -40,30 -51,31 -68.001,37 -74.999,38 -86,44"
         style="fill:none;fill-opacity:1;fill-rule:evenodd;stroke:none;stroke-width:3.93700933;stroke-linecap:round;stroke-linejoin:round;stroke-opacity:1" />
      <path
         inkscape:connector-curvature="0"
         id="polyline12886"
         d="m 29645.558,12997.527 -68,32 -55,22 -49,14 -50.999,11 -23,3 -153.001,14 -142,-5 -145,-25 -122,-35 -95,-33 -74.999,-32 -66.001,-36 -69,-46 -29,-22 -130.999,-110 -106.001,-118 -87.999,-134 -28,-52 -76,-183 -43.001,-191 -11,-197 14,-150 45.001,-190 74,-177 102.999,-161 128.001,-142 151.999,-121 85.001,-52 75,-38.999 73.999,-36.001 63,-26 27,-10 189,-40 190,-8 188.001,22 182.999,52 172,80 160.001,107 141.999,133 40,45 88,126 75,146 57,152 32,142 12,195 -20,194 -51,188 -80,179 -107,164 -93,107 -39,38 -38,32 -46,31 -58,34 -79,42 -41,21 -91,45"
         style="fill:none;fill-opacity:1;fill-rule:evenodd;stroke:none;stroke-width:3.93700933;stroke-linecap:round;stroke-linejoin:round;stroke-opacity:1" />
    </g>
  </g>
</svg>
