<?xml version="1.0" encoding="UTF-8" standalone="no"?>
<!-- Created with Inkscape (http://www.inkscape.org/) -->

<svg
   xmlns:dc="http://purl.org/dc/elements/1.1/"
   xmlns:cc="http://creativecommons.org/ns#"
   xmlns:rdf="http://www.w3.org/1999/02/22-rdf-syntax-ns#"
   xmlns:svg="http://www.w3.org/2000/svg"
   xmlns="http://www.w3.org/2000/svg"
   xmlns:sodipodi="http://sodipodi.sourceforge.net/DTD/sodipodi-0.dtd"
   xmlns:inkscape="http://www.inkscape.org/namespaces/inkscape"
   width="210mm"
   height="297mm"
   viewBox="0 0 210 297"
   version="1.1"
   id="svg4491"
   inkscape:version="0.92.1 r15371"
   sodipodi:docname="testcameo.svg">
  <defs
     id="defs4485" />
  <sodipodi:namedview
     id="base"
     pagecolor="#ffffff"
     bordercolor="#666666"
     borderopacity="1.0"
     inkscape:pageopacity="0.0"
     inkscape:pageshadow="2"
     inkscape:zoom="0.7"
     inkscape:cx="520.03982"
     inkscape:cy="798.28066"
     inkscape:document-units="mm"
     inkscape:current-layer="g18431"
     showgrid="false"
     inkscape:window-width="1364"
     inkscape:window-height="746"
     inkscape:window-x="0"
     inkscape:window-y="20"
     inkscape:window-maximized="1" />
  <metadata
     id="metadata4488">
    <rdf:RDF>
      <cc:Work
         rdf:about="">
        <dc:format>image/svg+xml</dc:format>
        <dc:type
           rdf:resource="http://purl.org/dc/dcmitype/StillImage" />
        <dc:title></dc:title>
      </cc:Work>
    </rdf:RDF>
  </metadata>
  <g
     inkscape:label="Layer 1"
     inkscape:groupmode="layer"
     id="layer1">
    <g
       id="g18431"
       transform="matrix(0.00253999,0,0,0.00253999,45.064581,46.952023)">
      <g
         id="g12744"
         style="fill:#000000;fill-opacity:1;stroke:#000000;stroke-linecap:round;stroke-linejoin:round;stroke-opacity:1" />
      <g
         id="g12746"
         style="fill:#000000;fill-opacity:0;stroke:#000000;stroke-width:-0.0003937;stroke-linecap:round;stroke-linejoin:round;stroke-opacity:1" />
      <g
         id="g13068"
         style="fill:#000000;fill-opacity:1;stroke:#000000;stroke-width:3.93701005;stroke-linecap:round;stroke-linejoin:round;stroke-opacity:1"
         transform="translate(-446.43056,-14881.011)">
        <path
           style="fill-rule:evenodd"
           d="m 26962,42341 -16,39 -25,58 -31,72 -9,19 -68,160 -63,167 -56,166 -45,155 -31,137 -3,19 -10,57 -7,49 -3,47 -1,52 2,62 6,81 8,104 5,65 11,127 9,138 9,137 7,125 3,91 3,134 -3,108 -11,92 -20,82 -30,80 -44,88 -33,61 -50,93 -47,101 -42,101 -34,94 -23,81 -11,61 v 7 l 11,76 32,93 51,102 56,93 34,48 37,51 45,58 54,66 67,79 80,94 98,112 117,133 27,31 151,175 128,156 107,140 87,129 69,119 52,114 38,111 24,113 14,116 4,124 v 1 l -14,182 -42,166 -68,149 -92,130 -116,108 -136,85 -157,59 -16,4 -87,15 -107,8 -116,1 -113,-7 -98,-12 -46,-11 -123,-43 -104,-54 -96,-73 -61,-57 -100,-113 -82,-123 -65,-141 -54,-163 -26,-107 -18,-96 -10,-90 v -88 l 10,-92 20,-99 34,-111 46,-127 60,-148 75,-172 4,-9 46,-103 35,-83 25,-69 15,-61 5,-60 -3,-65 -12,-77 -21,-95 -27,-120 -7,-30 -28,-129 -20,-111 -12,-105 -8,-112 -1,-26 -3,-106 2,-92 10,-86 17,-84 27,-89 39,-101 51,-116 66,-140 9,-20 59,-120 46,-97 37,-81 28,-70 20,-65 14,-66 9,-72 6,-85 3,-103 3,-127 2,-89 4,-140 3,-112 3,-88 4,-69 5,-54 6,-44 9,-39 11,-39 12,-40 42,-115 58,-135 69,-147 78,-152 82,-149 30,-52 43,-72 37,-60 27,-44 15,-22 2,-2 -4,15"
           id="polyline12748"
           inkscape:connector-curvature="0" />
        <path
           style="fill-rule:evenodd"
           d="m 27165,46380 51,6 73,11 90,14 103,18 109,19 112,20 108,21 100,20 86,18 67,15 1,1 76,20 67,21 64,25 64,31 73,41 85,54 104,69 61,41 86,61 71,59 63,62 59,73 63,90 65,103 106,177 87,159 70,148 54,142 41,142 28,151 19,163 9,183 3,209 v 26 l -1,129 -1,100 -2,79 -4,62 -6,51 -9,45 -11,45 -4,14 -70,198 -100,194 -100,150 -62,76 -80,91 -92,98 -98,100 -98,95 -91,83 -79,66 -19,15 -113,75 -138,77 -156,74 -167,68 -169,60 -162,47 -95,19 -122,18 -140,16 -153,12 -158,10 -157,6 -148,3 -132,-2 -109,-7 h -3 l -133,-19 -144,-28 -144,-36 -132,-40 -96,-37 -114,-55 -130,-74 -137,-87 -137,-95 -129,-98 -113,-95 -30,-27 -77,-79 -65,-80 -58,-92 -57,-111 -32,-68 -97,-238 -83,-243 -69,-242 -53,-238 -37,-228 -19,-215 -2,-197 14,-150 52,-262 72,-239 93,-216 112,-191 131,-166 149,-141 166,-113 183,-85 194,-56 87,-15 78,-8 63,-3 45,4 19,11 v 6 l -10,22 -20,46 -29,66 -35,79 -26,58 -72,180 -64,195 -54,202 -42,201 -29,191 -13,174 -1,45 10,163 30,169 45,167 60,157 71,139 72,104 90,94 117,98 135,96 148,91 154,82 153,69 146,52 31,9 133,25 149,11 153,-4 143,-18 65,-14 187,-68 172,-96 155,-124 136,-148 115,-173 89,-184 52,-155 29,-153 5,-158 -18,-169 -36,-170 -45,-148 -63,-148 -82,-152 -103,-160 -127,-170 -144,-175 -79,-94 -80,-96 -77,-95 -72,-90 -63,-82 -54,-70 -40,-55 -24,-36 -5,-15 v 0 l 23,1"
           id="polyline12750"
           inkscape:connector-curvature="0" />
        <path
           style="fill-rule:evenodd"
           d="m 17716,30632 51,6 73,11 91,14 102,18 110,19 111,20 108,21 100,20 86,18 67,15 1,1 77,20 67,21 63,25 65,31 72,41 85,54 104,69 61,41 86,61 71,59 63,62 59,73 63,90 66,103 106,177 87,159 69,148 55,142 40,142 29,150 18,164 9,183 3,209 v 26 129 l -2,100 -2,79 -4,62 -6,50 -9,46 -11,45 -3,14 -71,198 -100,194 -100,150 -62,76 -80,90 -92,99 -98,100 -98,95 -91,83 -78,66 -20,15 -112,75 -139,76 -156,75 -166,68 -170,60 -162,47 -95,19 -122,18 -140,16 -153,12 -158,10 -157,6 -147,3 -132,-2 -110,-7 -3,-1 -133,-18 -144,-28 -144,-36 -131,-40 -97,-37 -114,-55 -130,-74 -137,-87 -137,-95 -129,-98 -113,-95 -30,-27 -77,-79 -65,-80 -58,-92 -57,-111 -32,-68 -97,-238 -83,-243 -69,-242 -53,-238 -37,-228 -19,-215 -2,-197 14,-150 52,-262 73,-239 92,-216 112,-191 131,-166 149,-141 166,-113 183,-85 195,-56 86,-15 78,-8 64,-3 44,4 19,11 v 6 l -9,22 -21,46 -29,66 -35,79 -26,58 -71,180 -64,195 -55,202 -42,201 -29,191 -13,174 -1,45 10,163 30,169 45,167 60,157 71,139 72,104 91,94 116,98 135,96 148,91 154,82 153,69 146,52 31,8 133,26 149,11 153,-4 143,-18 65,-15 187,-67 172,-96 155,-124 136,-148 115,-173 89,-184 52,-155 29,-153 5,-158 -17,-169 -37,-170 -45,-148 -63,-148 -82,-152 -103,-160 -127,-170 -144,-175 -79,-94 -80,-96 -77,-95 -71,-90 -64,-82 -54,-70 -39,-55 -24,-36 -6,-15 v 0 l 23,1"
           id="polyline12752"
           inkscape:connector-curvature="0" />
        <path
           style="fill-rule:evenodd"
           d="m 17513,26593 -16,39 -24,58 -32,72 -9,19 -68,160 -63,167 -56,166 -44,155 -32,137 -3,19 -10,57 -7,48 -3,48 -1,52 2,62 6,81 8,103 6,66 10,127 10,138 8,137 7,125 4,91 2,134 -3,108 -11,91 -19,83 -31,80 -44,88 -33,61 -50,93 -47,101 -42,101 -34,94 -23,81 -11,61 v 7 l 11,76 33,93 50,102 56,93 34,48 38,51 44,58 55,66 66,79 81,94 97,112 117,133 27,30 151,175 128,157 107,140 87,129 69,119 52,114 38,111 25,112 13,117 4,124 v 1 l -14,182 -42,166 -68,149 -92,130 -115,108 -137,85 -157,59 -16,4 -87,15 -107,8 -116,1 -113,-7 -98,-13 -46,-10 -123,-43 -104,-54 -96,-73 -61,-57 -100,-113 -81,-123 -66,-141 -53,-163 -27,-107 -18,-96 -10,-90 v -89 l 10,-91 21,-99 33,-111 46,-127 60,-148 75,-172 4,-9 46,-104 35,-82 25,-69 15,-61 5,-60 -3,-65 -12,-77 -20,-95 -28,-120 -7,-30 -28,-129 -20,-111 -12,-105 -8,-112 -1,-26 -3,-106 3,-92 9,-86 17,-84 27,-89 39,-101 51,-116 66,-140 10,-20 58,-120 47,-97 36,-81 28,-70 20,-65 14,-66 9,-72 6,-85 4,-103 2,-127 2,-89 4,-140 3,-112 3,-88 4,-69 5,-54 7,-44 8,-39 11,-39 12,-40 42,-115 58,-135 69,-148 78,-151 82,-149 30,-52 43,-72 37,-61 28,-43 15,-22 1,-2 -4,15"
           id="polyline12754"
           inkscape:connector-curvature="0" />
        <path
           style="fill-rule:evenodd"
           d="m 7501,36135 28,-9 56,-14 48,-10 268,-75 274,-105 275,-131 270,-156 263,-178 251,-198 234,-214 42,-42 241,-268 212,-283 183,-297 154,-309 124,-319 93,-329 62,-335 30,-342 -3,-345 -11,-146 -12,-98 -21,-120 -28,-134 -32,-140 -34,-139 -36,-130 -34,-112 -31,-88 -3,-6 -151,-324 -177,-304 -204,-283 -229,-262 -255,-241 -15,-13 -274,-212 -292,-188 -251,-132 -33,-154 7,-10 -10,-6 -7,10 10,6 33,154 -56,-30 -320,-136 -329,-109 -335,-80 -339,-51 -338,-22 -336,10 -204,22 -117,16 -88,11 -57,7 -25,2 5,-4 37,-8 68,-15 101,-20 128,-25 241,-45 217,-34 198,-23 187,-13 181,-4 183,6 191,15 100,10 356,57 349,87 338,116 325,144 311,171 292,197 272,221 198,190 220,251 197,272 171,289 144,303 115,314 86,321 54,325 3,31 20,338 -13,335 -44,329 -74,324 -102,315 -131,306 -157,294 -182,281 -207,267 -230,250 -216,200 -25,-118 6,-3 23,-18 34,-31 42,-38 46,-44 45,-44 26,-26 177,-198 173,-222 85,-122 176,-290 147,-305 119,-317 89,-327 59,-332 27,-336 -5,-336 -12,-151 -16,-107 -24,-129 -32,-141 -36,-143 -38,-136 -39,-119 -15,-43 -134,-309 -162,-293 -190,-275 -216,-258 -240,-237 -264,-217 -286,-194 -307,-171 -324,-145 -94,-36 -75,-28 -55,-19 -33,-9 h -8 l 17,10 45,22 59,25 321,155 301,179 279,201 256,222 233,242 209,259 184,275 158,289 132,302 103,313 75,322 46,329 16,335 -15,338 -48,342 -47,217 -84,291 -106,279 -131,270 -156,266 -185,265 -214,266 -104,118 -13,17 25,118 -36,33 -12,10 -23,-108 5,-4 12,-19 v -3 l -10,2 -6,4 -12,19 v 3 l 11,-2 23,108 -32,24 -22,-103 7,-10 -10,-6 -7,10 10,6 22,103 -226,177 -46,-214 12,-5 31,-25 46,-39 54,-52 60,-58 60,-60 22,-23 232,-267 206,-284 177,-301 149,-313 118,-324 71,-260 44,-235 30,-254 13,-261 -3,-256 -16,-213 -18,-119 -27,-139 -34,-150 -38,-149 -40,-138 -39,-115 -137,-320 -164,-302 -192,-284 -216,-263 -242,-243 -265,-220 -287,-197 -308,-173 -240,-111 -52,-21 -23,-8 -25,-118 7,-10 -10,-7 -7,10 10,7 25,118 -4,-2 -1,3 26,16 53,29 81,44 31,16 292,172 275,200 257,226 237,249 214,269 190,288 163,304 135,318 15,42 40,123 40,145 38,157 33,160 28,151 19,134 4,44 14,349 -18,347 -48,343 -79,337 -109,328 -137,316 -164,302 -191,286 -217,267 -122,130 -40,42 -28,31 -11,16 v 0 l 46,214 -3,2 -20,13 -43,-203 7,-10 -10,-7 -7,10 10,7 43,203 -30,19 -42,-199 6,-10 -9,-6 -7,10 10,6 42,199 -242,159 -312,169 -329,144 -184,67 -79,24 -98,28 -113,28 -120,29 -122,28 -118,25 -108,22 -92,16 -71,10 -33,2 -24,-1 1,-5"
           id="polyline12756"
           inkscape:connector-curvature="0" />
        <path
           style="fill-rule:evenodd"
           d="m 6004,34437 -13,-72 -7,-57 -2,-50 3,-51 6,-50 40,-197 69,-182 96,-166 120,-146 142,-125 163,-101 181,-75 125,-33 198,-27 191,6 185,39 179,72 125,72 157,117 127,128 101,144 76,163 49,158 28,130 14,109 1,44 -19,197 -49,189 -78,177 -104,161 -129,143 -152,120 -69,43 -175,82 -182,51 -185,21 -184,-8 -181,-37 -173,-63 -163,-91 -148,-115 -131,-140 -88,-127 -30,-51 -23,-45 -18,-47 -17,-57 -18,-75 -18,-82 -20,-96"
           id="polyline12758"
           inkscape:connector-curvature="0" />
        <path
           style="fill-rule:evenodd"
           d="m 5235,30819 -13,-71 -7,-56 -2,-49 4,-51 7,-61 1,-4 42,-193 70,-180 97,-163 121,-145 142,-124 161,-100 177,-74 188,-45 199,-15 191,18 184,49 178,83 62,37 159,120 133,139 105,158 78,179 34,113 27,125 13,105 2,51 -19,200 -49,190 -77,178 -104,161 -127,142 -151,120 -135,79 -170,67 -180,40 -186,12 -184,-14 -176,-42 -163,-68 -7,-4 -166,-104 -139,-120 -119,-141 -59,-90 -29,-51 -23,-45 -18,-47 -17,-57 -18,-75 -18,-82 -19,-95"
           id="polyline12760"
           inkscape:connector-curvature="0" />
        <path
           style="fill-rule:evenodd"
           d="m 7125,32524 -7,-59 -2,-15 -5,-66 v -40 l 7,-23 16,-15 11,-6 29,-11 16,11 12,30 12,43 13,62 9,49 17,104 h -55 l -40,-2 -21,-3 h -1 l -5,-17 -6,-42"
           id="polyline12762"
           inkscape:connector-curvature="0" />
        <path
           style="fill-rule:evenodd"
           d="m 6948,31865 18,-16 34,-7 h 2 l 25,10 28,36 32,64 37,94 5,14 13,42 -2,23 -21,15 -14,6 -34,14 -17,4 -1,-1 -7,-15 -18,-40 -24,-56 -13,-32 -30,-74 -14,-50 1,-31"
           id="polyline12764"
           inkscape:connector-curvature="0" />
        <path
           style="fill-rule:evenodd"
           d="m 7145,32981 -1,-27 1,-50 2,-62 v -1 l 4,-62 6,-35 11,-16 19,-3 h 1 39 l 18,-2 11,-1 7,5 3,18 v 38 l -2,63 -1,25 -4,62 -4,48 -3,25 -1,2 -21,6 -35,-4 -34,-12 -16,-16 v -1"
           id="polyline12766"
           inkscape:connector-curvature="0" />
        <path
           style="fill-rule:evenodd"
           d="m 6453,32137 1,-79 v -5 l 2,-62 6,-35 10,-17 18,-3 h 3 38 l 18,-2 14,1 8,15 2,36 -3,62 v 9 l -2,58 1,48 2,17 -1,38 -25,19 -37,3 -26,-5 -17,-15 -9,-30 -3,-53"
           id="polyline12768"
           inkscape:connector-curvature="0" />
        <path
           style="fill-rule:evenodd"
           d="m 6594,32854 7,-17 18,-12 13,-6 49,-22 53,119 25,57 20,46 10,25 v 2 l -12,11 -35,11 -6,2 -33,5 -21,-7 -17,-25 -20,-43 -30,-71 -17,-47 -4,-28"
           id="polyline12770"
           inkscape:connector-curvature="0" />
        <path
           style="fill-rule:evenodd"
           d="m 6480,32446 4,-35 17,-20 28,-10 49,-10 66,312 -54,6 -54,6 -29,-113 -19,-81 -8,-55"
           id="polyline12772"
           inkscape:connector-curvature="0" />
        <path
           style="fill-rule:evenodd"
           d="m 5517,31912 23,-39 29,-44 38,-54 24,-31 19,-13 19,1 18,7 32,17 14,11 -7,17 -22,38 -32,50 -11,17 -36,53 -29,40 -18,21 -3,2 -18,-9 -27,-23 -16,-18 -5,-18 8,-25"
           id="polyline12774"
           inkscape:connector-curvature="0" />
        <path
           style="fill-rule:evenodd"
           d="m 5815,33549 19,-50 77,41 57,32 52,36 17,13 48,41 -30,44 -29,43 -115,-76 -115,-75 19,-49"
           id="polyline12776"
           inkscape:connector-curvature="0" />
        <path
           style="fill-rule:evenodd"
           d="m 5152,31482 52,-35 53,-31 14,-8 37,-16 23,2 20,22 20,31 9,16 -13,14 -34,25 -50,32 -15,10 -114,68 -34,-42 -35,-41 67,-47"
           id="polyline12778"
           inkscape:connector-curvature="0" />
        <path
           style="fill-rule:evenodd"
           d="m 5232,32222 20,-27 40,-41 11,-11 44,-41 36,-30 19,-13 1,-1 20,9 28,23 19,21 3,19 -16,24 -30,32 -51,51 -48,43 -38,30 -24,13 -3,-1 -12,-17 -15,-34 -8,-26 4,-23"
           id="polyline12780"
           inkscape:connector-curvature="0" />
        <path
           style="fill-rule:evenodd"
           d="m 5593,34115 8,-34 11,-30 7,-10 h 28 l 48,5 56,8 56,10 45,9 25,7 2,2 1,24 -5,30 -15,32 -33,8 h -6 l -38,-2 -51,-7 -55,-9 -48,-8 -32,-8 -7,-3 3,-24"
           id="polyline12782"
           inkscape:connector-curvature="0" />
        <path
           style="fill-rule:evenodd"
           d="m 5421,33388 6,-56 122,41 76,28 49,21 25,19 5,20 -12,25 -5,7 -29,43 -122,-46 -122,-45 7,-57"
           id="polyline12784"
           inkscape:connector-curvature="0" />
        <path
           style="fill-rule:evenodd"
           d="m 4770,31802 36,-36 3,-3 67,-65 47,-44 31,-27 20,-13 13,-1 10,8 8,9 21,31 3,28 -17,33 -39,43 -33,31 -48,43 -39,33 -23,17 -2,1 -21,-8 -29,-22 -19,-20 -4,-16 15,-22"
           id="polyline12786"
           inkscape:connector-curvature="0" />
        <path
           style="fill-rule:evenodd"
           d="m 5178,33958 24,-49 137,48 63,23 48,23 28,17 3,5 -3,30 -9,25 -10,19 -16,7 -29,-5 -50,-15 -63,-22 -62,-22 -25,-10 -61,-24 25,-50"
           id="polyline12788"
           inkscape:connector-curvature="0" />
        <path
           style="fill-rule:evenodd"
           d="m 4834,32513 36,-30 54,-39 67,-44 69,-41 28,2 24,23 22,31 3,20 -18,19 -30,20 -48,32 -58,37 -22,14 -44,26 -26,10 -18,-4 -17,-13 -25,-29 -9,-17 12,-17"
           id="polyline12790"
           inkscape:connector-curvature="0" />
        <path
           style="fill-rule:evenodd"
           d="m 4945,33322 4,-32 7,-28 17,-12 37,-1 11,1 58,6 63,10 59,13 47,13 26,12 2,3 -2,25 -6,29 -17,32 -21,4 -30,-5 -52,-8 -64,-9 -10,-1 -60,-10 -46,-9 -22,-8 -1,-2 v -23"
           id="polyline12792"
           inkscape:connector-curvature="0" />
        <path
           style="fill-rule:evenodd"
           d="m 4521,32108 36,-54 36,-49 17,-20 27,-28 20,-6 27,12 2,1 29,20 11,13 -7,17 -23,38 -32,53 -17,25 -81,124 -48,-33 -47,-33 50,-80"
           id="polyline12794"
           inkscape:connector-curvature="0" />
        <path
           style="fill-rule:evenodd"
           d="m 4773,33769 16,-33 25,-42 122,75 57,35 44,28 25,17 3,3 -4,18 -18,32 -1,1 -30,43 -121,-68 -56,-34 -43,-28 -23,-20 -2,-3 6,-24"
           id="polyline12796"
           inkscape:connector-curvature="0" />
        <path
           style="fill-rule:evenodd"
           d="m 2489,33290 -14,-74 -7,-59 -1,-51 3,-52 3,-24 25,-150 42,-136 63,-134 65,-108 56,-84 50,-64 52,-55 63,-54 28,-22 140,-99 142,-71 153,-51 57,-14 196,-25 196,7 193,41 141,52 172,92 152,118 128,141 104,161 78,178 28,96 19,82 15,81 10,68 2,28 -11,193 -41,186 -70,176 -97,162 -122,147 -145,126 -165,103 -54,26 -145,53 -160,35 -161,15 -146,-5 -192,-40 -182,-69 -168,-98 -152,-123 -131,-146 -79,-118 -27,-47 -21,-46 -18,-51 -18,-66 -19,-87 -10,-45 -20,-99"
           id="polyline12798"
           inkscape:connector-curvature="0" />
        <path
           style="fill-rule:evenodd"
           d="m 20757,48416 10,-27 25,-53 21,-43 111,-256 92,-279 70,-296 49,-308 27,-317 5,-319 -20,-317 -6,-59 -57,-355 -86,-343 -115,-330 -144,-314 -170,-297 -197,-279 -222,-259 -246,-238 -270,-216 -120,-83 -85,-52 -106,-59 -121,-63 -129,-64 -130,-60 -123,-54 -109,-44 -88,-31 -6,-2 -348,-87 -347,-53 -348,-20 -348,13 -347,47 -21,4 -337,79 -329,109 -261,111 -140,-71 -4,-11 -11,3 4,12 11,-4 140,71 -59,25 -306,163 -292,188 -273,209 -253,231 -230,250 -204,267 -111,172 -62,101 -46,75 -30,49 -15,21 1,-6 16,-34 32,-63 48,-91 61,-115 117,-216 110,-189 106,-169 108,-153 111,-144 120,-138 132,-139 71,-71 268,-241 286,-216 304,-190 316,-162 329,-134 336,-103 343,-73 273,-34 333,-13 335,18 332,49 326,79 317,108 304,135 286,163 27,17 274,197 252,221 229,242 205,261 181,278 155,293 130,308 104,318 77,329 50,336 19,294 -108,-55 2,-7 v -29 l -2,-46 -4,-57 -5,-62 -6,-63 -4,-37 -42,-262 -64,-274 -41,-143 -115,-319 -144,-307 -172,-292 -197,-274 -222,-255 -243,-233 -264,-208 -126,-85 -93,-55 -116,-62 -129,-64 -134,-62 -130,-56 -117,-46 -42,-14 -325,-91 -329,-58 -334,-26 -336,6 -336,37 -334,69 -331,100 -326,131 -317,161 -87,50 -69,40 -49,31 -28,20 -5,7 19,-7 44,-22 58,-29 322,-153 328,-121 332,-90 334,-59 335,-29 h 333 l 329,31 324,59 318,88 308,116 297,144 285,171 270,199 254,225 235,251 140,174 173,248 149,258 129,272 108,289 89,310 72,334 27,155 4,21 108,55 3,48 v 16 l -98,-50 v -6 l -7,-22 -2,-2 -6,10 v 6 l 7,21 2,2 6,-9 98,50 -1,40 -94,-48 -4,-11 -11,4 4,11 11,-4 94,48 -5,287 -195,-99 4,-13 v -39 l -3,-60 -5,-75 -7,-83 -10,-85 -4,-31 -61,-349 -92,-338 -121,-327 -150,-313 -178,-296 -157,-218 -155,-183 -179,-183 -194,-174 -201,-159 -176,-122 -103,-61 -126,-66 -137,-68 -140,-64 -133,-55 -113,-42 -335,-96 -339,-62 -340,-30 -342,2 -340,35 -338,67 -334,100 -328,131 -237,117 -49,26 -21,13 -108,-55 -3,-11 -11,4 3,11 11,-4 108,55 -4,2 2,3 28,-10 56,-23 85,-36 32,-14 318,-118 329,-88 337,-57 342,-28 344,3 343,34 339,64 332,95 43,15 120,47 138,60 146,69 145,74 135,75 116,69 37,24 280,209 258,232 236,254 212,273 187,291 160,305 131,318 102,329 71,336 24,176 7,58 7,42 6,18 v 0 l 195,99 v 3 l -3,24 -185,-94 -4,-11 -11,3 4,11 11,-3 185,94 -4,36 -181,-93 -4,-11 -11,4 4,11 11,-4 181,93 -29,288 -65,348 -95,347 -64,185 -30,77 -41,93 -49,106 -53,111 -55,113 -55,107 -51,98 -46,82 -36,60 -20,28 -15,17 -3,-3"
           id="polyline12800"
           inkscape:connector-curvature="0" />
        <path
           style="fill-rule:evenodd"
           d="m 18495,48511 -65,-35 -48,-31 -40,-30 -38,-34 -35,-36 -128,-155 -98,-169 -69,-178 -38,-186 -7,-189 24,-190 55,-188 53,-118 104,-170 125,-145 147,-119 168,-94 135,-52 189,-48 180,-19 175,13 175,43 153,61 120,61 93,57 34,27 142,139 116,157 88,172 60,182 30,190 -2,194 -10,80 -47,188 -75,174 -100,156 -122,139 -142,117 -159,95 -172,69 -183,43 -192,13 -153,-11 -59,-9 -49,-10 -48,-15 -55,-23 -70,-33 -75,-38 -87,-45"
           id="polyline12802"
           inkscape:connector-curvature="0" />
        <path
           style="fill-rule:evenodd"
           d="m 15199,46832 -63,-35 -48,-30 -39,-29 -37,-35 -43,-44 -4,-3 -123,-154 -95,-168 -66,-178 -37,-186 -7,-188 24,-188 54,-184 84,-174 113,-164 134,-138 154,-111 176,-87 68,-25 194,-48 191,-16 190,18 187,51 110,46 113,58 91,55 41,31 143,141 117,158 89,171 60,182 30,189 -1,192 -24,155 -55,174 -82,165 -107,152 -127,134 -143,111 -156,84 -7,3 -185,63 -182,33 -184,3 -107,-10 -58,-9 -49,-11 -48,-16 -55,-22 -70,-34 -75,-38 -86,-44"
           id="polyline12804"
           inkscape:connector-curvature="0" />
        <path
           style="fill-rule:evenodd"
           d="m 17713,46436 -50,-32 -12,-8 -55,-37 -31,-26 -14,-20 -1,-21 2,-12 10,-30 19,-6 30,10 41,18 56,28 44,24 91,53 -34,42 -26,30 -16,15 v 0 l -17,-7 -37,-21"
           id="polyline12806"
           inkscape:connector-curvature="0" />
        <path
           style="fill-rule:evenodd"
           d="m 17090,46158 -1,-24 16,-30 1,-2 24,-13 45,1 70,15 96,31 15,5 41,16 16,16 -1,26 -4,15 -12,35 -7,15 h -1 l -17,-4 -42,-11 -58,-17 -33,-9 -77,-24 -48,-20 -23,-21"
           id="polyline12808"
           inkscape:connector-curvature="0" />
        <path
           style="fill-rule:evenodd"
           d="m 18081,46708 -21,-17 -39,-32 -46,-41 h -1 l -46,-42 -23,-27 -5,-18 9,-17 1,-1 24,-30 10,-15 6,-10 8,-2 17,9 29,24 47,41 19,17 46,42 35,33 17,19 1,1 -8,21 -26,24 -31,19 -22,2 h -1"
           id="polyline12810"
           inkscape:connector-curvature="0" />
        <path
           style="fill-rule:evenodd"
           d="m 16990,46715 -61,-51 -3,-3 -47,-41 -24,-27 -6,-18 8,-16 2,-2 24,-30 9,-15 10,-10 17,4 29,20 46,41 7,7 44,37 38,29 15,9 29,25 -2,32 -21,30 -20,18 -22,3 -29,-12 -43,-30"
           id="polyline12812"
           inkscape:connector-curvature="0" />
        <path
           style="fill-rule:evenodd"
           d="m 17635,47056 -8,-16 2,-22 3,-14 14,-51 126,33 61,17 47,13 26,8 2,1 1,17 -13,34 -3,6 -17,29 -18,12 -31,-3 -46,-12 -73,-21 -47,-17 -26,-14"
           id="polyline12814"
           inkscape:connector-curvature="0" />
        <path
           style="fill-rule:evenodd"
           d="m 17247,46888 -25,-26 -4,-25 10,-28 22,-44 284,144 -29,46 -29,46 -106,-48 -75,-36 -48,-29"
           id="polyline12816"
           inkscape:connector-curvature="0" />
        <path
           style="fill-rule:evenodd"
           d="m 16226,47301 -15,-43 -16,-51 -19,-63 -9,-39 2,-22 12,-14 18,-10 33,-14 18,-4 8,16 15,41 20,57 6,19 18,61 13,48 5,27 v 3 l -19,9 -34,7 -25,1 -17,-7 -14,-22"
           id="polyline12818"
           inkscape:connector-curvature="0" />
        <path
           style="fill-rule:evenodd"
           d="m 17685,48099 -26,-46 80,-35 61,-23 60,-18 22,-5 62,-12 15,50 14,51 -131,42 -131,41 -26,-45"
           id="polyline12820"
           inkscape:connector-curvature="0" />
        <path
           style="fill-rule:evenodd"
           d="m 15662,47314 6,-63 8,-61 3,-16 11,-39 16,-16 30,-1 37,3 18,4 3,18 -2,42 -7,59 -2,18 -18,132 h -54 -54 l 5,-80"
           id="polyline12822"
           inkscape:connector-curvature="0" />
        <path
           style="fill-rule:evenodd"
           d="m 16288,47717 -9,-33 -6,-57 -2,-15 -4,-60 -1,-47 2,-23 v -1 l 19,-10 36,-8 29,-1 15,9 9,28 6,44 8,71 3,64 -1,49 -5,27 -2,2 -21,-2 -35,-9 -25,-11 -16,-17"
           id="polyline12824"
           inkscape:connector-curvature="0" />
        <path
           style="fill-rule:evenodd"
           d="m 17986,48628 -21,-28 -17,-27 -3,-12 18,-22 34,-34 41,-39 43,-37 35,-30 22,-14 2,-1 20,15 20,22 15,32 -14,31 -4,5 -26,28 -37,36 -42,37 -37,32 -25,19 -7,3 -17,-16"
           id="polyline12826"
           inkscape:connector-curvature="0" />
        <path
           style="fill-rule:evenodd"
           d="m 17313,48304 -40,-41 108,-68 70,-42 48,-25 30,-7 19,9 12,24 2,9 15,49 -113,67 -112,66 -39,-41"
           id="polyline12828"
           inkscape:connector-curvature="0" />
        <path
           style="fill-rule:evenodd"
           d="m 15670,47811 -5,-50 -1,-4 -8,-93 -4,-64 -1,-42 2,-23 7,-11 13,-3 h 12 l 36,3 25,15 14,34 9,57 4,46 3,64 1,51 -1,29 -1,2 -19,11 -35,8 -28,3 -15,-7 -8,-26"
           id="polyline12830"
           inkscape:connector-curvature="0" />
        <path
           style="fill-rule:evenodd"
           d="m 17603,48852 -23,-50 123,-77 58,-33 48,-24 31,-11 5,1 22,21 14,23 8,20 -4,17 -23,19 -43,29 -56,36 -56,33 -24,14 -57,32 -23,-50"
           id="polyline12832"
           inkscape:connector-curvature="0" />
        <path
           style="fill-rule:evenodd"
           d="m 16263,48209 -1,-46 4,-67 9,-80 11,-79 18,-21 34,-4 38,3 17,9 3,27 -2,36 -6,57 -7,68 -4,27 -7,50 -9,27 -14,11 -21,4 -38,2 -19,-4 -6,-20"
           id="polyline12834"
           inkscape:connector-curvature="0" />
        <path
           style="fill-rule:evenodd"
           d="m 16962,48632 -22,-23 -18,-24 2,-20 23,-29 7,-8 41,-41 47,-43 48,-38 39,-28 25,-13 h 5 l 18,18 19,23 14,33 -11,19 -23,20 -38,35 -48,45 -7,6 -45,41 -36,30 -21,12 h -1 l -18,-15"
           id="polyline12836"
           inkscape:connector-curvature="0" />
        <path
           style="fill-rule:evenodd"
           d="m 15751,48198 -19,-62 -15,-59 -5,-26 -4,-39 8,-19 25,-13 3,-1 34,-10 16,-1 9,17 16,41 20,59 9,29 46,141 -56,16 -56,16 -31,-89"
           id="polyline12838"
           inkscape:connector-curvature="0" />
        <path
           style="fill-rule:evenodd"
           d="m 17200,49047 -15,-33 -16,-46 135,-48 62,-22 50,-16 29,-9 5,-1 11,14 13,35 1,2 14,50 -129,51 -61,22 -50,15 -29,6 h -4 l -16,-20"
           id="polyline12840"
           inkscape:connector-curvature="0" />
        <path
           style="fill-rule:evenodd"
           d="m 15391,50521 -66,-37 -50,-31 -41,-31 -38,-35 -16,-17 -101,-115 -80,-118 -64,-133 -44,-119 -29,-96 -19,-79 -9,-75 -3,-83 v -36 l 12,-171 33,-155 57,-150 26,-54 104,-168 128,-147 153,-125 130,-77 180,-75 187,-44 190,-12 190,21 188,52 92,38 76,38 72,39 59,35 24,16 143,129 118,149 93,166 65,178 37,186 7,192 -24,193 -14,59 -50,145 -73,147 -90,135 -96,110 -151,124 -169,98 -181,69 -192,41 -196,10 -141,-13 -53,-9 -49,-12 -52,-19 -62,-27 -80,-40 -41,-20 -90,-47"
           id="polyline12842"
           inkscape:connector-curvature="0" />
        <path
           style="fill-rule:evenodd"
           d="m 39363,44611 -16,-25 -28,-51 -22,-43 -142,-240 -172,-237 -198,-231 -221,-222 -240,-207 -255,-191 -269,-171 -51,-30 -321,-163 -328,-132 -334,-100 -338,-68 -341,-37 -341,-5 -340,27 -338,59 -333,92 -138,48 -92,38 -110,51 -122,62 -128,67 -125,69 -116,68 -99,62 -77,53 -5,4 -274,230 -248,250 -221,269 -193,289 -167,309 -9,19 -134,319 -106,331 -63,277 -139,71 -12,-4 -3,11 11,4 4,-11 139,-71 -14,62 -48,343 -20,346 9,345 38,340 67,332 96,322 74,192 46,109 34,82 21,53 8,24 -4,-4 -18,-33 -32,-63 -46,-92 -57,-117 -106,-222 -88,-200 -74,-185 -61,-177 -51,-175 -41,-178 -35,-188 -16,-99 -38,-359 -6,-359 25,-357 55,-352 85,-344 114,-333 143,-320 132,-241 186,-277 211,-260 235,-240 256,-218 273,-192 288,-166 300,-137 29,-11 322,-106 326,-74 330,-43 332,-13 331,18 329,46 325,76 319,103 311,131 301,157 249,158 -108,55 -4,-6 -24,-17 -38,-25 -48,-31 -54,-33 -54,-32 -32,-18 -237,-120 -260,-109 -139,-51 -326,-95 -333,-64 -337,-32 -338,-2 -336,30 -332,60 -323,91 -143,52 -100,43 -117,57 -128,67 -129,72 -122,72 -105,68 -37,26 -264,209 -241,232 -217,255 -193,275 -167,294 -141,311 -114,326 -85,341 -56,351 -11,99 -7,80 -5,58 v 34 l 2,9 6,-20 9,-48 10,-64 66,-351 94,-336 123,-322 148,-305 173,-288 196,-269 219,-249 238,-227 258,-205 275,-181 291,-156 306,-130 319,-101 332,-73 342,-43 222,-11 302,6 297,31 295,56 298,82 303,110 313,138 141,70 19,9 108,-55 41,25 13,10 -98,50 -6,-4 -21,-7 -3,1 4,10 6,4 21,7 3,-1 -4,-10 98,-50 32,24 -94,48 -12,-4 -3,12 11,3 4,-11 94,-48 229,173 -195,100 -8,-11 -32,-24 -50,-33 -64,-40 -71,-42 -74,-43 -28,-15 -318,-155 -328,-125 -336,-94 -341,-62 -344,-31 -269,-1 -239,19 -253,37 -255,54 -246,69 -202,72 -110,47 -128,62 -135,72 -134,76 -123,74 -101,67 -274,215 -250,237 -224,258 -199,278 -172,296 -144,313 -116,328 -87,343 -45,260 -7,56 -2,24 -107,55 -11,-4 -4,11 11,4 4,-11 107,-55 v 4 h 3 l 8,-28 15,-59 21,-90 7,-34 92,-326 122,-318 151,-307 179,-293 205,-276 229,-258 251,-237 272,-212 37,-26 109,-70 130,-76 142,-77 145,-74 139,-66 125,-53 41,-15 333,-104 340,-73 344,-42 346,-10 344,19 341,51 335,80 326,111 314,140 156,84 51,28 38,19 18,7 v 0 l 195,-100 2,2 18,16 -185,94 -11,-3 -4,11 11,4 4,-12 185,-94 27,24 -182,92 -11,-3 -4,11 11,4 4,-12 182,-92 216,193 243,257 225,281 112,161 44,69 52,88 57,102 59,108 58,111 55,108 49,98 39,85 28,66 11,31 5,23 -5,1"
           id="polyline12844"
           inkscape:connector-curvature="0" />
        <path
           style="fill-rule:evenodd"
           d="m 38110,46496 -66,32 -53,21 -48,15 -50,10 -50,8 -200,12 -194,-20 -185,-49 -173,-79 -157,-105 -140,-131 -119,-155 -65,-112 -76,-185 -44,-186 -10,-189 23,-191 37,-139 72,-182 91,-156 113,-135 138,-116 140,-88 118,-61 102,-41 42,-12 196,-33 195,-2 191,30 182,58 171,88 156,115 59,56 125,149 96,162 68,173 40,180 11,184 -16,184 -45,180 -73,174 -102,162 -99,118 -42,42 -37,34 -41,30 -50,31 -68,37 -75,38 -88,44"
           id="polyline12846"
           inkscape:connector-curvature="0" />
        <path
           style="fill-rule:evenodd"
           d="m 34815,48176 -66,31 -52,21 -47,14 -50,10 -60,9 h -5 l -197,10 -192,-22 -183,-51 -171,-80 -157,-105 -138,-129 -117,-152 -92,-170 -66,-189 -33,-188 1,-191 33,-193 20,-69 75,-186 100,-164 126,-143 151,-121 102,-62 113,-58 98,-41 49,-15 198,-33 197,-2 191,29 182,58 171,87 155,114 111,110 108,147 85,164 61,176 33,181 6,181 -24,176 -2,7 -57,187 -80,166 -106,151 -71,80 -42,42 -38,33 -40,30 -51,31 -68,37 -75,38 -86,44"
           id="polyline12848"
           inkscape:connector-curvature="0" />
        <path
           style="fill-rule:evenodd"
           d="m 35972,45909 -55,22 -14,5 -62,22 -39,11 -24,-1 -18,-12 -9,-8 -18,-26 6,-19 26,-18 39,-23 56,-29 45,-21 96,-43 14,53 9,38 3,22 v 1 l -16,9 -39,17"
           id="polyline12850"
           inkscape:connector-curvature="0" />
        <path
           style="fill-rule:evenodd"
           d="m 35381,46250 -20,-13 -15,-31 -1,-2 4,-27 27,-36 54,-48 81,-60 12,-8 38,-24 22,-4 20,17 10,12 22,29 8,16 v 0 l -14,12 -34,27 -48,38 -26,21 -65,48 -45,26 -30,7"
           id="polyline12852"
           inkscape:connector-curvature="0" />
        <path
           style="fill-rule:evenodd"
           d="m 36409,45771 -27,8 -48,12 -61,14 h -1 l -60,12 -36,4 -18,-7 -7,-17 -1,-2 -10,-37 -6,-16 -5,-11 3,-9 17,-7 37,-10 61,-14 25,-5 61,-13 47,-8 25,-3 h 2 l 12,19 4,35 -3,35 -11,20 v 0"
           id="polyline12854"
           inkscape:connector-curvature="0" />
        <path
           style="fill-rule:evenodd"
           d="m 35773,46658 -77,20 -4,1 -61,13 -36,4 -19,-6 -7,-16 -1,-2 -10,-38 -7,-16 -2,-14 13,-12 33,-11 61,-13 9,-2 56,-13 46,-14 16,-7 37,-8 25,19 12,35 3,27 -10,20 -27,16 -50,17"
           id="polyline12856"
           inkscape:connector-curvature="0" />
        <path
           style="fill-rule:evenodd"
           d="m 36428,46337 -18,-3 -16,-15 -10,-11 -33,-41 101,-82 49,-39 39,-31 22,-16 2,-1 13,9 20,30 3,6 14,31 -1,22 -20,23 -37,30 -61,47 -40,29 -27,12"
           id="polyline12858"
           inkscape:connector-curvature="0" />
        <path
           style="fill-rule:evenodd"
           d="m 36064,46552 -35,5 -24,-12 -16,-24 -23,-44 284,-145 20,51 20,50 -101,58 -74,39 -51,22"
           id="polyline12860"
           inkscape:connector-curvature="0" />
        <path
           style="fill-rule:evenodd"
           d="m 35798,47620 -44,-12 -50,-17 -62,-22 -37,-16 -17,-14 -4,-19 2,-19 8,-36 7,-16 19,3 42,11 57,18 19,6 60,21 47,18 25,12 2,2 -4,20 -15,32 -13,20 -16,10 -26,-2"
           id="polyline12862"
           inkscape:connector-curvature="0" />
        <path
           style="fill-rule:evenodd"
           d="m 37301,46909 -52,-6 19,-85 17,-63 20,-59 9,-20 27,-58 49,18 50,18 -43,130 -44,131 -52,-6"
           id="polyline12864"
           inkscape:connector-curvature="0" />
        <path
           style="fill-rule:evenodd"
           d="m 35477,48084 -48,-41 -44,-43 -11,-12 -25,-31 -3,-23 15,-25 25,-28 14,-12 16,8 33,27 44,40 13,12 96,93 -32,43 -31,44 -62,-52"
           id="polyline12866"
           inkscape:connector-curvature="0" />
        <path
           style="fill-rule:evenodd"
           d="m 36171,47815 -32,-12 -50,-28 -13,-8 -51,-32 -38,-27 -18,-15 h -1 l 3,-22 15,-33 16,-24 17,-7 27,9 40,21 62,35 53,35 40,30 18,20 1,3 -14,15 -29,24 -23,14 -23,2"
           id="polyline12868"
           inkscape:connector-curvature="0" />
        <path
           style="fill-rule:evenodd"
           d="m 37906,46977 h -35 l -32,-2 -12,-4 -7,-28 -7,-47 -7,-57 -5,-56 -3,-46 v -26 l 1,-2 23,-7 31,-3 34,7 17,29 2,5 7,38 7,51 6,55 4,49 1,33 -2,7 -23,4"
           id="polyline12870"
           inkscape:connector-curvature="0" />
        <path
           style="fill-rule:evenodd"
           d="m 37248,47331 -56,8 8,-127 7,-82 8,-52 12,-29 19,-10 26,5 9,2 48,18 -12,130 -12,129 -57,8"
           id="polyline12872"
           inkscape:connector-curvature="0" />
        <path
           style="fill-rule:evenodd"
           d="m 35884,48371 -44,-26 -4,-2 -79,-48 -55,-34 -34,-23 -18,-17 -4,-12 4,-11 7,-10 25,-28 26,-11 36,8 52,27 39,24 54,35 42,29 22,17 2,3 -3,22 -14,33 -14,24 -15,8 -25,-8"
           id="polyline12874"
           inkscape:connector-curvature="0" />
        <path
           style="fill-rule:evenodd"
           d="m 37862,47418 -54,-10 10,-145 7,-67 9,-52 10,-31 3,-5 30,-5 27,2 21,6 11,13 3,30 -2,51 -5,67 -5,65 -3,27 -8,65 -54,-11"
           id="polyline12876"
           inkscape:connector-curvature="0" />
        <path
           style="fill-rule:evenodd"
           d="m 36555,48124 -38,-26 -52,-42 -60,-54 -57,-56 -6,-27 16,-30 25,-29 17,-8 24,13 27,23 44,38 50,47 20,18 36,35 16,23 1,18 -8,19 -21,32 -15,13 -19,-7"
           id="polyline12878"
           inkscape:connector-curvature="0" />
        <path
           style="fill-rule:evenodd"
           d="m 37307,47808 -32,4 h -29 l -15,-13 -11,-36 -2,-10 -9,-57 -6,-64 -4,-60 1,-49 4,-28 3,-3 25,-4 30,-2 35,8 9,20 3,30 6,52 8,64 1,10 6,61 3,46 -2,24 -1,1 -23,6"
           id="polyline12880"
           inkscape:connector-curvature="0" />
        <path
           style="fill-rule:evenodd"
           d="m 36244,48532 -61,-21 -57,-22 -23,-11 -34,-20 -11,-18 4,-28 1,-3 12,-33 9,-14 19,3 42,12 59,17 29,10 141,46 -20,55 -19,55 -91,-28"
           id="polyline12882"
           inkscape:connector-curvature="0" />
        <path
           style="fill-rule:evenodd"
           d="m 37783,47859 -36,-7 -46,-14 40,-138 19,-63 16,-50 10,-29 2,-4 h 18 l 36,9 2,1 49,18 -35,134 -18,63 -16,49 -13,27 -3,3 -25,1"
           id="polyline12884"
           inkscape:connector-curvature="0" />
        <path
           style="fill-rule:evenodd"
           d="m 37912,50189 -68,32 -55,22 -49,14 -51,11 -23,3 -153,14 -142,-5 -145,-25 -122,-35 -95,-33 -75,-32 -66,-36 -69,-46 -29,-22 -131,-110 -106,-118 -88,-134 -28,-52 -76,-183 -43,-191 -11,-197 14,-150 45,-190 74,-177 103,-161 128,-142 152,-121 85,-52 75,-39 74,-36 63,-26 27,-10 189,-40 190,-8 188,22 183,52 172,80 160,107 142,133 40,45 88,126 75,146 57,152 32,142 12,195 -20,194 -51,188 -80,179 -107,164 -93,107 -39,38 -38,32 -46,31 -58,34 -79,42 -41,21 -91,45"
           id="polyline12886"
           inkscape:connector-curvature="0" />
        <path
           style="fill-rule:evenodd"
           d="m 47879,29178 -29,-3 -57,-10 -48,-9 -276,-41 -292,-16 -304,8 -311,32 -313,56 -309,79 -302,101 -55,21 -328,147 -309,172 -289,196 -266,220 -243,242 -218,262 -193,281 -167,300 -138,316 -49,138 -29,95 -29,118 -30,134 -28,141 -24,140 -21,133 -14,117 -7,93 v 6 l 6,358 38,350 71,341 103,332 135,324 9,19 163,305 191,290 175,223 -32,154 -10,6 6,10 10,-6 -6,-10 32,-154 39,50 237,255 257,233 273,209 288,185 301,157 310,128 196,63 114,33 84,25 55,17 24,9 -6,1 -37,-7 -69,-15 -100,-22 -127,-29 -239,-58 -211,-57 -191,-59 -176,-64 -167,-71 -165,-79 -168,-92 -87,-50 -303,-196 -283,-221 -261,-244 -239,-264 -214,-283 -187,-298 -159,-313 -103,-254 -99,-319 -69,-328 -39,-333 -8,-336 22,-334 52,-328 83,-319 10,-30 119,-316 148,-301 174,-283 199,-266 222,-246 244,-226 263,-205 281,-183 297,-160 312,-135 279,-94 -25,118 h -7 l -28,8 -44,13 -54,19 -59,21 -59,22 -35,13 -242,109 -248,133 -128,76 -278,193 -259,219 -238,241 -214,262 -189,280 -161,296 -133,309 -50,144 -29,103 -30,128 -28,141 -25,146 -21,140 -13,125 -4,45 -3,336 29,334 61,329 93,323 123,315 153,305 182,294 211,280 237,265 71,71 57,56 43,39 26,23 8,3 -12,-17 -32,-37 -44,-48 -230,-272 -202,-285 -173,-298 -144,-307 -114,-316 -86,-322 -56,-326 -27,-328 3,-329 32,-328 62,-325 92,-319 122,-312 152,-304 182,-292 132,-180 195,-231 210,-212 229,-194 252,-179 276,-166 304,-156 143,-66 19,-10 25,-118 46,-16 16,-4 -23,108 -7,2 -19,12 -1,2 10,4 7,-2 19,-12 1,-3 -10,-3 23,-108 38,-9 -22,103 -10,6 7,10 10,-6 -7,-10 22,-103 279,-69 -46,214 -13,-1 -38,10 -58,18 -70,24 -79,29 -79,31 -30,12 -320,149 -303,177 -285,202 -263,225 -240,248 -170,209 -136,197 -131,220 -118,233 -102,235 -71,202 -32,115 -32,138 -30,151 -25,151 -20,143 -11,121 -6,348 28,343 59,337 91,329 122,319 152,310 182,296 212,284 174,198 38,41 18,16 -25,118 -10,7 6,10 10,-7 -6,-10 25,-118 3,3 2,-2 -17,-24 -36,-49 -57,-73 -21,-27 -197,-276 -170,-295 -143,-311 -115,-323 -86,-333 -56,-341 -26,-344 6,-345 3,-45 14,-128 23,-149 29,-159 34,-159 37,-150 37,-130 14,-42 128,-324 158,-310 184,-294 209,-275 233,-256 253,-233 273,-209 291,-184 307,-155 164,-69 53,-22 39,-18 16,-9 v 0 l 46,-214 3,-1 23,-4 -43,203 -10,7 7,9 10,-6 -7,-10 43,-203 36,-6 -43,200 -10,6 7,10 10,-6 -7,-10 43,-200 286,-46 353,-27 360,2 195,14 82,9 101,15 114,20 122,22 123,25 118,25 107,24 91,23 68,19 32,12 21,11 -3,3"
           id="polyline12888"
           inkscape:connector-curvature="0" />
        <path
           style="fill-rule:evenodd"
           d="m 48556,31339 -17,71 -17,55 -18,46 -24,45 -26,44 -117,163 -137,139 -155,112 -169,85 -181,56 -190,26 -195,-5 -128,-20 -192,-56 -172,-84 -153,-111 -134,-138 -85,-116 -96,-171 -64,-169 -33,-172 -4,-181 20,-163 27,-131 32,-105 17,-40 97,-173 122,-153 143,-130 161,-105 175,-77 188,-49 81,-11 193,-3 187,27 177,56 166,83 150,107 132,128 112,149 89,165 62,182 29,151 7,59 2,50 -2,51 -8,59 -14,75 -17,83 -21,96"
           id="polyline12890"
           inkscape:connector-curvature="0" />
        <path
           style="fill-rule:evenodd"
           d="m 47787,34957 -17,70 -16,54 -19,45 -23,45 -32,53 -2,4 -117,159 -138,135 -155,110 -169,84 -180,55 -188,26 -191,-4 -191,-36 -188,-67 -167,-94 -148,-120 -129,-148 -41,-59 -97,-175 -65,-180 -31,-188 v -195 l 16,-117 26,-125 31,-102 19,-47 99,-175 122,-154 142,-130 160,-105 175,-78 186,-49 156,-17 182,8 181,37 175,64 162,88 144,110 121,129 5,5 109,163 79,167 51,177 17,105 6,59 3,51 -3,50 -8,59 -14,76 -17,82 -21,95"
           id="polyline12892"
           inkscape:connector-curvature="0" />
        <path
           style="fill-rule:evenodd"
           d="m 46754,32631 -18,56 -4,15 -22,62 -16,37 -16,18 -21,7 -12,1 -31,-2 -11,-17 2,-31 7,-45 13,-62 12,-48 26,-102 50,23 36,17 18,11 1,1 -3,18 -11,41"
           id="polyline12894"
           inkscape:connector-curvature="0" />
        <path
           style="fill-rule:evenodd"
           d="m 46647,33304 -22,8 -34,-8 h -2 l -19,-20 -11,-44 -3,-72 5,-100 1,-16 5,-43 11,-20 25,-5 16,-1 37,2 17,4 v 0 18 43 l -1,61 v 34 l -3,80 -8,52 -14,27"
           id="polyline12896"
           inkscape:connector-curvature="0" />
        <path
           style="fill-rule:evenodd"
           d="m 46922,32205 -11,25 -21,45 -27,56 -1,1 -28,55 -20,29 -16,10 -19,-4 -1,-1 -36,-16 -16,-5 -12,-4 -4,-7 5,-18 15,-35 28,-56 12,-23 28,-55 23,-42 14,-22 1,-1 22,3 30,18 26,25 8,21 v 1"
           id="polyline12898"
           inkscape:connector-curvature="0" />
        <path
           style="fill-rule:evenodd"
           d="m 47211,33257 -33,72 -2,4 -28,56 -19,30 -17,11 -17,-4 -2,-1 -36,-16 -17,-5 -12,-7 -1,-17 13,-33 27,-56 5,-8 25,-52 18,-45 5,-16 16,-35 31,-6 35,12 22,15 9,20 -4,32 -18,49"
           id="polyline12900"
           inkscape:connector-curvature="0" />
        <path
           style="fill-rule:evenodd"
           d="m 47373,32545 -13,13 -22,4 h -14 l -53,-1 v -129 -63 l 1,-50 1,-27 v -2 l 16,-5 36,4 6,1 33,9 16,14 6,30 v 48 l -2,77 -3,49 -8,28"
           id="polyline12902"
           inkscape:connector-curvature="0" />
        <path
           style="fill-rule:evenodd"
           d="m 47312,32964 -19,30 -23,12 -30,-3 -48,-10 66,-312 52,16 52,17 -20,115 -15,82 -15,53"
           id="polyline12904"
           inkscape:connector-curvature="0" />
        <path
           style="fill-rule:evenodd"
           d="m 47974,33843 -37,26 -44,29 -57,34 -35,19 -22,4 -17,-8 -14,-15 -22,-28 -8,-16 13,-13 35,-25 50,-33 17,-11 54,-34 43,-25 26,-11 2,-1 14,16 15,31 8,24 -3,18 -18,19"
           id="polyline12906"
           inkscape:connector-curvature="0" />
        <path
           style="fill-rule:evenodd"
           d="m 48368,32227 -38,37 -54,-68 -38,-53 -34,-53 -10,-20 -27,-57 45,-27 44,-27 75,116 74,115 -37,37"
           id="polyline12908"
           inkscape:connector-curvature="0" />
        <path
           style="fill-rule:evenodd"
           d="m 48133,34385 -62,10 -61,8 -16,1 h -41 l -19,-12 -10,-28 -6,-36 -1,-19 17,-7 41,-9 59,-9 18,-3 132,-16 14,52 14,52 -79,16"
           id="polyline12910"
           inkscape:connector-curvature="0" />
        <path
           style="fill-rule:evenodd"
           d="m 48360,33676 -29,17 -53,21 -15,5 -57,19 -44,14 -23,4 h -1 l -15,-16 -16,-32 -9,-28 5,-17 24,-16 41,-17 67,-26 61,-20 48,-12 27,-2 2,2 4,21 v 36 l -4,27 -13,20"
           id="polyline12912"
           inkscape:connector-curvature="0" />
        <path
           style="fill-rule:evenodd"
           d="m 48801,31800 -22,28 -22,23 -10,6 -26,-12 -41,-24 -49,-30 -47,-31 -37,-27 -20,-17 -1,-2 9,-22 16,-26 28,-22 33,5 5,2 34,18 44,27 47,30 40,28 26,20 5,6 -12,20"
           id="polyline12914"
           inkscape:connector-curvature="0" />
        <path
           style="fill-rule:evenodd"
           d="m 48663,32534 -30,49 -94,-87 -59,-56 -35,-40 -15,-27 4,-21 20,-18 8,-5 43,-26 94,91 93,91 -29,49"
           id="polyline12916"
           inkscape:connector-curvature="0" />
        <path
           style="fill-rule:evenodd"
           d="m 48612,34248 -48,19 -4,1 -87,32 -61,21 -40,12 -23,3 -12,-4 -7,-11 -3,-11 -6,-37 8,-27 29,-23 53,-24 43,-15 61,-20 49,-14 28,-6 h 3 l 15,16 18,32 10,26 -4,16 -22,14"
           id="polyline12918"
           inkscape:connector-curvature="0" />
        <path
           style="fill-rule:evenodd"
           d="m 49116,32112 -42,36 -106,-100 -47,-47 -36,-40 -18,-27 -1,-6 15,-26 18,-20 18,-13 h 17 l 25,17 39,34 49,45 47,46 19,19 46,47 -43,35"
           id="polyline12920"
           inkscape:connector-curvature="0" />
        <path
           style="fill-rule:evenodd"
           d="m 48842,33572 -44,13 -65,14 -80,12 -79,10 -25,-13 -13,-31 -7,-37 5,-19 24,-10 36,-7 57,-10 68,-10 26,-4 51,-5 27,1 15,11 9,19 12,36 1,19 -18,11"
           id="polyline12922"
           inkscape:connector-curvature="0" />
        <path
           style="fill-rule:evenodd"
           d="m 49070,32788 -17,28 -18,22 -20,4 -34,-14 -9,-5 -51,-29 -53,-35 -49,-36 -38,-31 -19,-21 -1,-4 13,-22 17,-24 28,-22 22,5 25,17 44,28 55,34 8,5 52,34 37,27 18,16 v 2 l -10,21"
           id="polyline12924"
           inkscape:connector-curvature="0" />
        <path
           style="fill-rule:evenodd"
           d="m 48964,34070 -55,34 -53,30 -23,12 -37,14 -21,-3 -19,-21 -2,-2 -18,-30 -5,-16 14,-13 36,-26 51,-35 26,-16 124,-80 30,49 30,50 -78,53"
           id="polyline12926"
           inkscape:connector-curvature="0" />
        <path
           style="fill-rule:evenodd"
           d="m 49409,32450 -28,24 -40,27 -81,-118 -37,-54 -29,-44 -17,-26 -1,-4 11,-15 29,-21 2,-1 45,-28 82,112 38,54 27,43 14,27 v 4 l -15,20"
           id="polyline12928"
           inkscape:connector-curvature="0" />
        <path
           style="fill-rule:evenodd"
           d="m 51301,33816 -18,74 -18,56 -19,48 -24,45 -12,21 -85,127 -93,108 -112,96 -103,73 -86,53 -72,39 -69,28 -80,24 -34,9 -169,33 -158,8 -160,-16 -58,-11 -190,-56 -175,-87 -160,-115 -108,-105 -120,-155 -90,-169 -61,-181 -29,-189 2,-195 13,-98 16,-83 19,-80 19,-66 10,-27 87,-172 114,-153 135,-132 155,-109 171,-84 184,-57 192,-27 61,-2 153,11 160,33 154,52 132,65 159,113 137,137 115,158 88,174 60,188 25,139 5,54 1,50 -5,55 -10,67 -18,88 -9,45 -22,98"
           id="polyline12930"
           inkscape:connector-curvature="0" />
        <path
           style="fill-rule:evenodd"
           d="m 40774,12517 -21,20 -44,38 -37,31 -206,189 -196,217 -185,242 -171,262 -153,278 -134,290 -111,297 -18,57 -93,347 -61,349 -28,347 3,346 35,340 66,335 97,327 128,318 159,307 77,125 56,82 73,97 85,107 92,110 94,108 90,100 82,84 68,64 4,4 283,221 295,190 310,160 323,129 336,99 21,5 340,65 345,34 284,4 99,122 -1,12 11,1 2,-11 -12,-2 -99,-122 64,1 346,-24 342,-52 336,-81 324,-108 312,-135 294,-160 172,-112 98,-68 72,-50 48,-32 22,-13 -3,5 -29,25 -54,44 -81,64 -103,80 -194,149 -178,129 -166,111 -160,96 -160,86 -166,78 -177,73 -94,36 -343,111 -350,81 -354,50 -355,19 -354,-11 -350,-43 -343,-73 -263,-80 -310,-123 -298,-153 -283,-180 -266,-205 -246,-227 -222,-247 -196,-265 -17,-26 -171,-293 -140,-304 -111,-313 -81,-322 -52,-328 -22,-331 6,-334 35,-333 63,-332 91,-327 102,-276 76,94 -4,5 -12,27 -17,43 -20,53 -21,59 -20,60 -11,35 -68,257 -53,277 -20,146 -26,339 7,339 38,336 69,331 99,323 128,312 157,297 80,129 62,89 81,103 92,111 97,111 96,104 88,89 33,31 260,215 277,187 294,159 310,132 322,102 333,73 343,44 351,12 355,-18 100,-10 79,-9 58,-8 33,-6 8,-5 -20,-1 -50,1 -64,4 -357,8 -348,-23 -340,-52 -330,-82 -317,-110 -304,-136 -289,-161 -272,-186 -254,-209 -234,-232 -213,-252 -191,-273 -166,-291 -140,-309 -113,-325 -57,-216 -57,-297 -32,-296 -6,-301 19,-308 44,-319 70,-335 39,-153 4,-20 -76,-94 17,-45 7,-15 69,85 -3,6 -2,23 1,2 9,-6 3,-6 2,-22 -1,-3 -9,6 -69,-85 17,-36 66,82 -1,11 12,2 1,-12 -12,-1 -66,-82 121,-260 138,170 -9,10 -16,35 -22,57 -26,70 -27,79 -26,81 -9,30 -85,343 -54,347 -22,349 9,346 42,343 55,263 68,230 89,240 106,238 119,227 111,183 70,97 87,112 98,118 102,115 99,105 86,84 268,224 283,195 299,165 313,137 326,106 336,77 345,45 353,14 264,-11 56,-4 24,-3 76,93 -1,12 11,1 2,-11 -12,-2 -76,-93 4,-1 v -3 l -30,-2 -61,-2 -92,-2 h -34 l -339,-22 -336,-53 -331,-85 -324,-114 -313,-143 -300,-170 -284,-197 -264,-221 -33,-31 -91,-92 -102,-111 -105,-123 -102,-126 -93,-123 -78,-111 -24,-37 -171,-304 -142,-317 -112,-328 -82,-336 -52,-342 -22,-344 9,-344 40,-341 72,-336 50,-171 17,-56 11,-41 2,-18 v 0 l -138,-170 2,-3 12,-21 130,161 -1,12 12,1 1,-11 -12,-2 -130,-161 17,-31 129,159 -2,11 12,1 1,-11 -11,-1 -129,-159 145,-252 201,-291 227,-278 134,-144 59,-57 76,-69 87,-77 94,-80 96,-80 94,-76 86,-68 75,-56 58,-41 29,-17 21,-10 2,5"
           id="polyline12932"
           inkscape:connector-curvature="0" />
        <path
           style="fill-rule:evenodd"
           d="m 42879,13350 44,58 32,47 24,44 21,47 18,47 53,194 21,194 -10,191 -40,185 -71,176 -99,164 -127,149 -96,86 -164,113 -174,82 -182,49 -192,17 -144,-7 -193,-33 -172,-57 -155,-82 -142,-111 -115,-118 -84,-104 -61,-90 -21,-39 -73,-184 -42,-191 -11,-193 19,-191 51,-185 80,-176 42,-70 119,-152 139,-128 155,-103 168,-76 178,-50 183,-22 186,6 185,36 180,65 136,73 50,32 40,30 38,33 41,43 50,59 53,65 62,77"
           id="polyline12934"
           inkscape:connector-curvature="0" />
        <path
           style="fill-rule:evenodd"
           d="m 45207,16224 43,58 32,46 24,43 20,47 21,58 1,4 51,191 18,192 -12,190 -42,184 -70,175 -98,162 -124,146 -148,125 -170,104 -178,71 -186,39 -196,8 -72,-5 -197,-35 -181,-64 -166,-93 -151,-123 -82,-86 -80,-99 -60,-88 -25,-44 -73,-187 -43,-192 -12,-193 19,-190 50,-185 79,-176 85,-131 121,-137 143,-117 159,-96 170,-70 176,-43 177,-13 h 7 l 195,17 179,44 170,72 93,53 50,32 40,30 38,33 41,44 50,58 53,65 61,76"
           id="polyline12936"
           inkscape:connector-curvature="0" />
        <path
           style="fill-rule:evenodd"
           d="m 42749,15564 33,49 8,12 34,56 19,36 4,24 -8,20 -7,10 -21,24 -19,-3 -24,-21 -30,-33 -40,-49 -30,-40 -62,-85 48,-24 36,-17 21,-7 v 0 l 13,13 25,35"
           id="polyline12938"
           inkscape:connector-curvature="0" />
        <path
           style="fill-rule:evenodd"
           d="m 43205,16070 -8,23 -28,21 -1,1 -27,3 -42,-20 -57,-42 -76,-67 -11,-11 -31,-31 -8,-22 12,-22 10,-13 24,-27 14,-11 v 0 l 14,11 33,27 47,39 26,22 61,53 35,38 13,28"
           id="polyline12940"
           inkscape:connector-curvature="0" />
        <path
           style="fill-rule:evenodd"
           d="m 42523,15165 13,24 22,45 26,56 1,1 24,57 11,34 -3,19 -15,11 -1,1 -35,18 -15,9 -9,7 -9,-2 -11,-15 -17,-33 -26,-57 -11,-24 -25,-57 -18,-44 -8,-24 v -2 l 15,-15 34,-12 35,-4 22,6 v 1"
           id="polyline12942"
           inkscape:connector-curvature="0" />
        <path
           style="fill-rule:evenodd"
           d="m 43523,15602 35,72 2,4 26,56 11,35 -2,19 -14,11 -2,1 -35,18 -14,9 -14,6 -13,-10 -18,-31 -26,-56 -4,-9 -24,-52 -24,-42 -9,-14 -17,-35 15,-28 31,-19 25,-8 22,5 22,23 27,45"
           id="polyline12944"
           inkscape:connector-curvature="0" />
        <path
           style="fill-rule:evenodd"
           d="m 43072,15028 2,19 -11,19 -9,11 -34,41 -101,-81 -49,-40 -38,-32 -20,-18 -2,-1 7,-16 25,-26 5,-4 27,-19 22,-4 27,15 37,29 58,50 37,34 17,23"
           id="polyline12946"
           inkscape:connector-curvature="0" />
        <path
           style="fill-rule:evenodd"
           d="m 43359,15340 12,33 -7,26 -20,21 -39,31 -200,-248 45,-30 46,-30 77,88 54,63 32,46"
           id="polyline12948"
           inkscape:connector-curvature="0" />
        <path
           style="fill-rule:evenodd"
           d="m 44459,15378 -3,45 -6,53 -9,65 -8,40 -10,19 -17,8 -20,2 h -37 l -17,-4 -1,-19 2,-43 6,-60 2,-19 8,-64 8,-49 6,-27 2,-2 20,-1 35,8 22,9 13,13 4,26"
           id="polyline12950"
           inkscape:connector-curvature="0" />
        <path
           style="fill-rule:evenodd"
           d="m 43451,14056 5,52 -87,-1 -65,-3 -63,-8 -22,-4 -61,-15 7,-52 7,-52 137,15 136,15 6,53"
           id="polyline12952"
           inkscape:connector-curvature="0" />
        <path
           style="fill-rule:evenodd"
           d="m 44980,15596 -31,55 -33,52 -9,13 -26,31 -21,8 -28,-10 -32,-18 -15,-11 5,-18 19,-38 30,-51 9,-15 71,-113 49,21 49,22 -37,72"
           id="polyline12954"
           inkscape:connector-curvature="0" />
        <path
           style="fill-rule:evenodd"
           d="m 44572,14973 -6,34 -17,54 -5,14 -20,57 -18,43 -11,21 h -1 l -22,2 -35,-8 -27,-10 -11,-15 4,-29 12,-43 22,-68 23,-60 21,-44 15,-23 3,-1 18,11 29,23 19,19 7,23"
           id="polyline12956"
           inkscape:connector-curvature="0" />
        <path
           style="fill-rule:evenodd"
           d="m 43391,13449 8,35 4,32 -2,12 -25,12 -45,17 -54,19 -53,17 -45,12 -25,5 h -3 l -12,-21 -9,-29 v -36 l 25,-22 5,-3 35,-15 49,-17 53,-18 47,-14 31,-7 h 8 l 8,21"
           id="polyline12958"
           inkscape:connector-curvature="0" />
        <path
           style="fill-rule:evenodd"
           d="m 43875,14020 19,53 -127,18 -80,10 -54,3 -30,-5 -14,-16 -1,-27 1,-9 7,-51 130,-15 129,-15 20,54"
           id="polyline12960"
           inkscape:connector-curvature="0" />
        <path
           style="fill-rule:evenodd"
           d="m 45175,15138 -16,48 -1,4 -31,88 -22,61 -15,38 -12,20 -11,7 -13,-2 -11,-5 -32,-17 -16,-24 v -37 l 15,-56 16,-44 23,-59 19,-47 13,-26 2,-2 22,-2 36,7 26,8 11,13 -3,27"
           id="polyline12962"
           inkscape:connector-curvature="0" />
        <path
           style="fill-rule:evenodd"
           d="m 43832,13401 1,55 -144,20 -66,7 -54,2 -32,-3 -5,-2 -11,-29 -4,-26 1,-22 11,-13 28,-9 51,-9 66,-9 65,-8 27,-3 66,-6 v 55"
           id="polyline12964"
           inkscape:connector-curvature="0" />
        <path
           style="fill-rule:evenodd"
           d="m 44795,14533 -18,43 -31,59 -40,70 -43,68 -25,11 -32,-10 -34,-18 -12,-16 8,-25 17,-32 28,-50 35,-59 14,-23 27,-43 19,-21 18,-4 20,4 35,14 16,12 -2,20"
           id="polyline12966"
           inkscape:connector-curvature="0" />
        <path
           style="fill-rule:evenodd"
           d="m 44328,13863 11,30 7,28 -10,18 -33,18 -9,4 -55,21 -60,19 -59,16 -48,10 -28,1 -4,-2 -9,-23 -8,-29 1,-36 17,-13 29,-9 50,-17 61,-21 9,-3 58,-19 45,-12 24,-3 1,1 10,21"
           id="polyline12968"
           inkscape:connector-curvature="0" />
        <path
           style="fill-rule:evenodd"
           d="m 45258,14752 -8,64 -10,60 -6,25 -12,38 -15,14 -29,2 h -3 l -35,-5 -15,-6 -1,-19 2,-44 6,-62 3,-30 16,-147 57,8 58,8 -8,94"
           id="polyline12970"
           inkscape:connector-curvature="0" />
        <path
           style="fill-rule:evenodd"
           d="m 44279,13386 1,37 -4,48 -143,-11 -66,-5 -52,-5 -30,-4 -4,-1 -5,-18 2,-36 v -2 l 7,-52 139,6 65,4 51,7 30,6 3,2 6,24"
           id="polyline12972"
           inkscape:connector-curvature="0" />
        <path
           style="fill-rule:evenodd"
           d="m 46532,12776 45,60 33,49 24,45 21,48 8,22 46,146 25,140 5,147 -9,127 -13,100 -15,80 -21,72 -32,77 -14,32 -81,152 -93,128 -113,114 -46,39 -163,111 -177,82 -191,52 -150,18 -195,-5 -188,-36 -179,-67 -165,-96 -150,-124 -69,-72 -54,-65 -50,-65 -39,-56 -15,-25 -79,-176 -47,-184 -18,-189 13,-189 42,-185 72,-179 100,-166 37,-49 105,-112 126,-104 137,-87 133,-61 188,-52 194,-21 194,11 191,40 184,71 123,69 46,30 39,31 40,38 45,50 57,69 30,36 63,79"
           id="polyline12974"
           inkscape:connector-curvature="0" />
        <path
           style="fill-rule:evenodd"
           d="m 26977,3209 75,3 59,5 51,9 49,14 23,8 142,56 125,69 117,89 93,87 70,72 52,62 43,62 40,73 16,32 67,158 41,153 17,160 2,59 -16,197 -48,190 -80,180 -80,128 -127,149 -146,123 -164,97 -179,69 -191,38 -99,8 -85,1 -82,-2 -68,-5 -29,-3 -186,-50 -173,-79 -158,-106 -139,-129 -117,-149 -94,-168 -66,-183 -15,-59 -21,-152 -1,-163 18,-162 36,-142 78,-179 106,-163 130,-145 153,-122 170,-98 131,-53 52,-16 49,-11 54,-7 68,-4 90,-2 h 46 l 101,1"
           id="polyline12976"
           inkscape:connector-curvature="0" />
        <path
           style="fill-rule:evenodd"
           d="m 26034,5344 28,22 36,33 -99,105 -45,48 -37,37 -22,21 -4,3 -16,-8 -27,-24 -2,-2 -36,-38 93,-104 44,-48 37,-36 23,-18 4,-2 23,11"
           id="polyline12978"
           inkscape:connector-curvature="0" />
        <path
           style="fill-rule:evenodd"
           d="m 27711,5443 45,46 40,46 16,20 22,33 1,21 -17,23 -2,2 -25,25 -14,8 -16,-11 -33,-30 -44,-43 -22,-21 -104,-105 42,-40 43,-40 68,66"
           id="polyline12980"
           inkscape:connector-curvature="0" />
        <path
           style="fill-rule:evenodd"
           d="m 26435,5605 30,11 26,13 8,19 -7,36 -3,10 -17,56 -24,59 -24,56 -23,43 -17,23 -3,1 -24,-7 -28,-12 -27,-23 1,-22 11,-28 18,-49 22,-61 3,-9 22,-57 19,-43 13,-20 1,-1 23,5"
           id="polyline12982"
           inkscape:connector-curvature="0" />
        <path
           style="fill-rule:evenodd"
           d="m 27249,5665 22,41 27,61 29,75 26,76 -7,27 -28,19 -36,15 -19,-1 -15,-22 -14,-34 -21,-53 -25,-65 -8,-25 -17,-48 -4,-27 8,-17 16,-13 33,-19 19,-5 14,15"
           id="polyline12984"
           inkscape:connector-curvature="0" />
        <path
           style="fill-rule:evenodd"
           d="m 25764,5700 43,35 -75,124 -36,56 -32,43 -23,23 -5,2 -29,-9 -23,-13 -16,-15 -4,-17 11,-27 25,-46 35,-57 34,-55 15,-23 37,-55 43,34"
           id="polyline12986"
           inkscape:connector-curvature="0" />
        <path
           style="fill-rule:evenodd"
           d="m 27958,5750 28,43 2,3 49,79 34,55 20,37 8,22 -2,13 -9,8 -11,6 -34,14 -28,-3 -29,-23 -34,-47 -24,-40 -32,-55 -24,-45 -12,-26 -1,-3 13,-18 28,-24 23,-15 h 17 l 18,19"
           id="polyline12988"
           inkscape:connector-curvature="0" />
        <path
           style="fill-rule:evenodd"
           d="m 26271,6057 54,18 -66,110 -43,69 -31,44 -24,20 h -20 l -22,-16 -6,-6 -35,-38 69,-110 70,-110 54,19"
           id="polyline12990"
           inkscape:connector-curvature="0" />
        <path
           style="fill-rule:evenodd"
           d="m 25524,6074 32,15 27,17 9,9 -7,28 -15,45 -19,54 -21,52 -18,43 -13,22 -2,2 -23,-4 -29,-11 -27,-22 -2,-34 1,-5 11,-37 17,-49 19,-52 19,-45 14,-29 5,-6 22,7"
           id="polyline12992"
           inkscape:connector-curvature="0" />
        <path
           style="fill-rule:evenodd"
           d="m 27451,6115 23,25 31,48 8,13 31,51 22,41 10,22 v 1 l -13,18 -28,22 -25,15 -19,-1 -20,-21 -26,-37 -38,-60 -32,-55 -22,-44 -8,-26 1,-3 20,-8 36,-8 27,-2 22,9"
           id="polyline12994"
           inkscape:connector-curvature="0" />
        <path
           style="fill-rule:evenodd"
           d="m 28191,6190 24,59 20,57 4,16 9,40 -8,21 -25,15 -35,14 -18,5 -10,-15 -18,-39 -21,-55 -6,-17 -43,-126 48,-25 48,-25 31,75"
           id="polyline12996"
           inkscape:connector-curvature="0" />
        <path
           style="fill-rule:evenodd"
           d="m 26032,6409 44,29 -55,67 -44,48 -45,44 -17,14 -50,39 -36,-38 -36,-39 98,-96 97,-97 44,29"
           id="polyline12998"
           inkscape:connector-curvature="0" />
        <path
           style="fill-rule:evenodd"
           d="m 27695,6458 33,31 37,37 45,48 26,31 9,21 -5,18 -11,16 -23,28 -14,12 -15,-11 -32,-29 -43,-42 -14,-14 -45,-46 -33,-38 -17,-22 -1,-2 13,-17 28,-21 21,-12 18,-2 23,14"
           id="polyline13000"
           inkscape:connector-curvature="0" />
        <path
           style="fill-rule:evenodd"
           d="m 26973,7289 33,11 16,21 4,29 v 50 h -319 l 5,-54 5,-54 117,-5 83,-2 56,4"
           id="polyline13002"
           inkscape:connector-curvature="0" />
        <path
           style="fill-rule:evenodd"
           d="m 26550,7315 15,11 8,20 3,14 11,52 -127,27 -62,13 -48,10 -27,5 h -2 l -8,-15 -4,-36 v -6 l 2,-34 11,-19 28,-12 46,-10 76,-14 49,-7 29,1"
           id="polyline13004"
           inkscape:connector-curvature="0" />
        <path
           style="fill-rule:evenodd"
           d="m 27280,7326 78,18 4,1 60,15 34,13 14,14 -1,18 v 2 l -8,38 -2,18 -4,13 -17,5 -35,-6 -60,-15 -9,-3 -56,-13 -47,-9 -17,-1 -37,-9 -13,-29 5,-37 9,-24 18,-14 32,-2 52,7"
           id="polyline13006"
           inkscape:connector-curvature="0" />
        <path
           style="fill-rule:evenodd"
           d="m 26311,7828 27,5 49,11 60,15 1,1 59,16 33,13 13,14 -1,19 v 2 l -8,38 -1,17 -1,12 -7,6 -19,-1 -36,-8 -61,-16 -25,-6 -60,-16 -46,-14 -24,-9 -1,-1 -2,-22 11,-33 19,-31 19,-12 h 1"
           id="polyline13008"
           inkscape:connector-curvature="0" />
        <path
           style="fill-rule:evenodd"
           d="m 27444,7868 12,20 -1,35 v 2 l -15,23 -41,19 -69,18 -100,17 -15,2 -44,4 -22,-7 -10,-23 -3,-16 -6,-36 v -17 -1 l 17,-4 42,-9 60,-12 33,-6 80,-14 52,-3 30,8"
           id="polyline13010"
           inkscape:connector-curvature="0" />
        <path
           style="fill-rule:evenodd"
           d="m 26763,7903 59,6 14,1 66,9 39,8 21,12 11,18 4,12 4,31 -14,14 -31,5 -45,3 h -63 l -49,-2 -106,-5 12,-53 9,-39 8,-20 v -1 l 18,-1 43,2"
           id="polyline13012"
           inkscape:connector-curvature="0" />
        <path
           style="fill-rule:evenodd"
           d="m 28823,6409 72,2 56,5 48,9 49,13 58,20 5,2 180,81 161,106 139,129 117,149 92,164 64,178 36,189 4,193 -26,198 -57,183 -87,170 -118,157 -49,52 -150,132 -164,100 -177,70 -190,40 -119,9 h -127 l -106,-8 -50,-9 -192,-60 -176,-88 -157,-112 -136,-135 -113,-154 -86,-172 -49,-149 -30,-180 -1,-185 26,-184 52,-177 78,-164 100,-145 5,-6 136,-140 147,-112 163,-87 100,-39 56,-18 49,-13 49,-8 60,-4 77,-2 h 84 97"
           id="polyline13014"
           inkscape:connector-curvature="0" />
        <path
           style="fill-rule:evenodd"
           d="m 25124,6409 73,2 57,5 49,9 49,13 49,16 184,81 164,105 142,128 118,148 93,166 65,180 35,192 7,129 -15,200 -46,185 -77,173 -107,160 -96,107 -147,130 -152,97 -162,69 -175,41 -165,15 h -133 l -109,-9 -43,-8 -190,-60 -174,-87 -157,-113 -136,-135 -113,-156 -86,-173 -27,-77 -44,-189 -12,-188 18,-185 46,-179 73,-169 99,-156 121,-140 144,-122 165,-98 142,-60 56,-19 49,-13 49,-8 60,-5 77,-2 h 84 98"
           id="polyline13016"
           inkscape:connector-curvature="0" />
        <path
           style="fill-rule:evenodd"
           d="m 23152,7521 3,28 1,59 1,48 17,279 46,289 71,296 96,297 120,294 141,287 161,274 33,49 212,291 232,267 252,241 271,214 286,188 302,159 316,130 327,101 339,69 145,20 99,8 121,4 137,1 144,-2 143,-5 134,-7 117,-11 92,-12 6,-1 349,-81 334,-110 319,-140 304,-170 289,-199 16,-13 265,-223 244,-247 182,-218 h 157 l 8,8 8,-8 -8,-8 -8,8 h -157 l 40,-49 200,-284 174,-299 149,-311 120,-321 91,-327 61,-330 21,-204 9,-118 7,-88 5,-57 4,-26 2,6 1,38 -1,70 -1,103 -2,130 -6,246 -12,218 -18,199 -26,185 -35,179 -43,177 -55,184 -31,96 -129,336 -157,323 -184,307 -209,288 -232,268 -253,245 -273,220 -227,155 -291,163 -307,135 -318,107 -326,78 -331,48 -332,17 -330,-15 -31,-3 -334,-51 -325,-82 -314,-112 -301,-139 -287,-166 -272,-191 -255,-215 -237,-237 -218,-257 -197,-277 -150,-254 h 121 l 1,8 13,25 23,40 29,49 33,54 34,53 20,31 157,215 181,215 102,108 247,233 267,208 286,182 301,155 313,126 322,97 330,65 151,19 108,7 131,3 144,-2 147,-5 142,-10 124,-12 45,-6 330,-67 320,-98 309,-128 297,-158 283,-186 266,-213 250,-239 230,-265 210,-287 55,-84 42,-67 30,-50 17,-30 1,-9 -14,15 -30,39 -37,53 -218,282 -238,257 -255,230 -270,205 -285,178 -297,150 -308,123 -315,95 -323,65 -327,37 -330,7 -332,-24 -331,-54 -328,-86 -324,-117 -203,-91 -267,-143 -250,-162 -238,-184 -228,-208 -220,-236 -216,-265 -94,-126 -13,-17 h -121 l -25,-41 -7,-15 h 110 l 3,6 16,16 3,1 1,-11 -3,-6 -16,-16 h -3 l -1,10 h -110 l -17,-35 h 105 l 8,8 9,-8 -9,-9 -8,9 h -105 l -126,-259 h 219 l 2,13 18,36 29,52 39,64 44,71 47,72 18,26 212,282 236,260 257,236 275,211 293,183 239,123 221,92 243,82 252,67 251,51 212,28 120,7 142,3 153,-2 153,-7 144,-10 120,-15 342,-67 330,-98 317,-128 303,-157 287,-186 271,-213 253,-240 233,-266 158,-211 31,-46 13,-21 h 121 l 8,8 8,-8 -8,-8 -8,8 h -121 l 2,-3 -2,-2 -21,22 -39,45 -60,71 -22,26 -230,250 -253,228 -274,204 -292,180 -309,153 -321,126 -331,97 -339,66 -44,6 -129,13 -150,9 -162,4 h -162 l -154,-4 -135,-10 -44,-5 -344,-58 -336,-90 -326,-119 -313,-147 -298,-175 -281,-199 -261,-224 -240,-246 -216,-268 -102,-146 -32,-48 -25,-34 -13,-14 v 0 h -219 l -1,-2 -9,-23 h 208 l 8,9 8,-9 -8,-8 -8,8 h -208 l -13,-33 h 204 l 8,8 9,-8 -9,-8 -8,8 h -204 l -105,-270 -100,-340 -73,-352 -27,-194 -7,-82 -6,-102 -5,-116 -3,-124 -2,-125 v -121 l 1,-110 4,-93 5,-71 4,-33 6,-23 5,2"
           id="polyline13018"
           inkscape:connector-curvature="0" />
        <path
           style="fill-rule:evenodd"
           d="m 6978,12671 49,-58 42,-42 39,-33 42,-30 20,-13 133,-75 132,-53 143,-36 126,-17 100,-9 81,-2 75,6 82,15 35,7 165,48 145,64 135,87 47,37 143,136 117,157 90,175 49,143 36,192 4,191 -28,189 -60,182 -90,173 -56,82 -53,66 -53,63 -46,50 -21,20 -156,113 -171,85 -181,56 -187,27 -191,-3 -189,-33 -184,-64 -55,-25 -131,-79 -128,-103 -114,-116 -87,-117 -91,-173 -60,-185 -30,-192 v -196 l 31,-194 42,-135 20,-51 22,-45 29,-46 40,-55 55,-71 29,-35 64,-78"
           id="polyline13020"
           inkscape:connector-curvature="0" />
        <path
           style="fill-rule:evenodd"
           d="m 8043,14747 36,-8 48,-7 19,142 9,66 5,52 3,30 v 5 l -16,8 -37,5 -2,1 -52,3 -23,-137 -9,-64 -5,-52 1,-29 1,-4 22,-11"
           id="polyline13022"
           inkscape:connector-curvature="0" />
        <path
           style="fill-rule:evenodd"
           d="m 9176,13506 64,-6 61,-3 26,1 39,4 17,11 8,28 v 3 l 3,35 -3,16 -18,5 -44,7 -61,8 -30,3 -148,15 -4,-58 -4,-58 94,-11"
           id="polyline13024"
           inkscape:connector-curvature="0" />
        <path
           style="fill-rule:evenodd"
           d="m 8499,14600 27,-17 27,-13 20,6 24,29 6,8 31,49 32,55 28,54 19,45 7,27 -1,4 -21,14 -27,14 -35,7 -16,-14 -15,-26 -26,-46 -34,-55 -5,-9 -31,-53 -21,-41 -8,-22 1,-2 18,-14"
           id="polyline13026"
           inkscape:connector-curvature="0" />
        <path
           style="fill-rule:evenodd"
           d="m 9058,14004 45,9 65,18 76,25 75,27 17,22 -3,34 -10,37 -13,14 -27,-2 -35,-10 -55,-17 -65,-22 -25,-9 -48,-17 -24,-14 -8,-17 v -21 l 6,-37 8,-18 21,-2"
           id="polyline13028"
           inkscape:connector-curvature="0" />
        <path
           style="fill-rule:evenodd"
           d="m 8151,15181 54,-13 49,137 21,64 13,52 4,32 -2,5 -25,17 -25,9 -22,4 -15,-8 -15,-26 -19,-48 -23,-63 -21,-62 -9,-25 -19,-63 54,-12"
           id="polyline13030"
           inkscape:connector-curvature="0" />
        <path
           style="fill-rule:evenodd"
           d="m 9570,13506 51,6 h 4 l 92,12 64,9 41,7 22,8 9,9 1,12 -2,12 -11,36 -20,20 -36,8 -58,-4 -46,-6 -63,-10 -50,-9 -28,-7 -2,-2 -7,-21 -1,-36 3,-28 11,-13 26,-3"
           id="polyline13032"
           inkscape:connector-curvature="0" />
        <path
           style="fill-rule:evenodd"
           d="m 8747,15011 48,-31 44,121 27,77 14,51 1,31 -13,17 -26,7 h -9 l -51,4 -42,-123 -41,-124 48,-30"
           id="polyline13034"
           inkscape:connector-curvature="0" />
        <path
           style="fill-rule:evenodd"
           d="m 8290,15602 32,-15 30,-10 13,-1 17,22 26,40 29,49 28,49 22,41 9,24 v 3 l -18,16 -26,14 -35,8 -27,-19 -4,-5 -21,-31 -28,-44 -28,-48 -23,-43 -14,-30 -2,-7 20,-13"
           id="polyline13036"
           inkscape:connector-curvature="0" />
        <path
           style="fill-rule:evenodd"
           d="m 9534,14131 34,-2 57,5 15,2 60,9 46,8 23,7 v 0 l 6,21 v 36 l -5,29 -12,13 -29,3 -44,-3 -71,-7 -64,-10 -48,-11 -25,-11 -1,-3 6,-19 17,-33 15,-23 20,-11"
           id="polyline13038"
           inkscape:connector-curvature="0" />
        <path
           style="fill-rule:evenodd"
           d="m 10059,13602 60,19 58,21 15,6 36,19 12,19 -5,29 -11,36 -7,17 -18,-1 -41,-11 -57,-19 -17,-6 -125,-45 11,-53 11,-53 78,22"
           id="polyline13040"
           inkscape:connector-curvature="0" />
        <path
           style="fill-rule:evenodd"
           d="m 8870,15418 50,-16 18,86 10,64 5,63 1,22 -2,63 -52,4 -53,4 -13,-137 -14,-137 50,-16"
           id="polyline13042"
           inkscape:connector-curvature="0" />
        <path
           style="fill-rule:evenodd"
           d="m 9954,14157 45,-7 53,-5 66,-5 h 40 l 21,6 11,15 6,19 7,36 v 18 l -17,4 -43,7 -60,7 -20,2 -63,6 -50,2 -28,-1 -3,-1 -5,-20 1,-35 4,-24 11,-15 24,-9"
           id="polyline13044"
           inkscape:connector-curvature="0" />
        <path
           style="fill-rule:evenodd"
           d="m 10146,15241 30,-19 26,1 25,16 39,31 -201,248 -39,-39 -39,-38 70,-93 51,-66 38,-41"
           id="polyline13046"
           inkscape:connector-curvature="0" />
        <path
           style="fill-rule:evenodd"
           d="m 9900,15586 18,-5 21,7 13,6 47,24 -59,116 -28,56 -24,44 -13,24 -1,1 -16,-3 -31,-19 -5,-4 -25,-23 -8,-20 9,-29 21,-43 37,-68 25,-42 19,-22"
           id="polyline13048"
           inkscape:connector-curvature="0" />
        <path
           style="fill-rule:evenodd"
           d="m 10368,15026 63,-50 3,-2 50,-37 32,-19 19,-2 14,12 1,2 25,30 12,12 8,12 -7,16 -26,24 -50,37 -8,5 -46,35 -36,32 -12,12 -30,23 -31,-8 -25,-27 -13,-23 1,-22 18,-27 38,-35"
           id="polyline13050"
           inkscape:connector-curvature="0" />
        <path
           style="fill-rule:evenodd"
           d="m 10148,16095 21,-18 40,-31 49,-37 1,-1 50,-36 31,-17 19,-1 15,12 v 1 l 25,30 13,13 8,8 v 9 l -12,14 -29,23 -51,38 -20,15 -51,36 -39,27 -22,13 -2,1 -18,-12 -19,-31 -11,-33 2,-23 v 0"
           id="polyline13052"
           inkscape:connector-curvature="0" />
        <path
           style="fill-rule:evenodd"
           d="m 10892,15239 24,4 26,22 1,1 9,27 -11,44 -29,65 -50,88 -8,13 -25,37 -19,12 -24,-7 -14,-7 -32,-18 -14,-11 v 0 l 8,-16 19,-38 29,-55 16,-30 39,-70 30,-42 25,-19"
           id="polyline13054"
           inkscape:connector-curvature="0" />
        <path
           style="fill-rule:evenodd"
           d="m 10491,15791 42,-42 10,-11 48,-45 31,-26 23,-9 21,3 11,5 27,16 2,20 -15,27 -27,37 -40,48 -32,38 -70,79 -34,-43 -24,-31 -12,-19 v -1 l 10,-14 29,-32"
           id="polyline13056"
           inkscape:connector-curvature="0" />
        <path
           style="fill-rule:evenodd"
           d="m 10626,13250 48,-55 39,-41 37,-32 41,-29 52,-33 4,-2 177,-89 184,-58 188,-28 188,3 186,32 179,62 169,91 153,119 137,145 107,159 77,174 47,190 10,72 8,200 -25,190 -57,182 -89,173 -67,97 -80,99 -73,77 -39,34 -167,111 -179,81 -186,52 -191,21 -191,-10 -188,-41 -146,-56 -159,-89 -144,-116 -127,-136 -104,-152 -79,-163 -50,-170 -1,-7 -24,-195 6,-184 35,-181 33,-102 21,-55 20,-46 25,-44 34,-49 47,-61 53,-65 61,-75"
           id="polyline13058"
           inkscape:connector-curvature="0" />
        <path
           style="fill-rule:evenodd"
           d="m 8299,16124 48,-56 39,-41 38,-32 41,-30 43,-27 179,-93 185,-61 189,-30 189,1 187,33 181,62 172,94 104,76 145,137 116,153 86,168 57,184 23,142 7,196 -19,180 -49,168 -78,162 -92,138 -84,103 -76,79 -33,29 -166,110 -177,80 -186,51 -191,21 -192,-11 -189,-42 -77,-27 -174,-85 -154,-109 -133,-130 -109,-149 -86,-163 -59,-175 -33,-183 -3,-188 26,-190 43,-148 21,-55 21,-46 24,-44 34,-49 47,-61 53,-66 62,-76"
           id="polyline13060"
           inkscape:connector-curvature="0" />
        <path
           style="fill-rule:evenodd"
           d="m 7921,18356 25,16 46,35 38,31 227,161 254,147 275,131 291,112 304,92 312,71 314,47 59,6 359,18 354,-13 346,-44 337,-75 326,-105 314,-134 299,-163 284,-192 267,-219 107,-101 68,-71 80,-92 87,-106 89,-112 86,-115 78,-109 66,-97 49,-80 3,-5 157,-322 124,-329 92,-336 60,-343 26,-350 1,-20 -8,-347 -37,-345 -56,-278 99,-122 12,-1 -1,-12 -12,1 1,12 -99,122 -12,-63 -95,-333 -123,-324 -148,-312 -174,-295 -196,-276 -219,-255 -145,-145 -86,-81 -64,-61 -41,-40 -18,-19 6,2 30,23 54,45 79,65 101,84 186,159 163,147 143,139 127,137 117,139 111,146 109,158 54,84 180,312 152,326 123,336 92,343 63,349 31,351 -1,350 -23,274 -56,329 -88,324 -117,314 -145,303 -171,288 -195,268 -219,247 -22,22 -251,228 -268,200 -284,174 -297,146 -310,119 -320,91 -327,63 -334,36 -337,7 -339,-21 -292,-43 77,-94 6,3 28,6 46,8 56,8 62,8 63,7 36,4 266,13 282,-5 148,-11 336,-46 330,-77 321,-107 310,-136 295,-164 278,-190 258,-215 110,-106 73,-79 85,-100 89,-113 89,-118 82,-116 68,-105 24,-38 156,-298 125,-311 95,-321 64,-330 33,-336 3,-342 -29,-344 -61,-346 -91,-343 -31,-96 -26,-75 -19,-55 -14,-32 -5,-6 2,20 12,48 17,62 82,347 50,346 19,344 -11,339 -41,333 -70,326 -98,316 -125,305 -152,292 -178,277 -202,261 -227,243 -251,223 -273,201 -295,178 -198,100 -279,118 -284,93 -292,69 -305,45 -322,23 -342,1 -157,-6 h -21 l -77,94 -47,-7 -16,-4 69,-85 7,1 22,-2 2,-2 -7,-7 -7,-2 -22,2 -3,2 8,8 -69,85 -39,-9 66,-82 12,-1 -1,-12 -12,2 1,11 -66,82 -280,-65 138,-170 12,7 38,8 60,10 74,11 82,10 86,8 31,3 353,12 351,-19 345,-51 337,-81 326,-113 246,-108 211,-114 216,-137 212,-154 197,-163 155,-147 81,-88 91,-109 95,-120 92,-124 82,-118 65,-103 162,-307 132,-318 100,-327 68,-335 37,-340 5,-345 -28,-347 -60,-348 -65,-256 -16,-54 -8,-23 76,-93 12,-2 -1,-11 -12,1 1,12 -76,93 -1,-4 -3,1 4,30 10,59 18,91 7,34 49,335 18,340 -14,342 -44,341 -75,336 -104,328 -134,319 -162,304 -23,39 -70,108 -88,122 -98,129 -103,126 -101,117 -92,99 -31,31 -262,230 -281,205 -298,178 -311,151 -323,122 -332,92 -338,63 -343,31 h -344 l -177,-13 -58,-5 -42,-2 -19,1 v 0 l -138,170 h -2 l -23,-8 130,-161 12,-1 -1,-12 -12,1 1,12 -130,161 -34,-11 128,-158 12,-1 -2,-12 -11,1 1,12 -128,158 -277,-88 -327,-136 -319,-165 -168,-101 -68,-46 -83,-60 -93,-69 -99,-75 -98,-78 -94,-75 -85,-71 -70,-61 -52,-49 -23,-24 -14,-19 4,-3"
           id="polyline13062"
           inkscape:connector-curvature="0" />
        <path
           style="fill-rule:evenodd"
           d="m 37198,26593 -15,39 -25,58 -32,72 -9,19 -68,160 -63,167 -55,166 -45,155 -32,137 -3,19 -10,57 -7,48 -3,48 -1,52 2,62 6,81 8,103 6,66 10,127 10,138 8,137 7,125 4,91 2,134 -3,108 -11,91 -19,83 -31,80 -43,88 -34,61 -50,93 -47,101 -42,101 -34,94 -23,81 -11,61 v 7 l 12,76 32,93 50,102 56,93 34,48 38,51 44,58 55,66 66,79 81,94 97,112 117,133 27,30 151,175 128,157 107,140 87,129 69,119 52,114 38,111 25,112 13,117 4,124 v 1 l -14,182 -42,166 -68,149 -92,130 -115,108 -137,85 -157,59 -15,4 -88,15 -107,8 -116,1 -113,-7 -98,-13 -46,-10 -123,-43 -104,-54 -96,-73 -61,-57 -100,-113 -81,-123 -66,-141 -53,-163 -27,-107 -18,-96 -10,-90 v -89 l 10,-91 21,-99 33,-111 46,-127 60,-148 75,-172 4,-9 46,-104 35,-82 25,-69 15,-61 5,-60 -3,-65 -12,-77 -20,-95 -28,-120 -7,-30 -28,-129 -20,-111 -12,-105 -8,-112 -1,-26 -3,-106 3,-92 9,-86 17,-84 27,-89 39,-101 51,-116 66,-140 10,-20 58,-120 47,-97 36,-81 28,-70 20,-65 14,-66 9,-72 6,-85 4,-103 3,-127 2,-89 3,-140 3,-112 3,-88 4,-69 5,-54 7,-44 8,-39 11,-39 12,-40 43,-115 57,-135 69,-148 78,-151 82,-149 30,-52 43,-72 37,-61 28,-43 15,-22 1,-2 -4,15"
           id="polyline13064"
           inkscape:connector-curvature="0" />
        <path
           style="fill-rule:evenodd"
           d="m 37401,30632 51,6 73,11 91,14 102,18 110,19 111,20 108,21 100,20 86,18 67,15 1,1 77,20 67,21 63,25 65,31 72,41 85,54 104,69 61,41 86,61 71,59 63,62 59,73 63,90 66,103 106,177 87,159 69,148 55,142 40,142 29,150 18,164 9,183 3,209 v 26 129 l -2,100 -2,79 -4,62 -6,50 -9,46 -11,45 -3,14 -71,198 -100,194 -100,150 -62,76 -80,90 -92,99 -98,100 -98,95 -91,83 -78,66 -20,15 -112,75 -139,76 -156,75 -166,68 -170,60 -162,47 -95,19 -122,18 -140,16 -153,12 -158,10 -157,6 -147,3 -132,-2 -110,-7 -3,-1 -133,-18 -144,-28 -144,-36 -131,-40 -97,-37 -114,-55 -130,-74 -137,-87 -137,-95 -129,-98 -113,-95 -29,-27 -78,-79 -65,-80 -58,-92 -57,-111 -32,-68 -97,-238 -83,-243 -69,-242 -53,-238 -37,-228 -19,-215 -1,-197 14,-150 51,-262 73,-239 92,-216 112,-191 131,-166 149,-141 166,-113 183,-85 195,-56 86,-15 78,-8 64,-3 44,4 19,11 v 6 l -9,22 -21,46 -29,66 -35,79 -26,58 -71,180 -64,195 -55,202 -42,201 -29,191 -13,174 -1,45 10,163 30,169 45,167 60,157 71,139 72,104 91,94 116,98 135,96 148,91 154,82 153,69 146,52 31,8 133,26 149,11 153,-4 143,-18 65,-15 187,-67 172,-96 155,-124 136,-148 115,-173 89,-184 52,-155 29,-153 5,-158 -17,-169 -36,-170 -46,-148 -63,-148 -82,-152 -103,-160 -127,-170 -144,-175 -79,-94 -79,-96 -78,-95 -71,-90 -64,-82 -53,-70 -40,-55 -24,-36 -6,-15 v 0 l 23,1"
           id="polyline13066"
           inkscape:connector-curvature="0" />
      </g>
      <g
         id="g13074"
         style="fill:#000000;fill-opacity:1;stroke:#000000;stroke-width:19.68499947;stroke-linecap:round;stroke-linejoin:round;stroke-opacity:1" />
      <g
         id="g13080"
         style="fill:#000000;fill-opacity:1;stroke:#000000;stroke-width:19.68499947;stroke-linecap:round;stroke-linejoin:round;stroke-opacity:1" />
      <g
         id="g13086"
         style="fill:#000000;fill-opacity:1;stroke:#000000;stroke-width:19.68499947;stroke-linecap:round;stroke-linejoin:round;stroke-opacity:1" />
      <g
         id="g13092"
         style="fill:#000000;fill-opacity:1;stroke:#000000;stroke-width:19.68499947;stroke-linecap:round;stroke-linejoin:round;stroke-opacity:1" />
      <g
         id="g13094"
         style="fill:#000000;fill-opacity:1;stroke:#000000;stroke-width:826.77197266;stroke-linecap:round;stroke-linejoin:round;stroke-opacity:1" />
      <g
         id="g13108"
         style="fill:#000000;fill-opacity:0;stroke:#000000;stroke-width:0;stroke-linecap:round;stroke-linejoin:round;stroke-opacity:1" />
      <g
         id="g13128"
         style="fill:#000000;fill-opacity:1;stroke:#000000;stroke-width:19.68499947;stroke-linecap:round;stroke-linejoin:round;stroke-opacity:1" />
      <g
         id="g13134"
         style="fill:#000000;fill-opacity:1;stroke:#000000;stroke-width:19.68499947;stroke-linecap:round;stroke-linejoin:round;stroke-opacity:1" />
      <g
         id="g13140"
         style="fill:#000000;fill-opacity:1;stroke:#000000;stroke-width:19.68499947;stroke-linecap:round;stroke-linejoin:round;stroke-opacity:1" />
      <g
         id="g13146"
         style="fill:#000000;fill-opacity:1;stroke:#000000;stroke-width:19.68499947;stroke-linecap:round;stroke-linejoin:round;stroke-opacity:1" />
      <g
         id="g13152"
         style="fill:#000000;fill-opacity:1;stroke:#000000;stroke-width:19.68499947;stroke-linecap:round;stroke-linejoin:round;stroke-opacity:1" />
      <g
         id="g13158"
         style="fill:#000000;fill-opacity:1;stroke:#000000;stroke-width:19.68499947;stroke-linecap:round;stroke-linejoin:round;stroke-opacity:1" />
      <g
         id="g13694"
         style="fill:#000000;fill-opacity:1;stroke:#000000;stroke-width:19.68499947;stroke-linecap:round;stroke-linejoin:round;stroke-opacity:1" />
      <g
         id="g13700"
         style="fill:#000000;fill-opacity:1;stroke:#000000;stroke-width:19.68499947;stroke-linecap:round;stroke-linejoin:round;stroke-opacity:1" />
    </g>
  </g>
</svg>
