<?xml version="1.0" encoding="UTF-8" standalone="no"?>
<!-- Created with Inkscape (http://www.inkscape.org/) -->

<svg
   xmlns:dc="http://purl.org/dc/elements/1.1/"
   xmlns:cc="http://creativecommons.org/ns#"
   xmlns:rdf="http://www.w3.org/1999/02/22-rdf-syntax-ns#"
   xmlns:svg="http://www.w3.org/2000/svg"
   xmlns="http://www.w3.org/2000/svg"
   xmlns:sodipodi="http://sodipodi.sourceforge.net/DTD/sodipodi-0.dtd"
   xmlns:inkscape="http://www.inkscape.org/namespaces/inkscape"
   width="1024px"
   height="768px"
   id="svg2991"
   version="1.1"
   inkscape:version="0.48.5 r10040"
   sodipodi:docname="TEH_plan.pdf">
  <defs
     id="defs2993" />
  <sodipodi:namedview
     id="base"
     pagecolor="#ffffff"
     bordercolor="#666666"
     borderopacity="1.0"
     inkscape:pageopacity="0.0"
     inkscape:pageshadow="2"
     inkscape:zoom="1"
     inkscape:cx="591.51562"
     inkscape:cy="498.52381"
     inkscape:current-layer="layer1"
     inkscape:document-units="px"
     showgrid="false"
     inkscape:window-width="1364"
     inkscape:window-height="747"
     inkscape:window-x="0"
     inkscape:window-y="19"
     inkscape:window-maximized="1" />
  <metadata
     id="metadata2996">
    <rdf:RDF>
      <cc:Work
         rdf:about="">
        <dc:format>image/svg+xml</dc:format>
        <dc:type
           rdf:resource="http://purl.org/dc/dcmitype/StillImage" />
        <dc:title></dc:title>
      </cc:Work>
    </rdf:RDF>
  </metadata>
  <g
     id="layer1"
     inkscape:label="Layer 1"
     inkscape:groupmode="layer">
    <rect
       style="fill:none;stroke:#220b0b;stroke-width:3;stroke-miterlimit:10;stroke-opacity:0.9603524;stroke-dasharray:none;stroke-dashoffset:6.3783003"
       id="rect2999"
       width="768"
       height="208"
       x="162"
       y="460" />
    <rect
       style="fill:none;stroke:#220b0b;stroke-width:2.56381345;stroke-miterlimit:10;stroke-opacity:0.9603524;stroke-dasharray:none;stroke-dashoffset:6.3783003"
       id="rect3769"
       width="506.86206"
       height="100"
       x="393.13794"
       y="358" />
    <path
       sodipodi:type="arc"
       style="fill:none;stroke:#220b0b;stroke-width:3;stroke-miterlimit:10;stroke-opacity:0.9603524;stroke-dasharray:none;stroke-dashoffset:6.3783003"
       id="path3771"
       sodipodi:cx="209"
       sodipodi:cy="359"
       sodipodi:rx="35"
       sodipodi:ry="37"
       d="m 244,359 a 35,37 0 1 1 -70,0 35,37 0 1 1 70,0 z"
       transform="translate(182,0)" />
    <path
       transform="translate(691,-3)"
       sodipodi:type="arc"
       style="fill:none;stroke:#220b0b;stroke-width:3;stroke-miterlimit:10;stroke-opacity:0.9603524;stroke-dasharray:none;stroke-dashoffset:6.3783003"
       id="path3771-3"
       sodipodi:cx="209"
       sodipodi:cy="359"
       sodipodi:rx="35"
       sodipodi:ry="37"
       d="m 244,359 a 35,37 0 1 1 -70,0 35,37 0 1 1 70,0 z" />
    <rect
       style="fill:#000000;fill-opacity:1;stroke:#ffffff;stroke-width:7.08661413;stroke-miterlimit:10;stroke-opacity:1;stroke-dasharray:3.54330707, 3.54330707;stroke-dashoffset:6.37795272"
       id="rect2994"
       width="178"
       height="160"
       x="162"
       y="256" />
    <rect
       style="fill:#000000;fill-opacity:1;stroke:#ffffff;stroke-width:7.08661413;stroke-miterlimit:10;stroke-opacity:1;stroke-dasharray:3.54330707, 3.54330707;stroke-dashoffset:6.37795272"
       id="rect2996"
       width="148"
       height="28"
       x="178"
       y="426" />
    <text
       xml:space="preserve"
       style="font-size:40px;font-style:normal;font-weight:normal;line-height:125%;letter-spacing:0px;word-spacing:0px;fill:#000000;fill-opacity:1;stroke:none;font-family:Sans"
       x="72"
       y="238"
       id="text2998"
       sodipodi:linespacing="125%"><tspan
         sodipodi:role="line"
         id="tspan3000"
         x="72"
         y="238">PC and screen</tspan></text>
    <text
       xml:space="preserve"
       style="font-size:40px;font-style:normal;font-weight:normal;line-height:125%;letter-spacing:0px;word-spacing:0px;fill:#000000;fill-opacity:1;stroke:none;font-family:Sans"
       x="190"
       y="646"
       id="text3002"
       sodipodi:linespacing="125%"><tspan
         sodipodi:role="line"
         id="tspan3004"
         x="190"
         y="646">TABLE: 300cmx80cm</tspan></text>
    <path
       style="fill:none;stroke:#000000;stroke-width:1px;stroke-linecap:butt;stroke-linejoin:miter;stroke-opacity:1"
       d="m 414,454 c 5.90741,0.46701 6.44819,-5.63212 10,-8 1.24035,-0.8269 2.94591,-0.94591 4,-2 0.4714,-0.4714 -0.29814,-1.40372 0,-2 4.57661,-9.15321 -0.82894,8.48683 4,-6 0.66667,-2.66667 1.33333,-5.33333 2,-8 0.66667,-0.66667 1.57836,-1.15673 2,-2 0.29814,-0.59628 -0.4714,-1.5286 0,-2 0.4714,-0.4714 1.5286,0.4714 2,0 0.4714,-0.4714 -0.4714,-1.5286 0,-2 0.4714,-0.4714 1.33333,0 2,0 0.66667,0 1.5286,-0.4714 2,0 0.4714,0.4714 -0.4714,1.5286 0,2 0.4714,0.4714 1.5286,-0.4714 2,0 1.05409,1.05409 1.20992,2.73588 2,4 2.54792,4.07667 5.45208,7.92333 8,12 0.79008,1.26412 1.10557,2.80743 2,4 1.13137,1.50849 2.95405,2.43107 4,4 0.3698,0.5547 0.66667,2 0,2 -0.94281,0 -1.33333,-1.33333 -2,-2 -0.66667,-0.66667 -2,-1.05719 -2,-2 0,-0.66667 1.40372,0.29814 2,0 0.84327,-0.42164 1.70186,-1.10557 2,-2 0.42164,-1.26491 0,-2.66667 0,-4 2,-2.66667 4.3462,-5.10586 6,-8 1.04595,-1.83042 1.33333,-4 2,-6 1.33333,-4 2.51953,-8.05209 4,-12 0.52342,-1.3958 0.58579,-3.5286 2,-4 2.80081,-0.9336 6.16275,4.77516 8,6 1.24035,0.8269 2.94591,0.94591 4,2 2.10819,2.10819 1.89181,5.89181 4,8 1.05409,1.05409 2.75965,1.1731 4,2 0.78446,0.52298 1.21554,1.47702 2,2 1.24035,0.8269 2.80743,1.10557 4,2 1.50849,1.13137 2.43107,2.95405 4,4 0.5547,0.3698 1.35324,-0.16169 2,0 2.04524,0.51131 4.0426,1.21704 6,2 1.38409,0.55364 2.5208,1.8151 4,2 3.96911,0.49614 8.01985,-0.39801 12,0 2.7351,0.27351 5.28866,1.54811 8,2 1.31519,0.2192 2.66667,0 4,0 2.66667,0 5.33333,0 8,0 1.33333,0 2.80743,-0.59628 4,0 0.59628,0.29814 -0.4714,1.5286 0,2 0.4714,0.4714 1.5286,0.4714 2,0 0.4714,-0.4714 -0.4714,-1.5286 0,-2 3.46358,-1.73179 3.81851,-1.38221 6,-4 14.78528,-17.74234 1.52916,-2.20878 18,-26 2.42981,-3.50973 5.37924,-6.63045 8,-10 2.04647,-2.63117 3.86605,-5.43926 6,-8 1.20714,-1.44857 3.15673,-2.31345 4,-4 0.29814,-0.59628 -2.29814,-0.59628 -2,0 0.84327,1.68655 2.66667,2.66667 4,4 3.95673,3.95673 6.36754,5.10263 8,10 0.21082,0.63246 -0.29814,1.40372 0,2 0.42164,0.84327 1.57836,1.15673 2,2 0.29814,0.59628 0,1.33333 0,2 0,1.33333 -0.32338,2.70648 0,4 0.36155,1.4462 1.5286,2.58579 2,4 0.21082,0.63246 -0.59628,1.70186 0,2 1.19257,0.59628 2.70648,0.32338 4,0 1.4462,-0.36155 2.66667,-1.33333 4,-2 2.66667,-1.33333 5.28581,-2.76628 8,-4 4.6221,-2.10095 9.28595,-4.11438 14,-6 1.9574,-0.78296 3.95476,-1.48869 6,-2 0.64676,-0.16169 1.5286,0.4714 2,0 0.4714,-0.4714 -0.66667,-2 0,-2 0.94281,0 1.15673,1.57836 2,2 1.19257,0.59628 3.05719,-0.94281 4,0 1.05409,1.05409 1.10557,2.80743 2,4 1.13137,1.50849 3.06447,2.36283 4,4 1.78119,3.11709 2.58579,6.70017 4,10 0.58722,1.37018 1.5286,2.58579 2,4 0.77963,2.33889 -2.04144,3.97928 2,6 1.78885,0.89443 4.02721,0.3288 6,0 3.70711,-0.61785 6.7357,-2.36785 10,-4 4,-2 8.09065,-3.82814 12,-6 4.20243,-2.33468 7.70013,-5.85006 12,-8 3.21109,-1.60555 6.59412,-2.86471 10,-4 0.63246,-0.21082 1.5286,-0.4714 2,0 0.4714,0.4714 -0.4714,1.5286 0,2 1.05409,1.05409 2.75965,1.1731 4,2 0.78446,0.52298 1.24575,1.43431 2,2 11.13786,8.35339 1.02386,-0.97614 12,10 0.66667,0.66667 1.33333,1.33333 2,2 0.66667,0.66667 1.57836,1.15673 2,2 0.29814,0.59628 0,1.33333 0,2 1.33333,2.66667 2.21115,5.61486 4,8 0.4,0.53333 1.33333,0 2,0 1.33333,0 2.66667,0 4,0 2,0 4,0 6,0 0.66667,0 1.5286,-0.4714 2,0 0.4714,0.4714 -0.4714,1.5286 0,2 0.4714,0.4714 1.33333,0 2,0 0.66667,0 1.35324,0.16169 2,0 2.04524,-0.51131 3.89181,-2 6,-2 4.82894,0 2.95497,2.47749 6,4 0.59628,0.29814 1.5286,-0.4714 2,0 0.4714,0.4714 -0.4714,1.5286 0,2 0.4714,0.4714 1.40372,-0.29814 2,0 0.84327,0.42164 1.10557,1.70186 2,2 0.59016,0.19672 13.99631,7.4e-4 14,0 1.46176,-0.29235 2.66667,-1.33333 4,-2 4,-2 7.88946,-4.23834 12,-6 3.73333,-1.6 0.93333,0.93333 2,2 0.4714,0.4714 1.33333,0 2,0 0.66667,0 1.40372,0.29814 2,0 0.84327,-0.42164 1.15673,-1.57836 2,-2 1.0164,-0.5082 10.34667,0.41333 12,0 9.19257,-2.29814 0.45377,-2 6,-2 0.66667,0 2,-0.66667 2,0 0,0.66667 -2.4714,-0.4714 -2,0 1.05409,1.05409 2.94591,0.94591 4,2 2.43597,2.43597 0.93684,4.46842 4,6 0.59628,0.29814 1.5286,-0.4714 2,0 0.4714,0.4714 -0.4714,1.5286 0,2 0.4714,0.4714 1.5286,-0.4714 2,0 0.4714,0.4714 -0.4714,1.5286 0,2 0.4714,0.4714 2,-0.66667 2,0 0,0.66667 -2,-0.66667 -2,0 0,4.16176 2.80474,0.80474 4,2 0.4714,0.4714 0,1.33333 0,2 0,0.66667 0,1.33333 0,2"
       id="path3006"
       inkscape:connector-curvature="0" />
    <text
       xml:space="preserve"
       style="font-size:40px;font-style:normal;font-weight:normal;line-height:125%;letter-spacing:0px;word-spacing:0px;fill:#000000;fill-opacity:1;stroke:none;font-family:Sans"
       x="387"
       y="490"
       id="text3008"
       sodipodi:linespacing="125%"><tspan
         sodipodi:role="line"
         id="tspan3010"
         x="387"
         y="490"
         style="font-size:24px">rocks (iron pyrites) and junk pc components</tspan></text>
    <path
       style="fill:none;stroke:#000000;stroke-width:1px;stroke-linecap:butt;stroke-linejoin:miter;stroke-opacity:1"
       d="m 388,322 512,-2 0,0 -2,-2"
       id="path3012"
       inkscape:connector-curvature="0" />
    <rect
       style="fill:#000000;fill-opacity:1;stroke:#ffffff;stroke-width:7.087;stroke-miterlimit:10;stroke-opacity:1;stroke-dasharray:none;stroke-dashoffset:6.37830009999999969"
       id="rect3014"
       width="114"
       height="34"
       x="554"
       y="282" />
    <text
       xml:space="preserve"
       style="font-size:40px;font-style:normal;font-weight:normal;line-height:125%;letter-spacing:0px;word-spacing:0px;fill:#000000;fill-opacity:1;stroke:none;font-family:Sans"
       x="356"
       y="130"
       id="text3784"
       sodipodi:linespacing="125%"><tspan
         sodipodi:role="line"
         id="tspan3786"
         x="356"
         y="130">TEH apparatus: 2m long</tspan></text>
    <path
       style="fill:none;stroke:#000000;stroke-width:1px;stroke-linecap:butt;stroke-linejoin:miter;stroke-opacity:1"
       d="m 442,432 c -0.66667,2.66667 -1.46093,5.30464 -2,8 -0.23022,1.15111 -0.21767,5.78233 0,6 0.4714,0.4714 1.33333,0 2,0 2.0419,0 13.02834,0.32389 14,0 0.89443,-0.29814 1.05719,-2 2,-2 0.66667,0 0.21082,1.36754 0,2 -0.4714,1.41421 -1.5286,2.58579 -2,4 -0.21082,0.63246 0.29814,1.40372 0,2 -0.42164,0.84327 -1.57836,1.15673 -2,2 -0.94281,1.88562 -0.83059,4.24588 -2,6 -0.3698,0.5547 -1.5286,-0.4714 -2,0 -1.05409,1.05409 -0.94591,2.94591 -2,4 -0.4714,0.4714 -2,0.66667 -2,0 0,-0.66667 2,0.66667 2,0 0,-0.94281 -1.47702,-1.21554 -2,-2 -0.81894,-1.22841 -2.66152,-4.01545 -2,-6 0.4714,-1.41421 1.59047,-2.56664 2,-4 0.93387,-3.26855 0.66093,-6.87551 2,-10 0.74278,-1.73316 2.66667,-2.66667 4,-4 2,-2 3.76737,-4.26351 6,-6 3.79473,-2.95146 7.82601,-5.61486 12,-8 0.57883,-0.33076 1.36754,-0.21082 2,0 1.41421,0.4714 2.66667,1.33333 4,2 1.33333,0.66667 2.75965,1.1731 4,2 0.78446,0.52298 1.15673,1.57836 2,2 0.59628,0.29814 1.5286,-0.4714 2,0 0.4714,0.4714 -0.66667,2 0,2 0.94281,0 2,-1.05719 2,-2 0,-0.66667 -2,0.66667 -2,0 0,-0.66667 1.70186,-0.59628 2,0 0.19924,0.39849 0,13.6634 0,14 0,2 0,4 0,6 0,2 -0.63246,4.10263 0,6 0.83001,2.49003 5.35892,-3.67946 6,-4 0.59628,-0.29814 1.40372,0.29814 2,0 0.84327,-0.42164 1.21554,-1.47702 2,-2 1.24035,-0.8269 2.94591,-0.94591 4,-2 0.4714,-0.4714 -0.4714,-1.5286 0,-2 0.4714,-0.4714 1.5286,-0.4714 2,0 0.4714,0.4714 -0.29814,1.40372 0,2 0.42164,0.84327 1.33333,1.33333 2,2 2.2883,2.2883 2.78918,2.36754 4,6 0.21082,0.63246 0.66667,2 0,2 -3.0272,0 0.85203,-2.46937 2,-4 2.38626,-3.18169 6.97791,-10.42268 8,-14 0.54944,-1.92305 0,-4 0,-6 0,-0.66667 -0.21082,1.36754 0,2 0.4714,1.41421 1.5286,2.58579 2,4 1.23148,3.69443 -3.05181,0.94819 2,6 0.4714,0.4714 1.38102,0.24759 2,0 2.76818,-1.10727 5.33333,-2.66667 8,-4 1.33333,-0.66667 2.80743,-1.10557 4,-2 7.44098,-5.58073 0.21134,-3.10567 10,-8 0.59628,-0.29814 1.5286,-0.4714 2,0 1.05409,1.05409 1.33333,2.66667 2,4 0.66667,1.33333 1.33333,2.66667 2,4 1.33333,2.66667 3.05719,5.17157 4,8 0.52162,1.56486 -0.83713,4 0,4 4.16176,0 0.80474,-2.80474 2,-4 0.0499,-0.0499 9.24864,0 10,0 6,0 12,0 18,0 2,0 4.03884,0.39223 6,0 1.46176,-0.29235 2.58579,-1.5286 4,-2 2.60768,-0.86923 5.54145,-0.77073 8,-2 4.29987,-2.14994 8.08806,-5.20575 12,-8 0.7672,-0.548 1.05719,-2 2,-2 0.66667,0 0.29814,1.40372 0,2 -0.42164,0.84327 -1.57836,1.15673 -2,2 -0.94281,1.88562 -1.48869,3.95476 -2,6 -0.16169,0.64676 0.29814,1.40372 0,2 -0.42164,0.84327 -1.33333,2.66667 -2,2 -0.66667,-0.66667 1.47702,-1.21554 2,-2 0.8269,-1.24035 1.63845,-2.5538 2,-4 0.32338,-1.29352 -0.32338,-2.70648 0,-4 0.36155,-1.4462 1.44636,-2.61591 2,-4 0.78296,-1.9574 0.24588,-4.83059 2,-6 1.24035,-0.8269 2.75965,1.1731 4,2 0.78446,0.52298 1.33333,1.33333 2,2 1.33333,1.33333 2.66667,2.66667 4,4 0.66667,0.66667 1.47702,1.21554 2,2 5.68655,8.52982 -2.65058,-0.65058 6,8 0.66667,0.66667 1.05719,2 2,2 1.49071,0 2.58579,-1.5286 4,-2 0.63246,-0.21082 1.40372,0.29814 2,0 0.84327,-0.42164 1.33333,-1.33333 2,-2 0.66667,-0.66667 1.33333,-1.33333 2,-2 3.73608,-3.73608 6.39577,-6.39577 10,-10 2.66667,-2.66667 5.64413,-5.05516 8,-8 0.41646,-0.52058 -0.4714,-2.4714 0,-2 5.05181,5.05181 0.76852,2.30557 2,6 0.94281,2.82843 3.2769,5.10759 4,8 0.32338,1.29352 -0.32338,2.70648 0,4 2.41447,9.65789 0.95044,-0.0991 4,6 0.29814,0.59628 -0.21082,1.36754 0,2 0.4714,1.41421 1.5286,2.58579 2,4 0.21082,0.63246 -0.4714,1.5286 0,2 0.4714,0.4714 1.33333,0 2,0 0.66667,0 1.40372,0.29814 2,0 2.14994,-1.07497 3.85006,-2.92503 6,-4 1.88562,-0.94281 4.11438,-1.05719 6,-2 2.14994,-1.07497 3.85006,-2.92503 6,-4 1.88562,-0.94281 3.95476,-1.48869 6,-2 0.92647,-0.23162 9.67318,-0.10894 10,0 12.41421,4.13807 -6.64704,-0.16176 10,4 0.82113,0.20528 3.75756,-0.24244 4,0 0.4714,0.4714 -0.29814,1.40372 0,2 0.42164,0.84327 1.10557,1.70186 2,2 1.26491,0.42164 2.66667,0 4,0 2,0 4.05971,0.48507 6,0 6.59083,-1.64771 16.20806,-7.39363 22,-10 9.25998,-4.16699 18.83203,-7.6343 28,-12 4.85273,-2.31082 9.44215,-5.15134 14,-8 0.7995,-0.49969 1.05719,-2 2,-2 0.94281,0 2.66667,1.33333 2,2 -0.66667,0.66667 -2,-2.94281 -2,-2 0,1.49071 2,2.50929 2,4 0,2.10819 -1.58655,3.93275 -2,6 -0.13058,0.65292 0.0927,12 0,12 -0.66667,0 -0.66667,-2 0,-2 0.94281,0 1.33333,1.33333 2,2"
       id="path3790"
       inkscape:connector-curvature="0" />
    <rect
       style="fill:#000000;fill-opacity:1;stroke:#ffffff;stroke-width:7.08699989;stroke-miterlimit:10;stroke-opacity:1;stroke-dasharray:none;stroke-dashoffset:6.3783001"
       id="rect3792"
       width="19"
       height="32"
       x="577"
       y="311" />
    <rect
       style="fill:#000000;fill-opacity:1;stroke:#ffffff;stroke-width:7.08699989;stroke-miterlimit:10;stroke-opacity:1;stroke-dasharray:none;stroke-dashoffset:6.3783001"
       id="rect3794"
       width="16"
       height="38"
       x="622"
       y="308" />
    <text
       xml:space="preserve"
       style="font-size:20px;font-style:normal;font-weight:normal;line-height:125%;letter-spacing:0px;word-spacing:0px;fill:#000000;fill-opacity:1;stroke:none;font-family:Sans"
       x="642"
       y="350"
       id="text3796"
       sodipodi:linespacing="125%"><tspan
         sodipodi:role="line"
         id="tspan3798"
         x="642"
         y="350">2 nozzles</tspan></text>
    <text
       xml:space="preserve"
       style="font-size:20px;font-style:normal;font-weight:normal;line-height:125%;letter-spacing:0px;word-spacing:0px;fill:#000000;fill-opacity:1;stroke:none;font-family:Sans"
       x="633"
       y="255"
       id="text3800"
       sodipodi:linespacing="125%"><tspan
         sodipodi:role="line"
         id="tspan3802"
         x="633"
         y="255">TEH moving head with raspberry pi</tspan><tspan
         sodipodi:role="line"
         x="633"
         y="280"
         id="tspan3863"> camera and nozzles</tspan></text>
    <path
       style="fill:none;stroke:#000000;stroke-width:1px;stroke-linecap:butt;stroke-linejoin:miter;stroke-opacity:1"
       d="m 405,265 62,-1 -20,-50 -1,-38 -24,-1 -1,43 z"
       id="path3804"
       inkscape:connector-curvature="0" />
    <path
       style="fill:none;stroke:#000000;stroke-width:1px;stroke-linecap:butt;stroke-linejoin:miter;stroke-opacity:1"
       d="m 481,262 62,-1 -20,-50 -1,-38 -24,-1 -1,43 z"
       id="path3804-3"
       inkscape:connector-curvature="0" />
    <path
       style="fill:none;stroke:#000000;stroke-width:1px;stroke-linecap:butt;stroke-linejoin:miter;stroke-opacity:1"
       d="m 506,172 c 4.99436,-5.80688 4.63227,-3.81613 11,-7 1.07497,-0.53748 1.85982,-1.61994 3,-2 0.94868,-0.31623 2.02986,0.24254 3,0 1.74146,-0.43537 3.25854,-1.56464 5,-2 5.687,0 0.65836,0.44721 5,-1 0.31623,-0.10541 0.7643,0.2357 1,0 0.2357,-0.2357 -0.2357,-0.7643 0,-1 0.52705,-0.52705 1.33333,-0.66667 2,-1 0.66667,-0.33333 1.29289,-0.7643 2,-1 0.31623,-0.10541 0.70186,0.14907 1,0 0.84327,-0.42164 1.21554,-1.47702 2,-2 0.62017,-0.41345 1.29289,-0.7643 2,-1 0.31623,-0.10541 0.7643,0.2357 1,0 0.2357,-0.2357 -0.28583,-0.8285 0,-1 1.53925,-0.92355 3.35008,-1.29289 5,-2 0.68509,-0.29361 1.33333,-0.66667 2,-1 2,-0.66667 4.02605,-1.25977 6,-2 0.6979,-0.26171 1.30795,-0.72318 2,-1 0.9787,-0.39148 2.03676,-0.57189 3,-1 2.04335,-0.90815 3.95666,-2.09185 6,-3 2.15789,-0.95906 4.77536,-1.36439 7,-2 1.01354,-0.28958 2,-0.66667 3,-1 2,-0.66667 4,-1.33333 6,-2 1,-0.33333 1.96025,-0.82671 3,-1 0.98639,-0.1644 2,0 3,0 2,0 4,0 6,0 0.33333,0 0.67949,-0.0916 1,0 2.02707,0.57916 4,1.33333 6,2 1,0.33333 2.05719,0.5286 3,1 10.10361,5.05181 3.84262,2.30557 10,6 0.63914,0.38348 1.43906,0.50918 2,1 2.12861,1.86253 4,4 6,6 1,1 2.13176,1.88369 3,3 1.47573,1.89737 2.52427,4.10263 4,6 0.86824,1.11631 2.27239,1.78732 3,3 1.30609,2.17682 1.94952,4.68895 3,7 0.92529,2.03564 2.16955,3.92386 3,6 1,2.66667 2,5.33333 3,8 0.33333,1.33333 0.53032,2.70838 1,4 0.65633,4.11394 3.58579,7.22876 5,11 0.48257,1.28686 0.56539,2.69616 1,4 0.2357,0.70711 0.58655,1.37983 1,2 0.26149,0.39223 0.90755,0.53775 1,1 0,7.60088 -0.59628,1.21115 1,6 0.37654,1.12962 -0.6929,2.07869 -1,3 -0.41381,1.24142 0.82091,1.08954 -1,2 -1.37936,0.68968 -0.89447,-1.21106 -2,1 -0.14907,0.29814 0.14907,0.70186 0,1 -0.21082,0.42164 -0.73851,0.60777 -1,1 -0.41345,0.62017 -0.47295,1.47295 -1,2 -0.2357,0.2357 -0.7643,-0.2357 -1,0 -4.13392,4.13392 -1.94754,2.71606 -4,6 -1.27396,2.03833 -2.55778,4.07704 -4,6 -0.56569,0.75425 -1.51493,1.19155 -2,2 -0.54233,0.90388 -0.60852,2.0213 -1,3 -0.55364,1.38409 -1.44636,2.61591 -2,4 -4.02651,10.06627 0.7808,-2.1232 -1,5 -0.18078,0.7231 -0.81922,1.2769 -1,2 -0.24254,0.97014 0,2 0,3 0,1.82117 -0.21842,4.25261 0,6 0.21082,1.68655 0.75963,3.31741 1,5 0.0943,0.65997 0,1.33333 0,2 0,2 0,4 0,6 0,0.66667 -0.21082,1.36754 0,2 2.83284,5.66569 -0.37268,-1.49071 1,4 0.18078,0.7231 0.7643,1.29289 1,2 0.10541,0.31623 -0.10541,0.68377 0,1 0.2357,0.70711 0.72318,1.30795 1,2 0.39148,0.9787 0.60852,2.0213 1,3 1.14907,2.87268 1,0.9977 1,3"
       id="path3824"
       inkscape:connector-curvature="0" />
    <path
       style="fill:none;stroke:#000000;stroke-width:1px;stroke-linecap:butt;stroke-linejoin:miter;stroke-opacity:1"
       d="m 429,174 c 0.66667,-2.33333 1.09875,-4.74686 2,-7 0.44636,-1.11589 1.33333,-2 2,-3 1.33333,-2 2.55778,-4.07704 4,-6 0.56569,-0.75425 1.33333,-1.33333 2,-2 0.66667,-0.66667 1.33333,-1.33333 2,-2 2.2116,-2.2116 3.21554,-3.60777 6,-5 0.94372,-2.47978 2.69616,-0.56539 4,-1 1.70294,-0.56765 3.27401,-1.50686 5,-2 0.63001,-0.18 6.56895,0 7,0 2.66667,0 5.33333,0 8,0 2,0 4.00993,0.19901 6,0 2.34533,-0.23453 4.66118,-0.70765 7,-1 3.61828,-0.45229 7.36628,0.33034 11,0 2.67638,-0.24331 5.3205,-0.79388 8,-1 2.99116,-0.23009 6.01232,0.27161 9,0 2.34734,-0.2134 4.65266,-0.78661 7,-1 4.14587,-0.3769 9.17793,0.70599 13,1 2.65881,0.20452 5.34429,-0.24143 8,0 2.34734,0.21339 4.65739,0.73971 7,1 1.32518,0.14724 2.69256,-0.26149 4,0 1.03362,0.20672 1.96638,0.79328 3,1 1.30744,0.26149 2.69256,-0.26149 4,0 1.03362,0.20672 2.0213,0.60852 3,1 0.69205,0.27682 1.47295,0.47295 2,1 0.52705,0.52705 0.47295,1.47295 1,2 0.52705,0.52705 1.47295,0.47295 2,1 0.52705,0.52705 0.58655,1.37983 1,2 9.67222,14.50833 -1.34693,-3.69386 4,7 0.86923,1.73845 2.13077,3.26155 3,5 0.4714,0.94281 0.66667,2 1,3 0.66667,1 1.41633,1.94939 2,3 1.08593,1.95467 2.09185,3.95665 3,6 0.42811,0.96324 0.48809,2.07856 1,3 1.16734,2.10121 2.83266,3.89879 4,6 0.51191,0.92144 0.5286,2.05719 1,3 5.38944,10.77888 -2.53592,-9.0862 5,9 0.66667,2 1.33333,4 2,6 0,0.33333 -0.0808,0.67662 0,1 0.25566,1.02262 0.82671,1.96025 1,3 0.1644,0.98639 0,2 0,3 0,1 0,2 0,3 0,1 0.19612,2.01942 0,3 -0.14618,0.73088 -0.7643,1.29289 -1,2 -0.43461,1.30384 -0.73046,2.65232 -1,4 -0.26149,1.30744 0.2192,2.68481 0,4 -0.34658,2.0795 -1.58655,3.93275 -2,6 -0.13074,0.65372 0.1096,1.3424 0,2 -2.48536,14.91216 0.37775,-4.88877 -2,7 -0.13074,0.65372 0,1.33333 0,2 0,1.66667 0,3.33333 0,5 0,1.66667 0.2357,3.35008 0,5 -0.10541,0.73786 -0.89459,1.26213 -1,2 -0.2357,1.64992 0,3.33333 0,5 0,1 0,2 0,3 0,1 -0.1644,2.01361 0,3 0.17329,1.03975 0.82671,1.96025 1,3 0.22576,1.35457 0,5.34412 0,7 0,0.33333 0,0.66667 0,1 0,0.33333 -0.14907,0.70186 0,1 0.21082,0.42164 0.78918,0.57836 1,1 0.19825,0.39649 -0.20444,2.79556 0,3 0.2357,0.2357 0.7643,-0.2357 1,0 0.0322,0.0322 0,2.75747 0,3"
       id="path3826"
       inkscape:connector-curvature="0" />
    <path
       style="fill:#000000;fill-opacity:1;stroke:#ffffff;stroke-width:7.08699989;stroke-miterlimit:10;stroke-opacity:1;stroke-dasharray:none;stroke-dashoffset:6.3783001"
       d="m 406.65142,263.49754 c 0,-0.20826 3.42385,-10.22076 7.60855,-22.25 l 7.60856,-21.87135 0.53072,-21.77255 0.53073,-21.77256 10.61072,0.65922 c 5.8359,0.36257 10.83572,0.86017 11.11072,1.10577 0.275,0.2456 0.73613,8.8466 1.02473,19.11333 l 0.52473,18.66679 9.57295,23.59897 9.57295,23.59896 -16.50739,0.65104 c -18.1132,0.71436 -42.18797,0.8698 -42.18797,0.27238 z"
       id="path3834"
       inkscape:connector-curvature="0" />
    <path
       style="fill:#000000;fill-opacity:1;stroke:#ffffff;stroke-width:7.08699989;stroke-miterlimit:10;stroke-opacity:1;stroke-dasharray:none;stroke-dashoffset:6.3783001"
       d="m 482.65142,260.49754 c 0,-0.20826 3.42385,-10.22076 7.60855,-22.25 l 7.60856,-21.87135 0.53072,-21.77255 0.53073,-21.77256 10.61072,0.65922 c 5.8359,0.36257 10.83572,0.86017 11.11072,1.10577 0.275,0.2456 0.73613,8.8466 1.02473,19.11333 l 0.52473,18.66679 9.57295,23.59897 9.57295,23.59896 -16.50739,0.65104 c -18.1132,0.71436 -42.18797,0.8698 -42.18797,0.27238 z"
       id="path3836"
       inkscape:connector-curvature="0" />
    <text
       xml:space="preserve"
       style="font-size:20px;font-style:normal;font-weight:normal;line-height:125%;letter-spacing:0px;word-spacing:0px;fill:#000000;fill-opacity:1;stroke:none;font-family:Sans"
       x="649"
       y="196"
       id="text3838"
       sodipodi:linespacing="125%"><tspan
         sodipodi:role="line"
         id="tspan3840"
         x="649"
         y="196">2 chemical flasks on table </tspan><tspan
         sodipodi:role="line"
         x="649"
         y="221"
         id="tspan3842">with pipes to nozzles</tspan></text>
    <text
       xml:space="preserve"
       style="font-size:40px;font-style:normal;font-weight:normal;line-height:125%;letter-spacing:0px;word-spacing:0px;fill:#000000;fill-opacity:1;stroke:none;font-family:Sans"
       x="827.5"
       y="244.5"
       id="text3865"
       sodipodi:linespacing="125%"><tspan
         sodipodi:role="line"
         id="tspan3867"
         x="827.5"
         y="244.5" /></text>
  </g>
</svg>
