<?xml version="1.0" standalone="no"?>
 <!DOCTYPE svg PUBLIC "-//W3C//DTD SVG 1.1//EN" 
 "http://www.w3.org/Graphics/SVG/1.1/DTD/svg11.dtd"> 
<svg xmlns="http://www.w3.org/2000/svg" version="1.1" 
    width="29.7002cm" height="21.0007cm" viewBox="0 0 116930 82680 ">
<title>SVG Picture created as bug_radio-F.Cu.svg date 2020/11/04 23:13:42 </title>
  <desc>Picture generated by PCBNEW </desc>
<g style="fill:#000000; fill-opacity:1;stroke:#000000; stroke-opacity:1;
stroke-linecap:round; stroke-linejoin:round; "
 transform="translate(0 0) scale(1 1)">
</g>
<g style="fill:#000000; fill-opacity:0.0; 
stroke:#000000; stroke-width:-0.000393701; stroke-opacity:1; 
stroke-linecap:round; stroke-linejoin:round;">
</g>
<g style="fill:#000000; fill-opacity:0.0; 
stroke:#000000; stroke-width:393.701; stroke-opacity:1; 
stroke-linecap:round; stroke-linejoin:round;">
<path d="M47677 26732
L47677 32637
" />
<path d="M40590 26732
L47677 26732
" />
<path d="M40590 33818
L40590 26732
" />
<path d="M48858 33818
L40590 33818
" />
<path d="M48858 25551
L48858 33818
" />
<path d="M39409 25551
L48858 25551
" />
<path d="M39409 35000
L39409 25551
" />
<path d="M50039 35000
L39409 35000
" />
<path d="M50039 24370
L50039 35000
" />
<path d="M38228 24370
L50039 24370
" />
<path d="M38228 36181
L38228 24370
" />
<path d="M50039 36181
L38228 36181
" />
</g>
<g style="fill:#000000; fill-opacity:0.0; 
stroke:#000000; stroke-width:0; stroke-opacity:1; 
stroke-linecap:round; stroke-linejoin:round;">
</g>
<g style="fill:#000000; fill-opacity:1.0; 
stroke:#000000; stroke-width:0; stroke-opacity:1; 
stroke-linecap:round; stroke-linejoin:round;">
<polyline style="fill-rule:evenodd;"
points="46868,32775
46868,32381
47856,32381
47856,32775
46868,32775
" /> 
<polyline style="fill-rule:evenodd;"
points="49250,36358
49250,35964
50238,35964
50238,36358
49250,36358
" /> 
<polyline style="fill-rule:evenodd;"
points="47618,38612
47618,39104
47027,39104
47027,38612
47618,38612
" /> 
<polyline style="fill-rule:evenodd;"
points="46633,38612
46633,39104
46043,39104
46043,38612
46633,38612
" /> 
<polyline style="fill-rule:evenodd;"
points="48110,37244
48779,37244
48779,37913
48110,37913
48110,37244
" /> 
</g>
<g style="fill:#000000; fill-opacity:1.0; 
stroke:#000000; stroke-width:669.291; stroke-opacity:1; 
stroke-linecap:round; stroke-linejoin:round;">
</g>
<g style="fill:#000000; fill-opacity:0.0; 
stroke:#000000; stroke-width:669.291; stroke-opacity:1; 
stroke-linecap:round; stroke-linejoin:round;">
<path d="M47444 37578
L47444 37578
" />
</g>
<g style="fill:#000000; fill-opacity:0.0; 
stroke:#000000; stroke-width:0; stroke-opacity:1; 
stroke-linecap:round; stroke-linejoin:round;">
</g>
<g style="fill:#000000; fill-opacity:1.0; 
stroke:#000000; stroke-width:0; stroke-opacity:1; 
stroke-linecap:round; stroke-linejoin:round;">
<polyline style="fill-rule:evenodd;"
points="48070,39822
48070,39507
48425,39507
48425,39822
48070,39822
" /> 
<polyline style="fill-rule:evenodd;"
points="48070,40570
48070,40255
48425,40255
48425,40570
48070,40570
" /> 
<polyline style="fill-rule:evenodd;"
points="48858,40196
48858,39881
49212,39881
49212,40196
48858,40196
" /> 
<polyline style="fill-rule:evenodd;"
points="47972,39133
47972,38622
48562,38622
48562,39133
47972,39133
" /> 
<polyline style="fill-rule:evenodd;"
points="49035,39133
49035,38622
49625,38622
49625,39133
49035,39133
" /> 
<polyline style="fill-rule:evenodd;"
points="47677,39409
47677,39921
47086,39921
47086,39409
47677,39409
" /> 
<polyline style="fill-rule:evenodd;"
points="46614,39409
46614,39921
46023,39921
46023,39409
46614,39409
" /> 
<polyline style="fill-rule:evenodd;"
points="46614,40255
46614,40767
46023,40767
46023,40255
46614,40255
" /> 
<polyline style="fill-rule:evenodd;"
points="47677,40255
47677,40767
47086,40767
47086,40255
47677,40255
" /> 
<polyline style="fill-rule:evenodd;"
points="50295,38562
50295,37893
50964,37893
50964,38562
50295,38562
" /> 
<polyline style="fill-rule:evenodd;"
points="54389,46259
54389,34448
66200,34448
66200,46259
54389,46259
" /> 
<polyline style="fill-rule:evenodd;"
points="47480,32834
47480,32440
47874,32440
47874,32834
47480,32834
" /> 
<polyline style="fill-rule:evenodd;"
points="49842,36377
49842,35984
50236,35984
50236,36377
49842,36377
" /> 
<circle cx="49468.5" cy="37145.7" r="157.48" /> 
</g>
<g style="fill:#000000; fill-opacity:1.0; 
stroke:#000000; stroke-width:19.685; stroke-opacity:1; 
stroke-linecap:round; stroke-linejoin:round;">
</g>
<g style="fill:#000000; fill-opacity:1.0; 
stroke:#000000; stroke-width:0; stroke-opacity:1; 
stroke-linecap:round; stroke-linejoin:round;">
<circle cx="45748" cy="32480.3" r="157.48" /> 
</g>
<g style="fill:#000000; fill-opacity:1.0; 
stroke:#000000; stroke-width:19.685; stroke-opacity:1; 
stroke-linecap:round; stroke-linejoin:round;">
</g>
<g style="fill:#000000; fill-opacity:1.0; 
stroke:#000000; stroke-width:236.22; stroke-opacity:1; 
stroke-linecap:round; stroke-linejoin:round;">
</g>
<g style="fill:#000000; fill-opacity:0.0; 
stroke:#000000; stroke-width:236.22; stroke-opacity:1; 
stroke-linecap:round; stroke-linejoin:round;">
<path d="M48248 39665
L49330 38877
" />
<path d="M47322 38858
L47381 39665
" />
<path d="M47381 39665
L48248 39665
" />
<path d="M46318 40511
L46318 39665
" />
<path d="M46318 39665
L46338 38858
" />
<path d="M46338 38858
L47444 37578
" />
<path d="M48267 38877
L48444 37578
" />
<path d="M47362 32578
L45748 32480
" />
<path d="M49468 37145
L48444 37578
" />
<path d="M49035 40039
L49980 39744
" />
<path d="M49980 39744
L50629 38228
" />
<path d="M49744 36161
L50629 38228
" />
<path d="M47381 40511
L48248 40413
" />
<path d="M48248 40413
L50511 41003
" />
<path d="M50511 41003
L60295 40354
" />
</g> 
</svg>
