<?xml version="1.0" encoding="UTF-8" standalone="no"?>
<!-- Created with Inkscape (http://www.inkscape.org/) -->

<svg
   xmlns:dc="http://purl.org/dc/elements/1.1/"
   xmlns:cc="http://creativecommons.org/ns#"
   xmlns:rdf="http://www.w3.org/1999/02/22-rdf-syntax-ns#"
   xmlns:svg="http://www.w3.org/2000/svg"
   xmlns="http://www.w3.org/2000/svg"
   xmlns:sodipodi="http://sodipodi.sourceforge.net/DTD/sodipodi-0.dtd"
   xmlns:inkscape="http://www.inkscape.org/namespaces/inkscape"
   version="1.1"
   id="svg3199"
   xml:space="preserve"
   width="1122.6667"
   height="794.66669"
   viewBox="0 0 1122.6667 794.66669"
   sodipodi:docname="bug_radio-F.Cu+newest.svg"
   inkscape:version="0.92.4 (5da689c313, 2019-01-14)"><metadata
     id="metadata3205"><rdf:RDF><cc:Work
         rdf:about=""><dc:format>image/svg+xml</dc:format><dc:type
           rdf:resource="http://purl.org/dc/dcmitype/StillImage" /><dc:title></dc:title></cc:Work></rdf:RDF></metadata><defs
     id="defs3203" /><sodipodi:namedview
     pagecolor="#ffffff"
     bordercolor="#666666"
     borderopacity="1"
     objecttolerance="10"
     gridtolerance="10"
     guidetolerance="10"
     inkscape:pageopacity="0"
     inkscape:pageshadow="2"
     inkscape:window-width="1918"
     inkscape:window-height="1178"
     id="namedview3201"
     showgrid="false"
     inkscape:zoom="4.5945859"
     inkscape:cx="501.25212"
     inkscape:cy="454.71205"
     inkscape:window-x="0"
     inkscape:window-y="20"
     inkscape:window-maximized="1"
     inkscape:current-layer="g3207" /><g
     id="g3207"
     inkscape:groupmode="layer"
     inkscape:label="bug_radio-F.Cu"
     transform="matrix(0.0096,0,0,-0.0096,0,794.66667)"><path
       style="color:#000000;font-style:normal;font-variant:normal;font-weight:normal;font-stretch:normal;font-size:medium;line-height:normal;font-family:sans-serif;font-variant-ligatures:normal;font-variant-position:normal;font-variant-caps:normal;font-variant-numeric:normal;font-variant-alternates:normal;font-feature-settings:normal;text-indent:0;text-align:start;text-decoration:none;text-decoration-line:none;text-decoration-style:solid;text-decoration-color:#000000;letter-spacing:normal;word-spacing:normal;text-transform:none;writing-mode:lr-tb;direction:ltr;text-orientation:mixed;dominant-baseline:auto;baseline-shift:baseline;text-anchor:start;white-space:normal;shape-padding:0;clip-rule:nonzero;display:inline;overflow:visible;visibility:visible;opacity:1;isolation:auto;mix-blend-mode:normal;color-interpolation:sRGB;color-interpolation-filters:linearRGB;solid-color:#000000;solid-opacity:1;vector-effect:none;fill:#000000;fill-opacity:1;fill-rule:nonzero;stroke:none;stroke-width:236.22000122;stroke-linecap:round;stroke-linejoin:round;stroke-miterlimit:10;stroke-dasharray:none;stroke-dashoffset:0;stroke-opacity:1;color-rendering:auto;image-rendering:auto;shape-rendering:auto;text-rendering:auto;enable-background:accumulate"
       d="m 54389.801,36302.09 c -65.228,0 -118.105,52.881 -118.112,118.109 v 5387.178 l -3740.884,-248.385 c -10.364,-1.562 -20.89,-1.737 -31.301,-0.521 -9.855,0.885 -19.559,3.004 -28.885,6.308 l -1934.357,504.569 c -16.78,-46.937 -61.217,-78.288 -111.063,-78.358 H 48070.9 c -65.228,0 -118.104,52.882 -118.111,118.11 v 5.089 l -157.478,-17.89 v -183.998 c 0,-65.229 -52.883,-118.107 -118.112,-118.112 H 47086.6 c -65.228,0 -118.105,52.884 -118.11,118.112 v 511.799 c 0,65.228 52.882,118.104 118.11,118.111 h 590.599 c 65.229,0 118.106,-52.882 118.112,-118.111 v -90.061 l 157.478,17.891 v 72.17 c 0,65.228 52.883,118.105 118.111,118.111 h 354.299 c 65.229,0 118.106,-52.882 118.112,-118.111 v -112.467 l 1979.771,-516.412 3748.607,248.896 v 6187.082 c 0,65.229 52.883,118.107 118.112,118.112 h 11811 c 65.228,0 118.104,-52.884 118.109,-118.112 v -11811 c 0,-65.227 -52.882,-118.102 -118.109,-118.109 z M 46023.6,41794.189 c -65.228,0 -118.105,52.884 -118.11,118.112 v 511.799 c 0,65.228 52.882,118.104 118.11,118.111 h 177.189 v 98.379 H 46023.6 c -65.227,0 -118.103,52.882 -118.11,118.109 v 511.901 c 0,65.228 52.882,118.104 118.11,118.111 h 186.287 l 1.679,68.879 h -168.265 c -65.228,0 -118.105,52.881 -118.112,118.109 v 492.102 c 0,65.228 52.884,118.104 118.112,118.109 h 454.051 l 858.201,992.637 c 25.327,30.066 63.952,45.561 103.036,41.335 39.084,-4.225 73.505,-27.618 91.821,-62.402 0.359,-0.653 0.712,-1.309 1.059,-1.968 0.931,-1.872 1.812,-3.768 2.642,-5.686 1.096,-2.413 2.11,-4.863 3.041,-7.344 0.06,-0.17 0.12,-0.341 0.18,-0.511 16.788,-45.836 3.652,-97.278 -33.057,-129.453 l -780.15,-902.358 c 5.203,-13.517 7.876,-27.875 7.885,-42.359 v -492.102 c 0,-65.227 -52.883,-118.102 -118.11,-118.109 h -186.043 l -1.679,-68.879 h 168.021 c 65.229,0 118.106,-52.882 118.112,-118.111 v -511.901 c 0,-65.228 -52.884,-118.104 -118.112,-118.109 h -177.189 v -98.379 h 177.189 c 65.229,0 118.106,-52.882 118.112,-118.111 v -511.799 c 0,-65.229 -52.883,-118.107 -118.112,-118.112 z m 2834.701,570.901 c -65.228,0 -118.105,52.881 -118.112,118.109 v 314.901 c 0,65.229 52.883,118.106 118.112,118.111 h 354.299 c 44.09,-0.02 84.499,-24.598 104.798,-63.738 l 575.762,179.937 414.188,966.481 h -12.047 c -65.228,0 -118.105,52.881 -118.112,118.109 v 669.301 c 0,65.228 52.884,118.104 118.112,118.109 h 12.084 l -556.783,1299.18 H 49250 c -65.227,0 -118.102,52.882 -118.109,118.109 v 59.09 H 38247.574 c -37.523,-6.183 -75.728,6.077 -102.646,32.94 -0.864,0.805 -1.716,1.623 -2.555,2.453 l -0.123,0.134 c -26.205,26.84 -38.105,64.53 -32.061,101.551 v 11772.76 c -6.183,37.522 6.077,75.726 32.94,102.644 0.805,0.865 1.624,1.717 2.455,2.557 l 0.129,0.117 c 26.84,26.208 64.532,38.109 101.555,32.065 h 11772.859 c 37.504,6.179 75.691,-6.067 102.607,-32.905 0.881,-0.82 1.75,-1.654 2.606,-2.501 l 0.08,-0.09 c 26.226,-26.841 38.137,-64.548 32.09,-101.584 V 47699.273 c 6.179,-37.497 -6.061,-75.677 -32.889,-102.593 -0.829,-0.891 -1.672,-1.768 -2.529,-2.633 l -0.01,-0.01 -0.03,-0.03 c -26.846,-26.25 -64.572,-38.173 -101.627,-32.119 H 39428.678 c -37.512,-6.183 -75.707,6.068 -102.625,32.916 -0.877,0.816 -1.741,1.646 -2.592,2.488 l -0.08,0.09 c -26.227,26.842 -38.139,64.549 -32.092,101.586 v 9410.558 c -6.183,37.523 6.077,75.727 32.94,102.645 0.805,0.864 1.623,1.716 2.453,2.555 l 0.134,0.123 c 26.84,26.205 64.53,38.104 101.551,32.06 h 9410.66 c 37.509,6.181 75.699,-6.068 102.616,-32.912 0.878,-0.818 1.744,-1.65 2.597,-2.494 l 0.08,-0.09 c 26.226,-26.841 38.137,-64.548 32.09,-101.584 V 48880.37 c 6.18,-37.508 -6.069,-75.699 -32.912,-102.615 -0.818,-0.879 -1.65,-1.745 -2.494,-2.598 l -0.09,-0.08 c -26.841,-26.226 -64.548,-38.137 -101.584,-32.09 h -8229.459 c -37.504,-6.179 -75.691,6.067 -102.607,32.905 -0.881,0.82 -1.75,1.654 -2.606,2.501 l -0.08,0.09 c -26.226,26.841 -38.137,64.548 -32.09,101.584 v 7048.358 c -6.18,37.505 6.066,75.693 32.905,102.609 0.82,0.881 1.654,1.75 2.501,2.606 l 0.09,0.08 c 26.841,26.226 64.548,38.137 101.584,32.09 h 7048.358 c 37.523,6.183 75.728,-6.077 102.646,-32.94 0.865,-0.805 1.717,-1.624 2.557,-2.455 l 0.117,-0.129 c 26.208,-26.84 38.109,-64.532 32.065,-101.555 V 50416.21 h 60.99 c 63.947,-0.04 116.247,-50.968 117.996,-114.891 11.614,-18.677 17.783,-40.226 17.812,-62.22 v -393.7 c 0,-65.227 -52.882,-118.103 -118.109,-118.11 h -393.699 c -42.111,0.07 -81.003,22.543 -102.08,59 H 46868.1 c -65.228,0 -118.104,52.883 -118.11,118.111 v 115.889 l -761.207,46.404 c -47.336,-84.649 -137.971,-142.603 -240.783,-142.603 -150.871,0 -275.51,124.829 -275.51,275.609 0,150.78 124.639,275.612 275.51,275.612 114.643,0 214.134,-72.059 255.334,-172.846 l 746.656,-45.516 v 41.151 c 0,65.228 52.882,118.104 118.11,118.111 h 690.99 v 5413.379 h -6850.379 v -6850.379 h 8031.478 v 8031.478 H 39527.51 v -9212.58 h 10393.779 v 10393.68 H 38346.41 V 46617.01 h 10785.481 v 98.39 c 0,65.227 52.882,118.103 118.109,118.11 h 988.199 c 65.228,0 118.105,-52.882 118.112,-118.11 v -393.701 c -0.03,-7.317 -0.73,-14.615 -2.106,-21.801 -1.153,-64.364 -53.631,-115.954 -118.006,-116.007 h -220.156 l 548.342,-1279.481 h 400.215 c 65.228,0 118.104,-52.881 118.111,-118.109 V 44117 c 0,-65.228 -52.883,-118.103 -118.111,-118.109 h -400.254 l -468.629,-1093.52 c -6.043,-22.157 -18.415,-42.072 -35.6,-57.307 -17.088,-15.939 -38.519,-26.451 -61.582,-30.207 l -667.824,-208.709 v -125.949 c 0,-65.228 -52.883,-118.103 -118.111,-118.109 z m -1771.701,275.5 c -65.227,0 -118.103,52.882 -118.11,118.109 v 511.901 c 0,65.228 52.882,118.104 118.11,118.111 h 149.48 l -5.045,68.879 H 47027.6 c -65.227,0 -118.103,52.882 -118.11,118.109 v 492.102 c 0,65.227 52.883,118.102 118.11,118.109 h 590.5 c 65.228,0 118.104,-52.881 118.111,-118.109 v -492.102 c 0,-65.228 -52.883,-118.103 -118.111,-118.109 h -150.211 l 5.043,-68.879 h 204.267 c 65.229,0 118.106,-52.882 118.112,-118.111 v -137.889 h 157.478 v 39.389 c 0,65.228 52.883,118.105 118.111,118.111 h 354.299 c 47.451,-0.06 90.262,-28.504 108.699,-72.227 l 402.237,113.489 57.549,104.283 c -45.916,17.338 -76.328,61.263 -76.395,110.344 v 511.9 c 0,65.228 52.883,118.103 118.111,118.109 h 590.6 c 65.227,0 118.102,-52.882 118.109,-118.109 v -511.9 c 0,-65.227 -52.882,-118.103 -118.109,-118.11 h -366.797 l -131.84,-238.9 c -7.54,-19.458 -20.1,-36.571 -36.402,-49.598 -1.18,-0.995 -2.38,-1.966 -3.598,-2.914 -0.272,-0.201 -0.544,-0.4 -0.818,-0.598 -16.081,-12.273 -35.045,-20.211 -55.074,-23.052 l -488.16,-137.731 v -117.998 c 0,-65.228 -52.884,-118.104 -118.112,-118.109 H 48070.9 c -65.228,0 -118.104,52.881 -118.111,118.109 v 39.291 h -157.478 v -137.791 c 0,-65.228 -52.884,-118.104 -118.112,-118.109 z m 885.8,787.4 c -65.228,0 -118.104,52.882 -118.111,118.11 v 511.9 c 0,65.228 52.883,118.103 118.111,118.109 h 227.118 l 64.423,472.381 h -153.742 c -65.227,0 -118.102,52.883 -118.109,118.11 v 669.3 c 0,65.227 52.882,118.103 118.109,118.11 h 669.301 c 65.227,0 118.102,-52.883 118.109,-118.11 v -14.853 l 295.584,125.037 c 6.295,145.522 128.386,263.826 275.307,263.826 150.871,0 275.609,-124.739 275.609,-275.609 0,-150.871 -124.829,-275.512 -275.609,-275.512 -69.619,0 -133.669,26.613 -182.49,70.07 l -388.401,-164.298 V 44766.6 c 0,-65.227 -52.882,-118.103 -118.109,-118.11 h -277.152 l -64.424,-472.381 H 48563 c 65.227,0 118.102,-52.882 118.109,-118.109 v -511.9 c 0,-65.227 -52.882,-118.103 -118.109,-118.11 z"
       id="path3305"
       inkscape:connector-curvature="0"
       sodipodi:nodetypes="ccccccccccccccccccccccccccccccccccccccccccccccccccccccsccccccccccccccccccccccccccccccccccccccccccccccccccccccccccccccccccccccccccccccccccccccccccccccccccccccccccccssscccccccccccccccccccccccccccccccccccccccccccccccccccccccccccccccccccccccccccccccccccccccccccccccccccccsssccccccccccc" /></g></svg>