  0
SECTION
  2
HEADER
  9
$ANGBASE
  50
0.0
  9
$ANGDIR
  70
  1
  9
$MEASUREMENT
  70
0
  0
ENDSEC
  0
SECTION
  2
TABLES
  0
TABLE
  2
LTYPE
  70
4
  0
LTYPE
  5
40F
  2
CONTINUOUS
  70
0
  3
Solid line
  72
65
  73
0
  40
0.0
  0
LTYPE
  5
410
  2
DASHDOT
 70
0
  3
Dash Dot ____ _ ____ _
 72
65
 73
4
 40
2.0
 49
1.25
 49
-0.25
 49
0.25
 49
-0.25
  0
LTYPE
  5
411
  2
DASHED
 70
0
  3
Dashed __ __ __ __ __
 72
65
 73
2
 40
0.75
 49
0.5
 49
-0.25
  0
LTYPE
  5
43B
  2
DOTTED
 70
0
  3
Dotted .  .  .  .
 72
65
 73
2
 40
0.2
 49
0.0
 49
-0.2
  0
ENDTAB
  0
TABLE
  2
STYLE
  70
4
  0
STYLE
  2
KICAD
  70
0
  40
0
  41
1
  42
1
  50
0
  71
0
  3
isocp.shx
  0
STYLE
  2
KICADB
  70
0
  40
0
  41
1
  42
1
  50
0
  71
0
  3
isocp.shx
  0
STYLE
  2
KICADI
  70
0
  40
0
  41
1
  42
1
  50
15
  71
0
  3
isocp.shx
  0
STYLE
  2
KICADBI
  70
0
  40
0
  41
1
  42
1
  50
15
  71
0
  3
isocp.shx
  0
ENDTAB
  0
TABLE
  2
LAYER
  70
30
  0
LAYER
  2
BLACK
  70
0
  62
7
  6
CONTINUOUS
  0
LAYER
  2
GRAY1
  70
0
  62
251
  6
CONTINUOUS
  0
LAYER
  2
GRAY2
  70
0
  62
8
  6
CONTINUOUS
  0
LAYER
  2
GRAY3
  70
0
  62
9
  6
CONTINUOUS
  0
LAYER
  2
WHITE
  70
0
  62
7
  6
CONTINUOUS
  0
LAYER
  2
LYELLOW
  70
0
  62
51
  6
CONTINUOUS
  0
LAYER
  2
BLUE1
  70
0
  62
178
  6
CONTINUOUS
  0
LAYER
  2
GREEN1
  70
0
  62
98
  6
CONTINUOUS
  0
LAYER
  2
CYAN1
  70
0
  62
138
  6
CONTINUOUS
  0
LAYER
  2
RED1
  70
0
  62
18
  6
CONTINUOUS
  0
LAYER
  2
MAGENTA1
  70
0
  62
228
  6
CONTINUOUS
  0
LAYER
  2
BROWN1
  70
0
  62
58
  6
CONTINUOUS
  0
LAYER
  2
BLUE2
  70
0
  62
5
  6
CONTINUOUS
  0
LAYER
  2
GREEN2
  70
0
  62
3
  6
CONTINUOUS
  0
LAYER
  2
CYAN2
  70
0
  62
4
  6
CONTINUOUS
  0
LAYER
  2
RED2
  70
0
  62
1
  6
CONTINUOUS
  0
LAYER
  2
MAGENTA2
  70
0
  62
6
  6
CONTINUOUS
  0
LAYER
  2
BROWN2
  70
0
  62
54
  6
CONTINUOUS
  0
LAYER
  2
BLUE3
  70
0
  62
171
  6
CONTINUOUS
  0
LAYER
  2
GREEN3
  70
0
  62
91
  6
CONTINUOUS
  0
LAYER
  2
CYAN3
  70
0
  62
131
  6
CONTINUOUS
  0
LAYER
  2
RED3
  70
0
  62
11
  6
CONTINUOUS
  0
LAYER
  2
MAGENTA3
  70
0
  62
221
  6
CONTINUOUS
  0
LAYER
  2
YELLOW3
  70
0
  62
2
  6
CONTINUOUS
  0
LAYER
  2
BLUE4
  70
0
  62
5
  6
CONTINUOUS
  0
LAYER
  2
GREEN4
  70
0
  62
3
  6
CONTINUOUS
  0
LAYER
  2
CYAN4
  70
0
  62
4
  6
CONTINUOUS
  0
LAYER
  2
RED4
  70
0
  62
1
  6
CONTINUOUS
  0
LAYER
  2
MAGENTA4
  70
0
  62
6
  6
CONTINUOUS
  0
LAYER
  2
YELLOW4
  70
0
  62
2
  6
CONTINUOUS
  0
ENDTAB
  0
ENDSEC
  0
SECTION
  2
ENTITIES
0
LINE
8
BLACK
6
CONTINUOUS
10
168.15
20
-117.5
11
138.15
21
-117.5
0
LINE
8
BLACK
6
CONTINUOUS
10
138.15
20
-117.5
11
138.15
21
-105.304
0
LINE
8
BLACK
6
CONTINUOUS
10
138.15
20
-105.304
11
125.775
21
-107.118
0
LINE
8
BLACK
6
CONTINUOUS
10
125.775
20
-107.118
11
125.725
21
-107.135
0
LINE
8
BLACK
6
CONTINUOUS
10
125.725
20
-107.135
11
125.671
21
-107.133
0
LINE
8
BLACK
6
CONTINUOUS
10
125.671
20
-107.133
11
125.671
21
-107.133
0
LINE
8
BLACK
6
CONTINUOUS
10
125.671
20
-107.133
11
125.619
21
-107.132
0
LINE
8
BLACK
6
CONTINUOUS
10
125.619
20
-107.132
11
125.514
21
-107.129
0
LINE
8
BLACK
6
CONTINUOUS
10
125.514
20
-107.129
11
125.513
21
-107.129
0
LINE
8
BLACK
6
CONTINUOUS
10
125.513
20
-107.129
11
125.512
21
-107.129
0
LINE
8
BLACK
6
CONTINUOUS
10
125.512
20
-107.129
11
125.415
21
-107.09
0
LINE
8
BLACK
6
CONTINUOUS
10
125.415
20
-107.09
11
125.317
21
-107.051
0
LINE
8
BLACK
6
CONTINUOUS
10
125.317
20
-107.051
11
125.317
21
-107.051
0
LINE
8
BLACK
6
CONTINUOUS
10
125.317
20
-107.051
11
125.316
21
-107.05
0
LINE
8
BLACK
6
CONTINUOUS
10
125.316
20
-107.05
11
125.237
21
-106.981
0
LINE
8
BLACK
6
CONTINUOUS
10
125.237
20
-106.981
11
125.199
21
-106.946
0
LINE
8
BLACK
6
CONTINUOUS
10
125.199
20
-106.946
11
125.198
21
-106.946
0
LINE
8
BLACK
6
CONTINUOUS
10
125.198
20
-106.946
11
125.158
21
-106.91
0
LINE
8
BLACK
6
CONTINUOUS
10
125.158
20
-106.91
11
125.133
21
-106.864
0
LINE
8
BLACK
6
CONTINUOUS
10
125.133
20
-106.864
11
122.222
21
-103.202
0
LINE
8
BLACK
6
CONTINUOUS
10
122.222
20
-103.202
11
121.05
21
-103.644
0
LINE
8
BLACK
6
CONTINUOUS
10
121.05
20
-103.644
11
121.05
21
-104.15
0
LINE
8
BLACK
6
CONTINUOUS
10
121.05
20
-104.15
11
119.55
21
-104.15
0
LINE
8
BLACK
6
CONTINUOUS
10
119.55
20
-104.15
11
119.55
21
-102.85
0
LINE
8
BLACK
6
CONTINUOUS
10
119.55
20
-102.85
11
120.889
21
-102.85
0
LINE
8
BLACK
6
CONTINUOUS
10
120.889
20
-102.85
11
121.981
21
-102.437
0
LINE
8
BLACK
6
CONTINUOUS
10
121.981
20
-102.437
11
121.983
21
-102.427
0
LINE
8
BLACK
6
CONTINUOUS
10
121.983
20
-102.427
11
122.094
21
-102.246
0
LINE
8
BLACK
6
CONTINUOUS
10
122.094
20
-102.246
11
122.259
21
-102.114
0
LINE
8
BLACK
6
CONTINUOUS
10
122.259
20
-102.114
11
122.46
21
-102.047
0
LINE
8
BLACK
6
CONTINUOUS
10
122.46
20
-102.047
11
122.672
21
-102.053
0
LINE
8
BLACK
6
CONTINUOUS
10
122.672
20
-102.053
11
122.869
21
-102.131
0
LINE
8
BLACK
6
CONTINUOUS
10
122.869
20
-102.131
11
122.987
21
-102.236
0
LINE
8
BLACK
6
CONTINUOUS
10
122.987
20
-102.236
11
122.999
21
-102.25
0
LINE
8
BLACK
6
CONTINUOUS
10
122.999
20
-102.25
11
123
21
-102.25
0
LINE
8
BLACK
6
CONTINUOUS
10
123
20
-102.25
11
123
21
-102.252
0
LINE
8
BLACK
6
CONTINUOUS
10
123
20
-102.252
11
125.89
21
-105.888
0
LINE
8
BLACK
6
CONTINUOUS
10
125.89
20
-105.888
11
138.15
21
-104.092
0
LINE
8
BLACK
6
CONTINUOUS
10
138.15
20
-104.092
11
138.15
21
-87.5
0
LINE
8
BLACK
6
CONTINUOUS
10
138.15
20
-87.5
11
168.15
21
-87.5
0
LINE
8
BLACK
6
CONTINUOUS
10
168.15
20
-87.5
11
168.15
21
-117.5
0
LINE
8
BLACK
6
CONTINUOUS
10
118.5
20
-98.675
11
118.127
21
-98.675
0
LINE
8
BLACK
6
CONTINUOUS
10
118.127
20
-98.675
11
118.074
21
-100.1
0
LINE
8
BLACK
6
CONTINUOUS
10
118.074
20
-100.1
11
118.4
21
-100.1
0
LINE
8
BLACK
6
CONTINUOUS
10
118.4
20
-100.1
11
118.4
21
-101.4
0
LINE
8
BLACK
6
CONTINUOUS
10
118.4
20
-101.4
11
118.038
21
-101.4
0
LINE
8
BLACK
6
CONTINUOUS
10
118.038
20
-101.4
11
118.012
21
-102.85
0
LINE
8
BLACK
6
CONTINUOUS
10
118.012
20
-102.85
11
118.35
21
-102.85
0
LINE
8
BLACK
6
CONTINUOUS
10
118.35
20
-102.85
11
118.35
21
-104.15
0
LINE
8
BLACK
6
CONTINUOUS
10
118.35
20
-104.15
11
116.85
21
-104.15
0
LINE
8
BLACK
6
CONTINUOUS
10
116.85
20
-104.15
11
116.85
21
-104.009
0
LINE
8
BLACK
6
CONTINUOUS
10
116.85
20
-104.009
11
115.01
21
-103.773
0
LINE
8
BLACK
6
CONTINUOUS
10
115.01
20
-103.773
11
114.679
21
-104.167
0
LINE
8
BLACK
6
CONTINUOUS
10
114.679
20
-104.167
11
114.221
21
-104.431
0
LINE
8
BLACK
6
CONTINUOUS
10
114.221
20
-104.431
11
113.831
21
-104.5
0
LINE
8
BLACK
6
CONTINUOUS
10
113.831
20
-104.5
11
113.569
21
-104.5
0
LINE
8
BLACK
6
CONTINUOUS
10
113.569
20
-104.5
11
113.179
21
-104.431
0
LINE
8
BLACK
6
CONTINUOUS
10
113.179
20
-104.431
11
112.721
21
-104.167
0
LINE
8
BLACK
6
CONTINUOUS
10
112.721
20
-104.167
11
112.381
21
-103.762
0
LINE
8
BLACK
6
CONTINUOUS
10
112.381
20
-103.762
11
112.2
21
-103.264
0
LINE
8
BLACK
6
CONTINUOUS
10
112.2
20
-103.264
11
112.2
21
-102.736
0
LINE
8
BLACK
6
CONTINUOUS
10
112.2
20
-102.736
11
112.381
21
-102.238
0
LINE
8
BLACK
6
CONTINUOUS
10
112.381
20
-102.238
11
112.721
21
-101.833
0
LINE
8
BLACK
6
CONTINUOUS
10
112.721
20
-101.833
11
113.179
21
-101.569
0
LINE
8
BLACK
6
CONTINUOUS
10
113.179
20
-101.569
11
113.569
21
-101.5
0
LINE
8
BLACK
6
CONTINUOUS
10
113.569
20
-101.5
11
113.831
21
-101.5
0
LINE
8
BLACK
6
CONTINUOUS
10
113.831
20
-101.5
11
114.221
21
-101.569
0
LINE
8
BLACK
6
CONTINUOUS
10
114.221
20
-101.569
11
114.679
21
-101.833
0
LINE
8
BLACK
6
CONTINUOUS
10
114.679
20
-101.833
11
115.019
21
-102.238
0
LINE
8
BLACK
6
CONTINUOUS
10
115.019
20
-102.238
11
115.143
21
-102.58
0
LINE
8
BLACK
6
CONTINUOUS
10
115.143
20
-102.58
11
117.212
21
-102.845
0
LINE
8
BLACK
6
CONTINUOUS
10
117.212
20
-102.845
11
117.238
21
-101.4
0
LINE
8
BLACK
6
CONTINUOUS
10
117.238
20
-101.4
11
116.9
21
-101.4
0
LINE
8
BLACK
6
CONTINUOUS
10
116.9
20
-101.4
11
116.9
21
-100.1
0
LINE
8
BLACK
6
CONTINUOUS
10
116.9
20
-100.1
11
117.274
21
-100.1
0
LINE
8
BLACK
6
CONTINUOUS
10
117.274
20
-100.1
11
117.327
21
-98.675
0
LINE
8
BLACK
6
CONTINUOUS
10
117.327
20
-98.675
11
117
21
-98.675
0
LINE
8
BLACK
6
CONTINUOUS
10
117
20
-98.675
11
117
21
-97.425
0
LINE
8
BLACK
6
CONTINUOUS
10
117
20
-97.425
11
118.5
21
-97.425
0
LINE
8
BLACK
6
CONTINUOUS
10
118.5
20
-97.425
11
118.5
21
-98.675
0
LINE
8
BLACK
6
CONTINUOUS
10
112.95
20
-74.85
11
112.95
21
-73.7994
0
LINE
8
BLACK
6
CONTINUOUS
10
112.95
20
-73.7994
11
111.378
21
-73.8509
0
LINE
8
BLACK
6
CONTINUOUS
10
111.378
20
-73.8509
11
111.274
21
-73.836
0
LINE
8
BLACK
6
CONTINUOUS
10
111.274
20
-73.836
11
111.149
21
-73.7695
0
LINE
8
BLACK
6
CONTINUOUS
10
111.149
20
-73.7695
11
111.055
21
-73.6645
0
LINE
8
BLACK
6
CONTINUOUS
10
111.055
20
-73.6645
11
111.003
21
-73.5336
0
LINE
8
BLACK
6
CONTINUOUS
10
111.003
20
-73.5336
11
110.998
21
-73.3926
0
LINE
8
BLACK
6
CONTINUOUS
10
110.998
20
-73.3926
11
111.042
21
-73.2586
0
LINE
8
BLACK
6
CONTINUOUS
10
111.042
20
-73.2586
11
111.129
21
-73.1476
0
LINE
8
BLACK
6
CONTINUOUS
10
111.129
20
-73.1476
11
111.249
21
-73.0731
0
LINE
8
BLACK
6
CONTINUOUS
10
111.249
20
-73.0731
11
111.352
21
-73.0514
0
LINE
8
BLACK
6
CONTINUOUS
10
111.352
20
-73.0514
11
112.95
21
-72.999
0
LINE
8
BLACK
6
CONTINUOUS
10
112.95
20
-72.999
11
112.95
21
-71.85
0
LINE
8
BLACK
6
CONTINUOUS
10
112.95
20
-71.85
11
112.95
21
-71.85
0
LINE
8
BLACK
6
CONTINUOUS
10
112.95
20
-71.85
11
112.95
21
-64.85
0
LINE
8
BLACK
6
CONTINUOUS
10
112.95
20
-64.85
11
99.95
21
-64.85
0
LINE
8
BLACK
6
CONTINUOUS
10
99.95
20
-64.85
11
99.95
21
-77.85
0
LINE
8
BLACK
6
CONTINUOUS
10
99.95
20
-77.85
11
118.95
21
-77.85
0
LINE
8
BLACK
6
CONTINUOUS
10
118.95
20
-77.85
11
118.95
21
-58.85
0
LINE
8
BLACK
6
CONTINUOUS
10
118.95
20
-58.85
11
93.95
21
-58.85
0
LINE
8
BLACK
6
CONTINUOUS
10
93.95
20
-58.85
11
93.95
21
-83.85
0
LINE
8
BLACK
6
CONTINUOUS
10
93.95
20
-83.85
11
124.95
21
-83.85
0
LINE
8
BLACK
6
CONTINUOUS
10
124.95
20
-83.85
11
124.95
21
-52.85
0
LINE
8
BLACK
6
CONTINUOUS
10
124.95
20
-52.85
11
87.95
21
-52.85
0
LINE
8
BLACK
6
CONTINUOUS
10
87.95
20
-52.85
11
87.95
21
-89.85
0
LINE
8
BLACK
6
CONTINUOUS
10
87.95
20
-89.85
11
127.95
21
-89.85
0
LINE
8
BLACK
6
CONTINUOUS
10
127.95
20
-89.85
11
127.95
21
-92.85
0
LINE
8
BLACK
6
CONTINUOUS
10
127.95
20
-92.85
11
127.438
21
-92.85
0
LINE
8
BLACK
6
CONTINUOUS
10
127.438
20
-92.85
11
128.709
21
-96.25
0
LINE
8
BLACK
6
CONTINUOUS
10
128.709
20
-96.25
11
129.45
21
-96.25
0
LINE
8
BLACK
6
CONTINUOUS
10
129.45
20
-96.25
11
129.45
21
-97.95
0
LINE
8
BLACK
6
CONTINUOUS
10
129.45
20
-97.95
11
128.671
21
-97.95
0
LINE
8
BLACK
6
CONTINUOUS
10
128.671
20
-97.95
11
127.318
21
-101.106
0
LINE
8
BLACK
6
CONTINUOUS
10
127.318
20
-101.106
11
127.292
21
-101.169
0
LINE
8
BLACK
6
CONTINUOUS
10
127.292
20
-101.169
11
127.267
21
-101.197
0
LINE
8
BLACK
6
CONTINUOUS
10
127.267
20
-101.197
11
127.246
21
-101.228
0
LINE
8
BLACK
6
CONTINUOUS
10
127.246
20
-101.228
11
127.219
21
-101.248
0
LINE
8
BLACK
6
CONTINUOUS
10
127.219
20
-101.248
11
127.196
21
-101.273
0
LINE
8
BLACK
6
CONTINUOUS
10
127.196
20
-101.273
11
127.163
21
-101.29
0
LINE
8
BLACK
6
CONTINUOUS
10
127.163
20
-101.29
11
127.133
21
-101.313
0
LINE
8
BLACK
6
CONTINUOUS
10
127.133
20
-101.313
11
127.068
21
-101.332
0
LINE
8
BLACK
6
CONTINUOUS
10
127.068
20
-101.332
11
125
21
-101.978
0
LINE
8
BLACK
6
CONTINUOUS
10
125
20
-101.978
11
125
21
-102.1
0
LINE
8
BLACK
6
CONTINUOUS
10
125
20
-102.1
11
124.576
21
-102.1
0
LINE
8
BLACK
6
CONTINUOUS
10
124.576
20
-102.1
11
124.531
21
-102.106
0
LINE
8
BLACK
6
CONTINUOUS
10
124.531
20
-102.106
11
124.506
21
-102.1
0
LINE
8
BLACK
6
CONTINUOUS
10
124.506
20
-102.1
11
124.1
21
-102.1
0
LINE
8
BLACK
6
CONTINUOUS
10
124.1
20
-102.1
11
124.1
21
-101.3
0
LINE
8
BLACK
6
CONTINUOUS
10
124.1
20
-101.3
11
124.489
21
-101.3
0
LINE
8
BLACK
6
CONTINUOUS
10
124.489
20
-101.3
11
126.655
21
-100.623
0
LINE
8
BLACK
6
CONTINUOUS
10
126.655
20
-100.623
11
127.801
21
-97.95
0
LINE
8
BLACK
6
CONTINUOUS
10
127.801
20
-97.95
11
127.75
21
-97.95
0
LINE
8
BLACK
6
CONTINUOUS
10
127.75
20
-97.95
11
127.75
21
-96.25
0
LINE
8
BLACK
6
CONTINUOUS
10
127.75
20
-96.25
11
127.855
21
-96.25
0
LINE
8
BLACK
6
CONTINUOUS
10
127.855
20
-96.25
11
126.584
21
-92.85
0
LINE
8
BLACK
6
CONTINUOUS
10
126.584
20
-92.85
11
86.3188
21
-92.85
0
LINE
8
BLACK
6
CONTINUOUS
10
86.3188
20
-92.85
11
86.3188
21
-92.85
0
LINE
8
BLACK
6
CONTINUOUS
10
86.3188
20
-92.85
11
86.1855
21
-92.85
0
LINE
8
BLACK
6
CONTINUOUS
10
86.1855
20
-92.85
11
86.0603
21
-92.8044
0
LINE
8
BLACK
6
CONTINUOUS
10
86.0603
20
-92.8044
11
85.9291
21
-92.7813
0
LINE
8
BLACK
6
CONTINUOUS
10
85.9291
20
-92.7813
11
85.8137
21
-92.7147
0
LINE
8
BLACK
6
CONTINUOUS
10
85.8137
20
-92.7147
11
85.6884
21
-92.6691
0
LINE
8
BLACK
6
CONTINUOUS
10
85.6884
20
-92.6691
11
85.5863
21
-92.5834
0
LINE
8
BLACK
6
CONTINUOUS
10
85.5863
20
-92.5834
11
85.4709
21
-92.5168
0
LINE
8
BLACK
6
CONTINUOUS
10
85.4709
20
-92.5168
11
85.3853
21
-92.4147
0
LINE
8
BLACK
6
CONTINUOUS
10
85.3853
20
-92.4147
11
85.2832
21
-92.3291
0
LINE
8
BLACK
6
CONTINUOUS
10
85.2832
20
-92.3291
11
85.2166
21
-92.2137
0
LINE
8
BLACK
6
CONTINUOUS
10
85.2166
20
-92.2137
11
85.1309
21
-92.1116
0
LINE
8
BLACK
6
CONTINUOUS
10
85.1309
20
-92.1116
11
85.0853
21
-91.9863
0
LINE
8
BLACK
6
CONTINUOUS
10
85.0853
20
-91.9863
11
85.0187
21
-91.8709
0
LINE
8
BLACK
6
CONTINUOUS
10
85.0187
20
-91.8709
11
84.9956
21
-91.7397
0
LINE
8
BLACK
6
CONTINUOUS
10
84.9956
20
-91.7397
11
84.95
21
-91.6145
0
LINE
8
BLACK
6
CONTINUOUS
10
84.95
20
-91.6145
11
84.95
21
-91.4812
0
LINE
8
BLACK
6
CONTINUOUS
10
84.95
20
-91.4812
11
84.95
21
-91.4812
0
LINE
8
BLACK
6
CONTINUOUS
10
84.95
20
-91.4812
11
84.95
21
-51.2188
0
LINE
8
BLACK
6
CONTINUOUS
10
84.95
20
-51.2188
11
84.95
21
-51.0855
0
LINE
8
BLACK
6
CONTINUOUS
10
84.95
20
-51.0855
11
84.9956
21
-50.9603
0
LINE
8
BLACK
6
CONTINUOUS
10
84.9956
20
-50.9603
11
85.0187
21
-50.8291
0
LINE
8
BLACK
6
CONTINUOUS
10
85.0187
20
-50.8291
11
85.0853
21
-50.7137
0
LINE
8
BLACK
6
CONTINUOUS
10
85.0853
20
-50.7137
11
85.1309
21
-50.5884
0
LINE
8
BLACK
6
CONTINUOUS
10
85.1309
20
-50.5884
11
85.2166
21
-50.4863
0
LINE
8
BLACK
6
CONTINUOUS
10
85.2166
20
-50.4863
11
85.2832
21
-50.3709
0
LINE
8
BLACK
6
CONTINUOUS
10
85.2832
20
-50.3709
11
85.3853
21
-50.2853
0
LINE
8
BLACK
6
CONTINUOUS
10
85.3853
20
-50.2853
11
85.4709
21
-50.1832
0
LINE
8
BLACK
6
CONTINUOUS
10
85.4709
20
-50.1832
11
85.5864
21
-50.1166
0
LINE
8
BLACK
6
CONTINUOUS
10
85.5864
20
-50.1166
11
85.6884
21
-50.0309
0
LINE
8
BLACK
6
CONTINUOUS
10
85.6884
20
-50.0309
11
85.8137
21
-49.9853
0
LINE
8
BLACK
6
CONTINUOUS
10
85.8137
20
-49.9853
11
85.9291
21
-49.9187
0
LINE
8
BLACK
6
CONTINUOUS
10
85.9291
20
-49.9187
11
86.0603
21
-49.8956
0
LINE
8
BLACK
6
CONTINUOUS
10
86.0603
20
-49.8956
11
86.1855
21
-49.85
0
LINE
8
BLACK
6
CONTINUOUS
10
86.1855
20
-49.85
11
86.3188
21
-49.85
0
LINE
8
BLACK
6
CONTINUOUS
10
86.3188
20
-49.85
11
86.3188
21
-49.85
0
LINE
8
BLACK
6
CONTINUOUS
10
86.3188
20
-49.85
11
126.581
21
-49.85
0
LINE
8
BLACK
6
CONTINUOUS
10
126.581
20
-49.85
11
126.581
21
-49.85
0
LINE
8
BLACK
6
CONTINUOUS
10
126.581
20
-49.85
11
126.714
21
-49.85
0
LINE
8
BLACK
6
CONTINUOUS
10
126.714
20
-49.85
11
126.84
21
-49.8956
0
LINE
8
BLACK
6
CONTINUOUS
10
126.84
20
-49.8956
11
126.971
21
-49.9187
0
LINE
8
BLACK
6
CONTINUOUS
10
126.971
20
-49.9187
11
127.086
21
-49.9853
0
LINE
8
BLACK
6
CONTINUOUS
10
127.086
20
-49.9853
11
127.212
21
-50.0309
0
LINE
8
BLACK
6
CONTINUOUS
10
127.212
20
-50.0309
11
127.314
21
-50.1166
0
LINE
8
BLACK
6
CONTINUOUS
10
127.314
20
-50.1166
11
127.429
21
-50.1832
0
LINE
8
BLACK
6
CONTINUOUS
10
127.429
20
-50.1832
11
127.515
21
-50.2853
0
LINE
8
BLACK
6
CONTINUOUS
10
127.515
20
-50.2853
11
127.617
21
-50.3709
0
LINE
8
BLACK
6
CONTINUOUS
10
127.617
20
-50.3709
11
127.683
21
-50.4863
0
LINE
8
BLACK
6
CONTINUOUS
10
127.683
20
-50.4863
11
127.769
21
-50.5884
0
LINE
8
BLACK
6
CONTINUOUS
10
127.769
20
-50.5884
11
127.815
21
-50.7137
0
LINE
8
BLACK
6
CONTINUOUS
10
127.815
20
-50.7137
11
127.881
21
-50.8291
0
LINE
8
BLACK
6
CONTINUOUS
10
127.881
20
-50.8291
11
127.904
21
-50.9603
0
LINE
8
BLACK
6
CONTINUOUS
10
127.904
20
-50.9603
11
127.95
21
-51.0855
0
LINE
8
BLACK
6
CONTINUOUS
10
127.95
20
-51.0855
11
127.95
21
-51.2188
0
LINE
8
BLACK
6
CONTINUOUS
10
127.95
20
-51.2188
11
127.95
21
-51.2188
0
LINE
8
BLACK
6
CONTINUOUS
10
127.95
20
-51.2188
11
127.95
21
-85.4812
0
LINE
8
BLACK
6
CONTINUOUS
10
127.95
20
-85.4812
11
127.95
21
-85.4812
0
LINE
8
BLACK
6
CONTINUOUS
10
127.95
20
-85.4812
11
127.95
21
-85.6145
0
LINE
8
BLACK
6
CONTINUOUS
10
127.95
20
-85.6145
11
127.904
21
-85.7397
0
LINE
8
BLACK
6
CONTINUOUS
10
127.904
20
-85.7397
11
127.881
21
-85.8709
0
LINE
8
BLACK
6
CONTINUOUS
10
127.881
20
-85.8709
11
127.815
21
-85.9863
0
LINE
8
BLACK
6
CONTINUOUS
10
127.815
20
-85.9863
11
127.769
21
-86.1116
0
LINE
8
BLACK
6
CONTINUOUS
10
127.769
20
-86.1116
11
127.683
21
-86.2137
0
LINE
8
BLACK
6
CONTINUOUS
10
127.683
20
-86.2137
11
127.617
21
-86.3291
0
LINE
8
BLACK
6
CONTINUOUS
10
127.617
20
-86.3291
11
127.515
21
-86.4147
0
LINE
8
BLACK
6
CONTINUOUS
10
127.515
20
-86.4147
11
127.429
21
-86.5168
0
LINE
8
BLACK
6
CONTINUOUS
10
127.429
20
-86.5168
11
127.314
21
-86.5834
0
LINE
8
BLACK
6
CONTINUOUS
10
127.314
20
-86.5834
11
127.212
21
-86.6691
0
LINE
8
BLACK
6
CONTINUOUS
10
127.212
20
-86.6691
11
127.086
21
-86.7147
0
LINE
8
BLACK
6
CONTINUOUS
10
127.086
20
-86.7147
11
126.971
21
-86.7813
0
LINE
8
BLACK
6
CONTINUOUS
10
126.971
20
-86.7813
11
126.84
21
-86.8044
0
LINE
8
BLACK
6
CONTINUOUS
10
126.84
20
-86.8044
11
126.714
21
-86.85
0
LINE
8
BLACK
6
CONTINUOUS
10
126.714
20
-86.85
11
126.581
21
-86.85
0
LINE
8
BLACK
6
CONTINUOUS
10
126.581
20
-86.85
11
126.581
21
-86.85
0
LINE
8
BLACK
6
CONTINUOUS
10
126.581
20
-86.85
11
92.3188
21
-86.85
0
LINE
8
BLACK
6
CONTINUOUS
10
92.3188
20
-86.85
11
92.3188
21
-86.85
0
LINE
8
BLACK
6
CONTINUOUS
10
92.3188
20
-86.85
11
92.1855
21
-86.85
0
LINE
8
BLACK
6
CONTINUOUS
10
92.1855
20
-86.85
11
92.0603
21
-86.8044
0
LINE
8
BLACK
6
CONTINUOUS
10
92.0603
20
-86.8044
11
91.9291
21
-86.7813
0
LINE
8
BLACK
6
CONTINUOUS
10
91.9291
20
-86.7813
11
91.8137
21
-86.7147
0
LINE
8
BLACK
6
CONTINUOUS
10
91.8137
20
-86.7147
11
91.6884
21
-86.6691
0
LINE
8
BLACK
6
CONTINUOUS
10
91.6884
20
-86.6691
11
91.5863
21
-86.5834
0
LINE
8
BLACK
6
CONTINUOUS
10
91.5863
20
-86.5834
11
91.4709
21
-86.5168
0
LINE
8
BLACK
6
CONTINUOUS
10
91.4709
20
-86.5168
11
91.3853
21
-86.4147
0
LINE
8
BLACK
6
CONTINUOUS
10
91.3853
20
-86.4147
11
91.2832
21
-86.3291
0
LINE
8
BLACK
6
CONTINUOUS
10
91.2832
20
-86.3291
11
91.2166
21
-86.2137
0
LINE
8
BLACK
6
CONTINUOUS
10
91.2166
20
-86.2137
11
91.1309
21
-86.1116
0
LINE
8
BLACK
6
CONTINUOUS
10
91.1309
20
-86.1116
11
91.0853
21
-85.9863
0
LINE
8
BLACK
6
CONTINUOUS
10
91.0853
20
-85.9863
11
91.0187
21
-85.8709
0
LINE
8
BLACK
6
CONTINUOUS
10
91.0187
20
-85.8709
11
90.9956
21
-85.7397
0
LINE
8
BLACK
6
CONTINUOUS
10
90.9956
20
-85.7397
11
90.95
21
-85.6145
0
LINE
8
BLACK
6
CONTINUOUS
10
90.95
20
-85.6145
11
90.95
21
-85.4812
0
LINE
8
BLACK
6
CONTINUOUS
10
90.95
20
-85.4812
11
90.95
21
-85.4812
0
LINE
8
BLACK
6
CONTINUOUS
10
90.95
20
-85.4812
11
90.95
21
-57.2188
0
LINE
8
BLACK
6
CONTINUOUS
10
90.95
20
-57.2188
11
90.95
21
-57.0855
0
LINE
8
BLACK
6
CONTINUOUS
10
90.95
20
-57.0855
11
90.9956
21
-56.9603
0
LINE
8
BLACK
6
CONTINUOUS
10
90.9956
20
-56.9603
11
91.0187
21
-56.8291
0
LINE
8
BLACK
6
CONTINUOUS
10
91.0187
20
-56.8291
11
91.0853
21
-56.7137
0
LINE
8
BLACK
6
CONTINUOUS
10
91.0853
20
-56.7137
11
91.1309
21
-56.5884
0
LINE
8
BLACK
6
CONTINUOUS
10
91.1309
20
-56.5884
11
91.2166
21
-56.4863
0
LINE
8
BLACK
6
CONTINUOUS
10
91.2166
20
-56.4863
11
91.2832
21
-56.3709
0
LINE
8
BLACK
6
CONTINUOUS
10
91.2832
20
-56.3709
11
91.3853
21
-56.2853
0
LINE
8
BLACK
6
CONTINUOUS
10
91.3853
20
-56.2853
11
91.4709
21
-56.1832
0
LINE
8
BLACK
6
CONTINUOUS
10
91.4709
20
-56.1832
11
91.5864
21
-56.1166
0
LINE
8
BLACK
6
CONTINUOUS
10
91.5864
20
-56.1166
11
91.6884
21
-56.0309
0
LINE
8
BLACK
6
CONTINUOUS
10
91.6884
20
-56.0309
11
91.8137
21
-55.9853
0
LINE
8
BLACK
6
CONTINUOUS
10
91.8137
20
-55.9853
11
91.9291
21
-55.9187
0
LINE
8
BLACK
6
CONTINUOUS
10
91.9291
20
-55.9187
11
92.0603
21
-55.8956
0
LINE
8
BLACK
6
CONTINUOUS
10
92.0603
20
-55.8956
11
92.1855
21
-55.85
0
LINE
8
BLACK
6
CONTINUOUS
10
92.1855
20
-55.85
11
92.3188
21
-55.85
0
LINE
8
BLACK
6
CONTINUOUS
10
92.3188
20
-55.85
11
92.3188
21
-55.85
0
LINE
8
BLACK
6
CONTINUOUS
10
92.3188
20
-55.85
11
120.581
21
-55.85
0
LINE
8
BLACK
6
CONTINUOUS
10
120.581
20
-55.85
11
120.581
21
-55.85
0
LINE
8
BLACK
6
CONTINUOUS
10
120.581
20
-55.85
11
120.714
21
-55.85
0
LINE
8
BLACK
6
CONTINUOUS
10
120.714
20
-55.85
11
120.84
21
-55.8956
0
LINE
8
BLACK
6
CONTINUOUS
10
120.84
20
-55.8956
11
120.971
21
-55.9187
0
LINE
8
BLACK
6
CONTINUOUS
10
120.971
20
-55.9187
11
121.086
21
-55.9853
0
LINE
8
BLACK
6
CONTINUOUS
10
121.086
20
-55.9853
11
121.212
21
-56.0309
0
LINE
8
BLACK
6
CONTINUOUS
10
121.212
20
-56.0309
11
121.314
21
-56.1166
0
LINE
8
BLACK
6
CONTINUOUS
10
121.314
20
-56.1166
11
121.429
21
-56.1832
0
LINE
8
BLACK
6
CONTINUOUS
10
121.429
20
-56.1832
11
121.515
21
-56.2853
0
LINE
8
BLACK
6
CONTINUOUS
10
121.515
20
-56.2853
11
121.617
21
-56.3709
0
LINE
8
BLACK
6
CONTINUOUS
10
121.617
20
-56.3709
11
121.683
21
-56.4863
0
LINE
8
BLACK
6
CONTINUOUS
10
121.683
20
-56.4863
11
121.769
21
-56.5884
0
LINE
8
BLACK
6
CONTINUOUS
10
121.769
20
-56.5884
11
121.815
21
-56.7137
0
LINE
8
BLACK
6
CONTINUOUS
10
121.815
20
-56.7137
11
121.881
21
-56.8291
0
LINE
8
BLACK
6
CONTINUOUS
10
121.881
20
-56.8291
11
121.904
21
-56.9603
0
LINE
8
BLACK
6
CONTINUOUS
10
121.904
20
-56.9603
11
121.95
21
-57.0855
0
LINE
8
BLACK
6
CONTINUOUS
10
121.95
20
-57.0855
11
121.95
21
-57.2188
0
LINE
8
BLACK
6
CONTINUOUS
10
121.95
20
-57.2188
11
121.95
21
-57.2188
0
LINE
8
BLACK
6
CONTINUOUS
10
121.95
20
-57.2188
11
121.95
21
-79.4812
0
LINE
8
BLACK
6
CONTINUOUS
10
121.95
20
-79.4812
11
121.95
21
-79.4812
0
LINE
8
BLACK
6
CONTINUOUS
10
121.95
20
-79.4812
11
121.95
21
-79.6145
0
LINE
8
BLACK
6
CONTINUOUS
10
121.95
20
-79.6145
11
121.904
21
-79.7397
0
LINE
8
BLACK
6
CONTINUOUS
10
121.904
20
-79.7397
11
121.881
21
-79.8709
0
LINE
8
BLACK
6
CONTINUOUS
10
121.881
20
-79.8709
11
121.815
21
-79.9863
0
LINE
8
BLACK
6
CONTINUOUS
10
121.815
20
-79.9863
11
121.769
21
-80.1116
0
LINE
8
BLACK
6
CONTINUOUS
10
121.769
20
-80.1116
11
121.683
21
-80.2137
0
LINE
8
BLACK
6
CONTINUOUS
10
121.683
20
-80.2137
11
121.617
21
-80.3291
0
LINE
8
BLACK
6
CONTINUOUS
10
121.617
20
-80.3291
11
121.515
21
-80.4147
0
LINE
8
BLACK
6
CONTINUOUS
10
121.515
20
-80.4147
11
121.429
21
-80.5168
0
LINE
8
BLACK
6
CONTINUOUS
10
121.429
20
-80.5168
11
121.314
21
-80.5834
0
LINE
8
BLACK
6
CONTINUOUS
10
121.314
20
-80.5834
11
121.212
21
-80.6691
0
LINE
8
BLACK
6
CONTINUOUS
10
121.212
20
-80.6691
11
121.086
21
-80.7147
0
LINE
8
BLACK
6
CONTINUOUS
10
121.086
20
-80.7147
11
120.971
21
-80.7813
0
LINE
8
BLACK
6
CONTINUOUS
10
120.971
20
-80.7813
11
120.84
21
-80.8044
0
LINE
8
BLACK
6
CONTINUOUS
10
120.84
20
-80.8044
11
120.714
21
-80.85
0
LINE
8
BLACK
6
CONTINUOUS
10
120.714
20
-80.85
11
120.581
21
-80.85
0
LINE
8
BLACK
6
CONTINUOUS
10
120.581
20
-80.85
11
120.581
21
-80.85
0
LINE
8
BLACK
6
CONTINUOUS
10
120.581
20
-80.85
11
98.3188
21
-80.85
0
LINE
8
BLACK
6
CONTINUOUS
10
98.3188
20
-80.85
11
98.3188
21
-80.85
0
LINE
8
BLACK
6
CONTINUOUS
10
98.3188
20
-80.85
11
98.1855
21
-80.85
0
LINE
8
BLACK
6
CONTINUOUS
10
98.1855
20
-80.85
11
98.0603
21
-80.8044
0
LINE
8
BLACK
6
CONTINUOUS
10
98.0603
20
-80.8044
11
97.9291
21
-80.7813
0
LINE
8
BLACK
6
CONTINUOUS
10
97.9291
20
-80.7813
11
97.8137
21
-80.7147
0
LINE
8
BLACK
6
CONTINUOUS
10
97.8137
20
-80.7147
11
97.6884
21
-80.6691
0
LINE
8
BLACK
6
CONTINUOUS
10
97.6884
20
-80.6691
11
97.5863
21
-80.5834
0
LINE
8
BLACK
6
CONTINUOUS
10
97.5863
20
-80.5834
11
97.4709
21
-80.5168
0
LINE
8
BLACK
6
CONTINUOUS
10
97.4709
20
-80.5168
11
97.3853
21
-80.4147
0
LINE
8
BLACK
6
CONTINUOUS
10
97.3853
20
-80.4147
11
97.2832
21
-80.3291
0
LINE
8
BLACK
6
CONTINUOUS
10
97.2832
20
-80.3291
11
97.2166
21
-80.2137
0
LINE
8
BLACK
6
CONTINUOUS
10
97.2166
20
-80.2137
11
97.1309
21
-80.1116
0
LINE
8
BLACK
6
CONTINUOUS
10
97.1309
20
-80.1116
11
97.0853
21
-79.9863
0
LINE
8
BLACK
6
CONTINUOUS
10
97.0853
20
-79.9863
11
97.0187
21
-79.8709
0
LINE
8
BLACK
6
CONTINUOUS
10
97.0187
20
-79.8709
11
96.9956
21
-79.7397
0
LINE
8
BLACK
6
CONTINUOUS
10
96.9956
20
-79.7397
11
96.95
21
-79.6145
0
LINE
8
BLACK
6
CONTINUOUS
10
96.95
20
-79.6145
11
96.95
21
-79.4812
0
LINE
8
BLACK
6
CONTINUOUS
10
96.95
20
-79.4812
11
96.95
21
-79.4812
0
LINE
8
BLACK
6
CONTINUOUS
10
96.95
20
-79.4812
11
96.95
21
-63.2188
0
LINE
8
BLACK
6
CONTINUOUS
10
96.95
20
-63.2188
11
96.95
21
-63.0855
0
LINE
8
BLACK
6
CONTINUOUS
10
96.95
20
-63.0855
11
96.9956
21
-62.9603
0
LINE
8
BLACK
6
CONTINUOUS
10
96.9956
20
-62.9603
11
97.0187
21
-62.8291
0
LINE
8
BLACK
6
CONTINUOUS
10
97.0187
20
-62.8291
11
97.0853
21
-62.7137
0
LINE
8
BLACK
6
CONTINUOUS
10
97.0853
20
-62.7137
11
97.1309
21
-62.5884
0
LINE
8
BLACK
6
CONTINUOUS
10
97.1309
20
-62.5884
11
97.2166
21
-62.4863
0
LINE
8
BLACK
6
CONTINUOUS
10
97.2166
20
-62.4863
11
97.2832
21
-62.3709
0
LINE
8
BLACK
6
CONTINUOUS
10
97.2832
20
-62.3709
11
97.3853
21
-62.2853
0
LINE
8
BLACK
6
CONTINUOUS
10
97.3853
20
-62.2853
11
97.4709
21
-62.1832
0
LINE
8
BLACK
6
CONTINUOUS
10
97.4709
20
-62.1832
11
97.5864
21
-62.1166
0
LINE
8
BLACK
6
CONTINUOUS
10
97.5864
20
-62.1166
11
97.6884
21
-62.0309
0
LINE
8
BLACK
6
CONTINUOUS
10
97.6884
20
-62.0309
11
97.8137
21
-61.9853
0
LINE
8
BLACK
6
CONTINUOUS
10
97.8137
20
-61.9853
11
97.9291
21
-61.9187
0
LINE
8
BLACK
6
CONTINUOUS
10
97.9291
20
-61.9187
11
98.0603
21
-61.8956
0
LINE
8
BLACK
6
CONTINUOUS
10
98.0603
20
-61.8956
11
98.1855
21
-61.85
0
LINE
8
BLACK
6
CONTINUOUS
10
98.1855
20
-61.85
11
98.3188
21
-61.85
0
LINE
8
BLACK
6
CONTINUOUS
10
98.3188
20
-61.85
11
98.3188
21
-61.85
0
LINE
8
BLACK
6
CONTINUOUS
10
98.3188
20
-61.85
11
114.581
21
-61.85
0
LINE
8
BLACK
6
CONTINUOUS
10
114.581
20
-61.85
11
114.581
21
-61.85
0
LINE
8
BLACK
6
CONTINUOUS
10
114.581
20
-61.85
11
114.714
21
-61.85
0
LINE
8
BLACK
6
CONTINUOUS
10
114.714
20
-61.85
11
114.84
21
-61.8956
0
LINE
8
BLACK
6
CONTINUOUS
10
114.84
20
-61.8956
11
114.971
21
-61.9187
0
LINE
8
BLACK
6
CONTINUOUS
10
114.971
20
-61.9187
11
115.086
21
-61.9853
0
LINE
8
BLACK
6
CONTINUOUS
10
115.086
20
-61.9853
11
115.212
21
-62.0309
0
LINE
8
BLACK
6
CONTINUOUS
10
115.212
20
-62.0309
11
115.314
21
-62.1166
0
LINE
8
BLACK
6
CONTINUOUS
10
115.314
20
-62.1166
11
115.429
21
-62.1832
0
LINE
8
BLACK
6
CONTINUOUS
10
115.429
20
-62.1832
11
115.515
21
-62.2853
0
LINE
8
BLACK
6
CONTINUOUS
10
115.515
20
-62.2853
11
115.617
21
-62.3709
0
LINE
8
BLACK
6
CONTINUOUS
10
115.617
20
-62.3709
11
115.683
21
-62.4863
0
LINE
8
BLACK
6
CONTINUOUS
10
115.683
20
-62.4863
11
115.769
21
-62.5884
0
LINE
8
BLACK
6
CONTINUOUS
10
115.769
20
-62.5884
11
115.815
21
-62.7137
0
LINE
8
BLACK
6
CONTINUOUS
10
115.815
20
-62.7137
11
115.881
21
-62.8291
0
LINE
8
BLACK
6
CONTINUOUS
10
115.881
20
-62.8291
11
115.904
21
-62.9603
0
LINE
8
BLACK
6
CONTINUOUS
10
115.904
20
-62.9603
11
115.95
21
-63.0855
0
LINE
8
BLACK
6
CONTINUOUS
10
115.95
20
-63.0855
11
115.95
21
-63.2188
0
LINE
8
BLACK
6
CONTINUOUS
10
115.95
20
-63.2188
11
115.95
21
-63.2188
0
LINE
8
BLACK
6
CONTINUOUS
10
115.95
20
-63.2188
11
115.95
21
-74.85
0
LINE
8
BLACK
6
CONTINUOUS
10
115.95
20
-74.85
11
112.95
21
-74.85
0
LINE
8
BLACK
6
CONTINUOUS
10
121.1
20
-101.4
11
119.6
21
-101.4
0
LINE
8
BLACK
6
CONTINUOUS
10
119.6
20
-101.4
11
119.6
21
-100.1
0
LINE
8
BLACK
6
CONTINUOUS
10
119.6
20
-100.1
11
119.926
21
-100.1
0
LINE
8
BLACK
6
CONTINUOUS
10
119.926
20
-100.1
11
119.873
21
-98.675
0
LINE
8
BLACK
6
CONTINUOUS
10
119.873
20
-98.675
11
119.5
21
-98.675
0
LINE
8
BLACK
6
CONTINUOUS
10
119.5
20
-98.675
11
119.5
21
-97.425
0
LINE
8
BLACK
6
CONTINUOUS
10
119.5
20
-97.425
11
121
21
-97.425
0
LINE
8
BLACK
6
CONTINUOUS
10
121
20
-97.425
11
121
21
-98.675
0
LINE
8
BLACK
6
CONTINUOUS
10
121
20
-98.675
11
120.673
21
-98.675
0
LINE
8
BLACK
6
CONTINUOUS
10
120.673
20
-98.675
11
120.726
21
-100.1
0
LINE
8
BLACK
6
CONTINUOUS
10
120.726
20
-100.1
11
121.1
21
-100.1
0
LINE
8
BLACK
6
CONTINUOUS
10
121.1
20
-100.1
11
121.1
21
-100.35
0
LINE
8
BLACK
6
CONTINUOUS
10
121.1
20
-100.35
11
122.495
21
-100.35
0
LINE
8
BLACK
6
CONTINUOUS
10
122.495
20
-100.35
11
124.215
21
-99.8649
0
LINE
8
BLACK
6
CONTINUOUS
10
124.215
20
-99.8649
11
124.757
21
-98.7
0
LINE
8
BLACK
6
CONTINUOUS
10
124.757
20
-98.7
11
124.75
21
-98.7
0
LINE
8
BLACK
6
CONTINUOUS
10
124.75
20
-98.7
11
124.75
21
-97.4
0
LINE
8
BLACK
6
CONTINUOUS
10
124.75
20
-97.4
11
126.25
21
-97.4
0
LINE
8
BLACK
6
CONTINUOUS
10
126.25
20
-97.4
11
126.25
21
-98.7
0
LINE
8
BLACK
6
CONTINUOUS
10
126.25
20
-98.7
11
125.639
21
-98.7
0
LINE
8
BLACK
6
CONTINUOUS
10
125.639
20
-98.7
11
124.864
21
-100.367
0
LINE
8
BLACK
6
CONTINUOUS
10
124.864
20
-100.367
11
124.836
21
-100.429
0
LINE
8
BLACK
6
CONTINUOUS
10
124.836
20
-100.429
11
124.809
21
-100.456
0
LINE
8
BLACK
6
CONTINUOUS
10
124.809
20
-100.456
11
124.787
21
-100.487
0
LINE
8
BLACK
6
CONTINUOUS
10
124.787
20
-100.487
11
124.76
21
-100.506
0
LINE
8
BLACK
6
CONTINUOUS
10
124.76
20
-100.506
11
124.737
21
-100.53
0
LINE
8
BLACK
6
CONTINUOUS
10
124.737
20
-100.53
11
124.703
21
-100.546
0
LINE
8
BLACK
6
CONTINUOUS
10
124.703
20
-100.546
11
124.672
21
-100.568
0
LINE
8
BLACK
6
CONTINUOUS
10
124.672
20
-100.568
11
124.606
21
-100.586
0
LINE
8
BLACK
6
CONTINUOUS
10
124.606
20
-100.586
11
123
21
-101.039
0
LINE
8
BLACK
6
CONTINUOUS
10
123
20
-101.039
11
123
21
-101.15
0
LINE
8
BLACK
6
CONTINUOUS
10
123
20
-101.15
11
122.57
21
-101.15
0
LINE
8
BLACK
6
CONTINUOUS
10
122.57
20
-101.15
11
122.52
21
-101.155
0
LINE
8
BLACK
6
CONTINUOUS
10
122.52
20
-101.155
11
122.5
21
-101.15
0
LINE
8
BLACK
6
CONTINUOUS
10
122.5
20
-101.15
11
121.1
21
-101.15
0
LINE
8
BLACK
6
CONTINUOUS
10
121.1
20
-101.15
11
121.1
21
-101.4
0
LINE
8
BLACK
6
CONTINUOUS
10
114.29
20
-94.891
11
114.401
21
-94.9776
0
LINE
8
BLACK
6
CONTINUOUS
10
114.401
20
-94.9776
11
114.476
21
-95.0971
0
LINE
8
BLACK
6
CONTINUOUS
10
114.476
20
-95.0971
11
114.498
21
-95.2002
0
LINE
8
BLACK
6
CONTINUOUS
10
114.498
20
-95.2002
11
114.545
21
-96.45
0
LINE
8
BLACK
6
CONTINUOUS
10
114.545
20
-96.45
11
114.93
21
-96.45
0
LINE
8
BLACK
6
CONTINUOUS
10
114.93
20
-96.45
11
115.966
21
-95.4844
0
LINE
8
BLACK
6
CONTINUOUS
10
115.966
20
-95.4844
11
116.012
21
-95.43
0
LINE
8
BLACK
6
CONTINUOUS
10
116.012
20
-95.43
11
116.089
21
-95.3868
0
LINE
8
BLACK
6
CONTINUOUS
10
116.089
20
-95.3868
11
116.162
21
-95.3391
0
LINE
8
BLACK
6
CONTINUOUS
10
116.162
20
-95.3391
11
116.18
21
-95.3349
0
LINE
8
BLACK
6
CONTINUOUS
10
116.18
20
-95.3349
11
116.196
21
-95.3258
0
LINE
8
BLACK
6
CONTINUOUS
10
116.196
20
-95.3258
11
116.283
21
-95.3113
0
LINE
8
BLACK
6
CONTINUOUS
10
116.283
20
-95.3113
11
116.368
21
-95.2916
0
LINE
8
BLACK
6
CONTINUOUS
10
116.368
20
-95.2916
11
116.439
21
-95.3003
0
LINE
8
BLACK
6
CONTINUOUS
10
116.439
20
-95.3003
11
122.289
21
-95.3495
0
LINE
8
BLACK
6
CONTINUOUS
10
122.289
20
-95.3495
11
122.328
21
-95.3412
0
LINE
8
BLACK
6
CONTINUOUS
10
122.328
20
-95.3412
11
122.394
21
-95.3503
0
LINE
8
BLACK
6
CONTINUOUS
10
122.394
20
-95.3503
11
122.408
21
-95.3505
0
LINE
8
BLACK
6
CONTINUOUS
10
122.408
20
-95.3505
11
122.446
21
-95.3576
0
LINE
8
BLACK
6
CONTINUOUS
10
122.446
20
-95.3576
11
122.537
21
-95.3703
0
LINE
8
BLACK
6
CONTINUOUS
10
122.537
20
-95.3703
11
122.55
21
-95.3767
0
LINE
8
BLACK
6
CONTINUOUS
10
122.55
20
-95.3767
11
122.563
21
-95.3793
0
LINE
8
BLACK
6
CONTINUOUS
10
122.563
20
-95.3793
11
122.643
21
-95.4261
0
LINE
8
BLACK
6
CONTINUOUS
10
122.643
20
-95.4261
11
122.724
21
-95.4693
0
LINE
8
BLACK
6
CONTINUOUS
10
122.724
20
-95.4693
11
122.734
21
-95.4796
0
LINE
8
BLACK
6
CONTINUOUS
10
122.734
20
-95.4796
11
122.746
21
-95.4866
0
LINE
8
BLACK
6
CONTINUOUS
10
122.746
20
-95.4866
11
122.804
21
-95.5578
0
LINE
8
BLACK
6
CONTINUOUS
10
122.804
20
-95.5578
11
122.866
21
-95.6263
0
LINE
8
BLACK
6
CONTINUOUS
10
122.866
20
-95.6263
11
122.871
21
-95.6391
0
LINE
8
BLACK
6
CONTINUOUS
10
122.871
20
-95.6391
11
122.88
21
-95.6498
0
LINE
8
BLACK
6
CONTINUOUS
10
122.88
20
-95.6498
11
122.911
21
-95.7368
0
LINE
8
BLACK
6
CONTINUOUS
10
122.911
20
-95.7368
11
122.926
21
-95.773
0
LINE
8
BLACK
6
CONTINUOUS
10
122.926
20
-95.773
11
122.929
21
-95.7862
0
LINE
8
BLACK
6
CONTINUOUS
10
122.929
20
-95.7862
11
122.951
21
-95.8492
0
LINE
8
BLACK
6
CONTINUOUS
10
122.951
20
-95.8492
11
122.951
21
-95.8889
0
LINE
8
BLACK
6
CONTINUOUS
10
122.951
20
-95.8889
11
123.274
21
-97.4
0
LINE
8
BLACK
6
CONTINUOUS
10
123.274
20
-97.4
11
123.55
21
-97.4
0
LINE
8
BLACK
6
CONTINUOUS
10
123.55
20
-97.4
11
123.55
21
-98.7
0
LINE
8
BLACK
6
CONTINUOUS
10
123.55
20
-98.7
11
122.05
21
-98.7
0
LINE
8
BLACK
6
CONTINUOUS
10
122.05
20
-98.7
11
122.05
21
-97.4136
0
LINE
8
BLACK
6
CONTINUOUS
10
122.05
20
-97.4136
11
121.864
21
-96.5459
0
LINE
8
BLACK
6
CONTINUOUS
10
121.864
20
-96.5459
11
116.634
21
-96.502
0
LINE
8
BLACK
6
CONTINUOUS
10
116.634
20
-96.502
11
115.7
21
-97.3724
0
LINE
8
BLACK
6
CONTINUOUS
10
115.7
20
-97.3724
11
115.7
21
-99.45
0
LINE
8
BLACK
6
CONTINUOUS
10
115.7
20
-99.45
11
112.7
21
-99.45
0
LINE
8
BLACK
6
CONTINUOUS
10
112.7
20
-99.45
11
112.7
21
-96.45
0
LINE
8
BLACK
6
CONTINUOUS
10
112.7
20
-96.45
11
113.744
21
-96.45
0
LINE
8
BLACK
6
CONTINUOUS
10
113.744
20
-96.45
11
113.699
21
-95.2298
0
LINE
8
BLACK
6
CONTINUOUS
10
113.699
20
-95.2298
11
113.713
21
-95.1253
0
LINE
8
BLACK
6
CONTINUOUS
10
113.713
20
-95.1253
11
113.779
21
-95.0006
0
LINE
8
BLACK
6
CONTINUOUS
10
113.779
20
-95.0006
11
113.884
21
-94.906
0
LINE
8
BLACK
6
CONTINUOUS
10
113.884
20
-94.906
11
114.015
21
-94.8529
0
LINE
8
BLACK
6
CONTINUOUS
10
114.015
20
-94.8529
11
114.156
21
-94.8477
0
LINE
8
BLACK
6
CONTINUOUS
10
114.156
20
-94.8477
11
114.29
21
-94.891
0
LINE
8
BLACK
6
CONTINUOUS
10
167.6
20
-78.4
11
137.6
21
-78.4
0
LINE
8
BLACK
6
CONTINUOUS
10
137.6
20
-78.4
11
137.6
21
-64.0376
0
LINE
8
BLACK
6
CONTINUOUS
10
137.6
20
-64.0376
11
132.672
21
-64.0499
0
LINE
8
BLACK
6
CONTINUOUS
10
132.672
20
-64.0499
11
132.587
21
-64.056
0
LINE
8
BLACK
6
CONTINUOUS
10
132.587
20
-64.056
11
132.516
21
-64.0357
0
LINE
8
BLACK
6
CONTINUOUS
10
132.516
20
-64.0357
11
132.443
21
-64.023
0
LINE
8
BLACK
6
CONTINUOUS
10
132.443
20
-64.023
11
132.415
21
-64.0068
0
LINE
8
BLACK
6
CONTINUOUS
10
132.415
20
-64.0068
11
132.383
21
-63.9978
0
LINE
8
BLACK
6
CONTINUOUS
10
132.383
20
-63.9978
11
132.324
21
-63.9544
0
LINE
8
BLACK
6
CONTINUOUS
10
132.324
20
-63.9544
11
132.26
21
-63.9177
0
LINE
8
BLACK
6
CONTINUOUS
10
132.26
20
-63.9177
11
132.238
21
-63.8927
0
LINE
8
BLACK
6
CONTINUOUS
10
132.238
20
-63.8927
11
132.212
21
-63.8735
0
LINE
8
BLACK
6
CONTINUOUS
10
132.212
20
-63.8735
11
132.171
21
-63.8124
0
LINE
8
BLACK
6
CONTINUOUS
10
132.171
20
-63.8124
11
132.123
21
-63.7559
0
LINE
8
BLACK
6
CONTINUOUS
10
132.123
20
-63.7559
11
132.112
21
-63.7253
0
LINE
8
BLACK
6
CONTINUOUS
10
132.112
20
-63.7253
11
132.094
21
-63.6982
0
LINE
8
BLACK
6
CONTINUOUS
10
132.094
20
-63.6982
11
132.076
21
-63.6266
0
LINE
8
BLACK
6
CONTINUOUS
10
132.076
20
-63.6266
11
132.05
21
-63.5573
0
LINE
8
BLACK
6
CONTINUOUS
10
132.05
20
-63.5573
11
132.05
21
-63.5246
0
LINE
8
BLACK
6
CONTINUOUS
10
132.05
20
-63.5246
11
132.042
21
-63.4929
0
LINE
8
BLACK
6
CONTINUOUS
10
132.042
20
-63.4929
11
132.05
21
-63.4195
0
LINE
8
BLACK
6
CONTINUOUS
10
132.05
20
-63.4195
11
132.05
21
-63.3457
0
LINE
8
BLACK
6
CONTINUOUS
10
132.05
20
-63.3457
11
132.061
21
-63.315
0
LINE
8
BLACK
6
CONTINUOUS
10
132.061
20
-63.315
11
132.064
21
-63.2824
0
LINE
8
BLACK
6
CONTINUOUS
10
132.064
20
-63.2824
11
132.097
21
-63.2161
0
LINE
8
BLACK
6
CONTINUOUS
10
132.097
20
-63.2161
11
132.122
21
-63.1467
0
LINE
8
BLACK
6
CONTINUOUS
10
132.122
20
-63.1467
11
132.143
21
-63.1216
0
LINE
8
BLACK
6
CONTINUOUS
10
132.143
20
-63.1216
11
132.157
21
-63.0922
0
LINE
8
BLACK
6
CONTINUOUS
10
132.157
20
-63.0922
11
132.21
21
-63.0409
0
LINE
8
BLACK
6
CONTINUOUS
10
132.21
20
-63.0409
11
132.257
21
-62.9843
0
LINE
8
BLACK
6
CONTINUOUS
10
132.257
20
-62.9843
11
132.285
21
-62.9678
0
LINE
8
BLACK
6
CONTINUOUS
10
132.285
20
-62.9678
11
132.309
21
-62.9451
0
LINE
8
BLACK
6
CONTINUOUS
10
132.309
20
-62.9451
11
132.376
21
-62.9151
0
LINE
8
BLACK
6
CONTINUOUS
10
132.376
20
-62.9151
11
132.44
21
-62.878
0
LINE
8
BLACK
6
CONTINUOUS
10
132.44
20
-62.878
11
132.524
21
-62.863
0
LINE
8
BLACK
6
CONTINUOUS
10
132.524
20
-62.863
11
132.755
21
-62.8052
0
LINE
8
BLACK
6
CONTINUOUS
10
132.755
20
-62.8052
11
132.913
21
-62.794
0
LINE
8
BLACK
6
CONTINUOUS
10
132.913
20
-62.794
11
133.105
21
-62.8489
0
LINE
8
BLACK
6
CONTINUOUS
10
133.105
20
-62.8489
11
137.6
21
-62.8376
0
LINE
8
BLACK
6
CONTINUOUS
10
137.6
20
-62.8376
11
137.6
21
-48.4
0
LINE
8
BLACK
6
CONTINUOUS
10
137.6
20
-48.4
11
167.6
21
-48.4
0
LINE
8
BLACK
6
CONTINUOUS
10
167.6
20
-48.4
11
167.6
21
-78.4
  0
ENDSEC
  0
EOF
