<?xml version="1.0" encoding="UTF-8" standalone="no"?>
<!-- Created with Inkscape (http://www.inkscape.org/) -->

<svg
   xmlns:dc="http://purl.org/dc/elements/1.1/"
   xmlns:cc="http://creativecommons.org/ns#"
   xmlns:rdf="http://www.w3.org/1999/02/22-rdf-syntax-ns#"
   xmlns:svg="http://www.w3.org/2000/svg"
   xmlns="http://www.w3.org/2000/svg"
   xmlns:sodipodi="http://sodipodi.sourceforge.net/DTD/sodipodi-0.dtd"
   xmlns:inkscape="http://www.inkscape.org/namespaces/inkscape"
   version="1.1"
   id="svg834"
   xml:space="preserve"
   width="1122.6667"
   height="794.66669"
   viewBox="0 0 1122.6667 794.66669"
   sodipodi:docname="bug_radio-F.Cu_2ndversion.svg"
   inkscape:version="0.92.4 (5da689c313, 2019-01-14)"><metadata
     id="metadata840"><rdf:RDF><cc:Work
         rdf:about=""><dc:format>image/svg+xml</dc:format><dc:type
           rdf:resource="http://purl.org/dc/dcmitype/StillImage" /><dc:title></dc:title></cc:Work></rdf:RDF></metadata><defs
     id="defs838" /><sodipodi:namedview
     pagecolor="#ffffff"
     bordercolor="#666666"
     borderopacity="1"
     objecttolerance="10"
     gridtolerance="10"
     guidetolerance="10"
     inkscape:pageopacity="0"
     inkscape:pageshadow="2"
     inkscape:window-width="1918"
     inkscape:window-height="1178"
     id="namedview836"
     showgrid="false"
     inkscape:zoom="3.4738399"
     inkscape:cx="561.33337"
     inkscape:cy="397.33334"
     inkscape:window-x="0"
     inkscape:window-y="20"
     inkscape:window-maximized="1"
     inkscape:current-layer="g842" /><g
     id="g842"
     inkscape:groupmode="layer"
     inkscape:label="bug_radio-F.Cu"
     transform="matrix(0.0096,0,0,-0.0096,0,794.66667)"><path
       id="path952"
       transform="scale(1,-1)"
       style="fill:#2b0000;fill-opacity:1;stroke:#000000;stroke-width:0;stroke-linecap:butt;stroke-miterlimit:10;stroke-dasharray:none;stroke-dashoffset:6.37830019;stroke-opacity:1;paint-order:normal"
       d="m 45158.96,-42114.59 a 782.3078,733.87292 0 0 1 -782.308,733.873 782.3078,733.87292 0 0 1 -782.307,-733.873 782.3078,733.87292 0 0 1 782.307,-733.873 782.3078,733.87292 0 0 1 782.308,733.873 z m 7065.44,-15585.11 78.7,-19.7 m 7775.6,0 -7854.3,19.7 m -1712.6,16023.6 9783.5,-649.6 m -12047.3,59.1 2263.8,590.5 m -3149.6,-255.9 885.8,-334.6 m 1535.5,-4448.8 846.4,2263.7 m -649.6,1515.8 649.6,-1515.8 m -1594.5,1811.1 944.9,-295.3 m -5059,-2244.1 39.3,1063 m 98.5,-9685 -1200.8,39.3 m 4311,8858.3 177.2,826.8 m -2519.7,-846.5 2342.5,19.7 m -3208.7,787.4 866.2,-807.1 m -1063,2795.3 1535.4,196.8 m 19.7,-1082.6 39.4,-1063 m -59.1,2145.6 19.7,-1082.6 m 2696.8,-216.6 393.7,-846.4 m -1161.4,1063 767.7,-216.6 m -1633.8,216.6 h 866.1 m -905.5,-1063 39.4,1063 m -3681.1,-10748.1 c 0,-86.9 70.6,-157.5 157.5,-157.5 86.9,0 157.4,70.6 157.4,157.5 0,86.9 -70.5,157.5 -157.4,157.5 -86.9,0 -157.5,-70.6 -157.5,-157.5 z m 1063,8582.7 c 0,-86.9 70.6,-157.5 157.5,-157.5 86.9,0 157.4,70.6 157.4,157.5 0,86.9 -70.5,157.5 -157.4,157.5 -86.9,0 -157.5,-70.6 -157.5,-157.5 z m 9626,8759.8 v -11811 h 11811 v 11811 z M 50295.3,-44117 v -669.3 h 669.3 v 669.3 z m -2637.8,1929.1 v 511.8 h -590.6 v -511.8 z m -1063,0 v 511.8 h -590.6 v -511.8 z m 19.7,-1082.7 v 511.9 h -590.6 v -511.9 z m 1063,0 v 511.9 h -590.6 v -511.9 z m 1437,-551.1 v -511.8 h 590.5 v 511.8 z m -1063,0 v -511.8 h 590.5 v 511.8 z m 807.1,1338.5 v -314.9 h 354.3 v 314.9 z m -787.4,374.1 v -315 h 354.3 v 315 z m 0,-748.1 v -314.9 h 354.3 v 314.9 z m -3307.1,728.4 v 0 m -393.7,-2578.8 h 1181.1 v 1181.1 h -1181.1 z m 2283.4,383.9 v 492.1 H 46063 v -492.1 z m 984.3,0 v 492.1 h -590.6 v -492.1 z m 1730.3,-2253.9 v -393.7 h 988.2 v 393.7 z M 44565,-53683.9 v -393.7 h 988.1 v 393.7 z m 4627.9,7559 V -47306 H 50374 v 1181.1 z m -4724.4,-7086.6 v -1181.1 h 1181.1 v 1181.1 z m 9704.7,1397.6 v -11811 h 11811.1 v 11811 z m -4389.7,5098.5 H 34035.4 m 0,0 v -15748.1 m 0,0 h 15748.1 m 0,0 v 13385.9 m 0,0 H 36397.6 m 0,0 v -11023.7 m 0,0 h 11023.7 m 0,0 v 8661.5 m 0,0 h -8661.5 m 0,0 v -6299.3 m 0,0 h 6299.3 m 0,0 v 3937.1" /></g></svg>