<?xml version="1.0" encoding="UTF-8"?>
<svg xmlns="http://www.w3.org/2000/svg" xmlns:xlink="http://www.w3.org/1999/xlink" width="259pt" height="215pt" viewBox="0 0 259 215" version="1.1">
<g id="surface1535">
<path style="fill:none;stroke-width:0.11811;stroke-linecap:round;stroke-linejoin:miter;stroke:rgb(45.098039%,45.098039%,87.058824%);stroke-opacity:1;stroke-miterlimit:10;" d="M 4.505904 -2.494104 L 4.505904 -2.887822 " transform="matrix(72,0,0,-72,-229.011023,-127.864567)"/>
<path style="fill:none;stroke-width:0.11811;stroke-linecap:round;stroke-linejoin:miter;stroke:rgb(45.098039%,45.098039%,87.058824%);stroke-opacity:1;stroke-miterlimit:10;" d="M 3.875967 -2.494104 L 4.505904 -2.494104 " transform="matrix(72,0,0,-72,-229.011023,-127.864567)"/>
<path style="fill:none;stroke-width:0.11811;stroke-linecap:round;stroke-linejoin:miter;stroke:rgb(45.098039%,45.098039%,87.058824%);stroke-opacity:1;stroke-miterlimit:10;" d="M 3.875967 -3.124041 L 3.875967 -2.494104 " transform="matrix(72,0,0,-72,-229.011023,-127.864567)"/>
<path style="fill:none;stroke-width:0.11811;stroke-linecap:round;stroke-linejoin:miter;stroke:rgb(45.098039%,45.098039%,87.058824%);stroke-opacity:1;stroke-miterlimit:10;" d="M 4.742124 -3.124041 L 3.875967 -3.124041 " transform="matrix(72,0,0,-72,-229.011023,-127.864567)"/>
<path style="fill:none;stroke-width:0.11811;stroke-linecap:round;stroke-linejoin:miter;stroke:rgb(45.098039%,45.098039%,87.058824%);stroke-opacity:1;stroke-miterlimit:10;" d="M 4.742124 -2.257885 L 4.742124 -3.124041 " transform="matrix(72,0,0,-72,-229.011023,-127.864567)"/>
<path style="fill:none;stroke-width:0.11811;stroke-linecap:round;stroke-linejoin:miter;stroke:rgb(45.098039%,45.098039%,87.058824%);stroke-opacity:1;stroke-miterlimit:10;" d="M 3.639747 -2.257885 L 4.742124 -2.257885 " transform="matrix(72,0,0,-72,-229.011023,-127.864567)"/>
<path style="fill:none;stroke-width:0.11811;stroke-linecap:round;stroke-linejoin:miter;stroke:rgb(45.098039%,45.098039%,87.058824%);stroke-opacity:1;stroke-miterlimit:10;" d="M 3.639747 -3.360261 L 3.639747 -2.257885 " transform="matrix(72,0,0,-72,-229.011023,-127.864567)"/>
<path style="fill:none;stroke-width:0.11811;stroke-linecap:round;stroke-linejoin:miter;stroke:rgb(45.098039%,45.098039%,87.058824%);stroke-opacity:1;stroke-miterlimit:10;" d="M 4.978343 -3.360261 L 3.639747 -3.360261 " transform="matrix(72,0,0,-72,-229.011023,-127.864567)"/>
<path style="fill:none;stroke-width:0.11811;stroke-linecap:round;stroke-linejoin:miter;stroke:rgb(45.098039%,45.098039%,87.058824%);stroke-opacity:1;stroke-miterlimit:10;" d="M 4.978343 -2.021665 L 4.978343 -3.360261 " transform="matrix(72,0,0,-72,-229.011023,-127.864567)"/>
<path style="fill:none;stroke-width:0.11811;stroke-linecap:round;stroke-linejoin:miter;stroke:rgb(45.098039%,45.098039%,87.058824%);stroke-opacity:1;stroke-miterlimit:10;" d="M 3.403528 -2.021665 L 4.978343 -2.021665 " transform="matrix(72,0,0,-72,-229.011023,-127.864567)"/>
<path style="fill:none;stroke-width:0.11811;stroke-linecap:round;stroke-linejoin:miter;stroke:rgb(45.098039%,45.098039%,87.058824%);stroke-opacity:1;stroke-miterlimit:10;" d="M 3.403528 -3.596481 L 3.403528 -2.021665 " transform="matrix(72,0,0,-72,-229.011023,-127.864567)"/>
<path style="fill:none;stroke-width:0.11811;stroke-linecap:round;stroke-linejoin:miter;stroke:rgb(45.098039%,45.098039%,87.058824%);stroke-opacity:1;stroke-miterlimit:10;" d="M 4.978343 -3.596481 L 3.403528 -3.596481 " transform="matrix(72,0,0,-72,-229.011023,-127.864567)"/>
<path style=" stroke:none;fill-rule:evenodd;fill:rgb(45.098039%,45.098039%,87.058824%);fill-opacity:1;" d="M 161.035156 94.371094 L 246.074219 94.371094 L 246.074219 9.332031 L 161.035156 9.332031 Z M 161.035156 94.371094 "/>
<path style=" stroke:none;fill-rule:evenodd;fill:rgb(45.098039%,45.098039%,87.058824%);fill-opacity:1;" d="M 91.164062 84.308594 L 99.667969 84.308594 L 99.667969 75.804688 L 91.164062 75.804688 Z M 91.164062 84.308594 "/>
<path style=" stroke:none;fill-rule:evenodd;fill:rgb(45.098039%,45.098039%,87.058824%);fill-opacity:1;" d="M 125.179688 135.332031 L 133.683594 135.332031 L 133.683594 126.828125 L 125.179688 126.828125 Z M 125.179688 135.332031 "/>
<path style=" stroke:none;fill-rule:evenodd;fill:rgb(45.098039%,45.098039%,87.058824%);fill-opacity:1;" d="M 91.855469 80.90625 L 98.96875 80.90625 L 98.96875 78.070312 L 91.855469 78.070312 Z M 91.855469 80.90625 "/>
<path style=" stroke:none;fill-rule:evenodd;fill:rgb(45.098039%,45.098039%,87.058824%);fill-opacity:1;" d="M 126.4375 132.074219 L 133.550781 132.074219 L 133.550781 129.238281 L 126.4375 129.238281 Z M 126.4375 132.074219 "/>
<path style=" stroke:none;fill-rule:evenodd;fill:rgb(45.098039%,45.098039%,87.058824%);fill-opacity:1;" d="M 109.730469 151.84375 L 113.984375 151.84375 L 113.984375 148.300781 L 109.730469 148.300781 Z M 109.730469 151.84375 "/>
<path style=" stroke:none;fill-rule:evenodd;fill:rgb(45.098039%,45.098039%,87.058824%);fill-opacity:1;" d="M 102.640625 151.84375 L 106.894531 151.84375 L 106.894531 148.300781 L 102.640625 148.300781 Z M 102.640625 151.84375 "/>
<path style=" stroke:none;fill-rule:evenodd;fill:rgb(45.098039%,45.098039%,87.058824%);fill-opacity:1;" d="M 90.453125 154.039062 L 98.957031 154.039062 L 98.957031 145.535156 L 90.453125 145.535156 Z M 90.453125 154.039062 "/>
<path style=" stroke:none;fill-rule:evenodd;fill:rgb(45.098039%,45.098039%,87.058824%);fill-opacity:1;" d="M 93.289062 159.851562 C 87.617188 159.851562 87.617188 168.355469 93.289062 168.355469 C 98.957031 168.355469 98.957031 159.851562 93.289062 159.851562 "/>
<path style=" stroke:none;fill-rule:evenodd;fill:rgb(45.098039%,45.098039%,87.058824%);fill-opacity:1;" d="M 117.097656 158.859375 L 119.648438 158.859375 L 119.648438 156.589844 L 117.097656 156.589844 Z M 117.097656 158.859375 "/>
<path style=" stroke:none;fill-rule:evenodd;fill:rgb(45.098039%,45.098039%,87.058824%);fill-opacity:1;" d="M 117.097656 164.246094 L 119.648438 164.246094 L 119.648438 161.976562 L 117.097656 161.976562 Z M 117.097656 164.246094 "/>
<path style=" stroke:none;fill-rule:evenodd;fill:rgb(45.098039%,45.098039%,87.058824%);fill-opacity:1;" d="M 122.769531 161.554688 L 125.320312 161.554688 L 125.320312 159.285156 L 122.769531 159.285156 Z M 122.769531 161.554688 "/>
<path style=" stroke:none;fill-rule:evenodd;fill:rgb(45.098039%,45.098039%,87.058824%);fill-opacity:1;" d="M 116.957031 151.914062 L 121.210938 151.914062 L 121.210938 148.230469 L 116.957031 148.230469 Z M 116.957031 151.914062 "/>
<path style=" stroke:none;fill-rule:evenodd;fill:rgb(45.098039%,45.098039%,87.058824%);fill-opacity:1;" d="M 124.609375 151.914062 L 128.863281 151.914062 L 128.863281 148.230469 L 124.609375 148.230469 Z M 124.609375 151.914062 "/>
<path style=" stroke:none;fill-rule:evenodd;fill:rgb(45.098039%,45.098039%,87.058824%);fill-opacity:1;" d="M 110.011719 159.570312 L 114.265625 159.570312 L 114.265625 155.886719 L 110.011719 155.886719 Z M 110.011719 159.570312 "/>
<path style=" stroke:none;fill-rule:evenodd;fill:rgb(45.098039%,45.098039%,87.058824%);fill-opacity:1;" d="M 102.359375 159.570312 L 106.613281 159.570312 L 106.613281 155.886719 L 102.359375 155.886719 Z M 102.359375 159.570312 "/>
<path style=" stroke:none;fill-rule:evenodd;fill:rgb(45.098039%,45.098039%,87.058824%);fill-opacity:1;" d="M 102.21875 167.363281 L 106.472656 167.363281 L 106.472656 163.679688 L 102.21875 163.679688 Z M 102.21875 167.363281 "/>
<path style=" stroke:none;fill-rule:evenodd;fill:rgb(45.098039%,45.098039%,87.058824%);fill-opacity:1;" d="M 109.871094 167.363281 L 114.125 167.363281 L 114.125 163.679688 L 109.871094 163.679688 Z M 109.871094 167.363281 "/>
<path style=" stroke:none;fill-rule:evenodd;fill:rgb(45.098039%,45.098039%,87.058824%);fill-opacity:1;" d="M 133.113281 149.789062 L 137.933594 149.789062 L 137.933594 144.96875 L 133.113281 144.96875 Z M 133.113281 149.789062 "/>
<path style=" stroke:none;fill-rule:evenodd;fill:rgb(45.098039%,45.098039%,87.058824%);fill-opacity:1;" d="M 162.59375 205.207031 L 247.632812 205.207031 L 247.632812 120.167969 L 162.59375 120.167969 Z M 162.59375 205.207031 "/>
<path style=" stroke:none;fill-rule:evenodd;fill:rgb(45.098039%,45.098039%,87.058824%);fill-opacity:1;" d="M 95.554688 142.136719 C 95.554688 140.625 93.289062 140.625 93.289062 142.136719 C 93.289062 143.648438 95.554688 143.648438 95.554688 142.136719 "/>
<path style=" stroke:none;fill-rule:evenodd;fill:rgb(45.098039%,45.098039%,87.058824%);fill-opacity:1;" d="M 87.902344 80.339844 C 87.902344 78.828125 85.632812 78.828125 85.632812 80.339844 C 85.632812 81.851562 87.902344 81.851562 87.902344 80.339844 "/>
<path style="fill:none;stroke-width:0.0314961;stroke-linecap:round;stroke-linejoin:miter;stroke:rgb(45.098039%,45.098039%,87.058824%);stroke-opacity:1;stroke-miterlimit:10;" d="M 4.734257 -3.860261 L 4.738163 -3.966543 " transform="matrix(72,0,0,-72,-229.011023,-127.864567)"/>
<path style="fill:none;stroke-width:0.0314961;stroke-linecap:round;stroke-linejoin:miter;stroke:rgb(45.098039%,45.098039%,87.058824%);stroke-opacity:1;stroke-miterlimit:10;" d="M 4.738163 -3.966543 L 4.824806 -3.966543 " transform="matrix(72,0,0,-72,-229.011023,-127.864567)"/>
<path style="fill:none;stroke-width:0.0314961;stroke-linecap:round;stroke-linejoin:miter;stroke:rgb(45.098039%,45.098039%,87.058824%);stroke-opacity:1;stroke-miterlimit:10;" d="M 4.824806 -3.966543 L 4.901575 -3.944896 " transform="matrix(72,0,0,-72,-229.011023,-127.864567)"/>
<path style="fill:none;stroke-width:0.0314961;stroke-linecap:round;stroke-linejoin:miter;stroke:rgb(45.098039%,45.098039%,87.058824%);stroke-opacity:1;stroke-miterlimit:10;" d="M 4.901575 -3.944896 L 4.940963 -3.860261 " transform="matrix(72,0,0,-72,-229.011023,-127.864567)"/>
<path style="fill:none;stroke-width:0.0314961;stroke-linecap:round;stroke-linejoin:miter;stroke:rgb(45.098039%,45.098039%,87.058824%);stroke-opacity:1;stroke-miterlimit:10;" d="M 4.629927 -4.074779 L 4.631881 -3.966543 " transform="matrix(72,0,0,-72,-229.011023,-127.864567)"/>
<path style="fill:none;stroke-width:0.0314961;stroke-linecap:round;stroke-linejoin:miter;stroke:rgb(45.098039%,45.098039%,87.058824%);stroke-opacity:1;stroke-miterlimit:10;" d="M 4.631881 -3.966543 L 4.635841 -3.860261 " transform="matrix(72,0,0,-72,-229.011023,-127.864567)"/>
<path style="fill:none;stroke-width:0.0472441;stroke-linecap:round;stroke-linejoin:miter;stroke:rgb(45.098039%,45.098039%,87.058824%);stroke-opacity:1;stroke-miterlimit:10;" d="M 4.47639 -4.055139 L 4.629927 -4.074779 " transform="matrix(72,0,0,-72,-229.011023,-127.864567)"/>
<path style="fill:none;stroke-width:0.0472441;stroke-linecap:round;stroke-linejoin:miter;stroke:rgb(45.098039%,45.098039%,87.058824%);stroke-opacity:1;stroke-miterlimit:10;" d="M 4.496084 -3.8563 L 4.582673 -3.775571 " transform="matrix(72,0,0,-72,-229.011023,-127.864567)"/>
<path style="fill:none;stroke-width:0.0472441;stroke-linecap:round;stroke-linejoin:miter;stroke:rgb(45.098039%,45.098039%,87.058824%);stroke-opacity:1;stroke-miterlimit:10;" d="M 4.582673 -3.775571 L 4.816939 -3.777579 " transform="matrix(72,0,0,-72,-229.011023,-127.864567)"/>
<path style="fill:none;stroke-width:0.0472441;stroke-linecap:round;stroke-linejoin:miter;stroke:rgb(45.098039%,45.098039%,87.058824%);stroke-opacity:1;stroke-miterlimit:10;" d="M 4.816939 -3.777579 L 4.834626 -3.860261 " transform="matrix(72,0,0,-72,-229.011023,-127.864567)"/>
<path style="fill:none;stroke-width:0.0314961;stroke-linecap:round;stroke-linejoin:miter;stroke:rgb(45.098039%,45.098039%,87.058824%);stroke-opacity:1;stroke-miterlimit:10;" d="M 4.505904 -2.887822 L 4.385841 -2.891728 " transform="matrix(72,0,0,-72,-229.011023,-127.864567)"/>
<path style="fill:none;stroke-width:0.0314961;stroke-linecap:round;stroke-linejoin:miter;stroke:rgb(45.098039%,45.098039%,87.058824%);stroke-opacity:1;stroke-miterlimit:10;" d="M 4.492124 -3.750018 L 4.496084 -3.8563 " transform="matrix(72,0,0,-72,-229.011023,-127.864567)"/>
<path style="fill:none;stroke-width:0.0314961;stroke-linecap:round;stroke-linejoin:miter;stroke:rgb(45.098039%,45.098039%,87.058824%);stroke-opacity:1;stroke-miterlimit:10;" d="M 4.903528 -4.003924 L 4.998037 -3.97441 " transform="matrix(72,0,0,-72,-229.011023,-127.864567)"/>
<path style="fill:none;stroke-width:0.0314961;stroke-linecap:round;stroke-linejoin:miter;stroke:rgb(45.098039%,45.098039%,87.058824%);stroke-opacity:1;stroke-miterlimit:10;" d="M 4.998037 -3.97441 L 5.062979 -3.822826 " transform="matrix(72,0,0,-72,-229.011023,-127.864567)"/>
<path style="fill:none;stroke-width:0.0314961;stroke-linecap:round;stroke-linejoin:miter;stroke:rgb(45.098039%,45.098039%,87.058824%);stroke-opacity:1;stroke-miterlimit:10;" d="M 4.978343 -3.596481 L 5.062979 -3.822826 " transform="matrix(72,0,0,-72,-229.011023,-127.864567)"/>
<path style="fill:none;stroke-width:0.0314961;stroke-linecap:round;stroke-linejoin:miter;stroke:rgb(45.098039%,45.098039%,87.058824%);stroke-opacity:1;stroke-miterlimit:10;" d="M 4.73621 -4.074779 L 4.824806 -4.041359 " transform="matrix(72,0,0,-72,-229.011023,-127.864567)"/>
<path style="fill:none;stroke-width:0.0472441;stroke-linecap:round;stroke-linejoin:miter;stroke:rgb(45.098039%,45.098039%,87.058824%);stroke-opacity:1;stroke-miterlimit:10;" d="M 4.824806 -4.041359 L 5.051206 -4.100387 " transform="matrix(72,0,0,-72,-229.011023,-127.864567)"/>
<path style="fill:none;stroke-width:0.0472441;stroke-linecap:round;stroke-linejoin:miter;stroke:rgb(45.098039%,45.098039%,87.058824%);stroke-opacity:1;stroke-miterlimit:10;" d="M 5.051206 -4.100387 L 6.029504 -4.035445 " transform="matrix(72,0,0,-72,-229.011023,-127.864567)"/>
<path style="fill:none;stroke-width:0.0472441;stroke-linecap:round;stroke-linejoin:miter;stroke:rgb(45.098039%,45.098039%,87.058824%);stroke-opacity:1;stroke-miterlimit:10;" d="M 6.007857 -2.496057 L 5.22243 -2.49801 " transform="matrix(72,0,0,-72,-229.011023,-127.864567)"/>
<path style="fill:none;stroke-width:0.0472441;stroke-linecap:round;stroke-linejoin:miter;stroke:rgb(45.098039%,45.098039%,87.058824%);stroke-opacity:1;stroke-miterlimit:10;" d="M 5.22243 -2.49801 L 5.230296 -2.496057 " transform="matrix(72,0,0,-72,-229.011023,-127.864567)"/>
</g>
</svg>
