<?xml version="1.0" encoding="UTF-8" standalone="no"?>
<!-- Created with Inkscape (http://www.inkscape.org/) -->

<svg
   xmlns:dc="http://purl.org/dc/elements/1.1/"
   xmlns:cc="http://creativecommons.org/ns#"
   xmlns:rdf="http://www.w3.org/1999/02/22-rdf-syntax-ns#"
   xmlns:svg="http://www.w3.org/2000/svg"
   xmlns="http://www.w3.org/2000/svg"
   xmlns:sodipodi="http://sodipodi.sourceforge.net/DTD/sodipodi-0.dtd"
   xmlns:inkscape="http://www.inkscape.org/namespaces/inkscape"
   version="1.1"
   id="svg3199"
   xml:space="preserve"
   width="1122.6667"
   height="794.66669"
   viewBox="0 0 1122.6667 794.66669"
   sodipodi:docname="bug_radio-F.Cu_newest_repeat.svg"
   inkscape:version="0.92.4 (5da689c313, 2019-01-14)"><metadata
     id="metadata3205"><rdf:RDF><cc:Work
         rdf:about=""><dc:format>image/svg+xml</dc:format><dc:type
           rdf:resource="http://purl.org/dc/dcmitype/StillImage" /><dc:title></dc:title></cc:Work></rdf:RDF></metadata><defs
     id="defs3203" /><sodipodi:namedview
     pagecolor="#ffffff"
     bordercolor="#666666"
     borderopacity="1"
     objecttolerance="10"
     gridtolerance="10"
     guidetolerance="10"
     inkscape:pageopacity="0"
     inkscape:pageshadow="2"
     inkscape:window-width="1918"
     inkscape:window-height="1178"
     id="namedview3201"
     showgrid="false"
     inkscape:zoom="1"
     inkscape:cx="501.25212"
     inkscape:cy="454.71205"
     inkscape:window-x="0"
     inkscape:window-y="20"
     inkscape:window-maximized="1"
     inkscape:current-layer="g3207" /><g
     id="g3207"
     inkscape:groupmode="layer"
     inkscape:label="bug_radio-F.Cu"
     transform="matrix(0.0096,0,0,-0.0096,0,794.66667)"><path
       style="color:#000000;font-style:normal;font-variant:normal;font-weight:normal;font-stretch:normal;font-size:medium;line-height:normal;font-family:sans-serif;font-variant-ligatures:normal;font-variant-position:normal;font-variant-caps:normal;font-variant-numeric:normal;font-variant-alternates:normal;font-feature-settings:normal;text-indent:0;text-align:start;text-decoration:none;text-decoration-line:none;text-decoration-style:solid;text-decoration-color:#000000;letter-spacing:normal;word-spacing:normal;text-transform:none;writing-mode:lr-tb;direction:ltr;text-orientation:mixed;dominant-baseline:auto;baseline-shift:baseline;text-anchor:start;white-space:normal;shape-padding:0;clip-rule:nonzero;display:inline;overflow:visible;visibility:visible;opacity:1;isolation:auto;mix-blend-mode:normal;color-interpolation:sRGB;color-interpolation-filters:linearRGB;solid-color:#000000;solid-opacity:1;vector-effect:none;fill:#000000;fill-opacity:1;fill-rule:nonzero;stroke:none;stroke-width:236.22000122;stroke-linecap:round;stroke-linejoin:round;stroke-miterlimit:10;stroke-dasharray:none;stroke-dashoffset:0;stroke-opacity:1;color-rendering:auto;image-rendering:auto;shape-rendering:auto;text-rendering:auto;enable-background:accumulate"
       d="m 68348.134,2656.2567 c -65.228,0 -118.105,52.881 -118.112,118.109 v 5387.178 l -3740.884,-248.385 c -10.364,-1.562 -20.89,-1.737 -31.301,-0.521 -9.855,0.885 -19.559,3.004 -28.885,6.308 l -1934.357,504.569 c -16.78,-46.937 -61.217,-78.288 -111.063,-78.358 h -354.299 c -65.228,0 -118.104,52.882 -118.111,118.11 v 5.089 l -157.478,-17.89 v -183.998 c 0,-65.229 -52.883,-118.107 -118.112,-118.112 h -590.599 c -65.228,0 -118.105,52.884 -118.11,118.112 v 511.799 c 0,65.228 52.882,118.104 118.11,118.111 h 590.599 c 65.229,0 118.106,-52.882 118.112,-118.111 v -90.061 l 157.478,17.891 v 72.17 c 0,65.228 52.883,118.105 118.111,118.111 h 354.299 c 65.229,0 118.106,-52.882 118.112,-118.111 v -112.467 l 1979.771,-516.412 3748.607,248.896 v 6187.0823 c 0,65.229 52.883,118.107 118.112,118.112 h 11811 c 65.228,0 118.104,-52.884 118.109,-118.112 V 2774.3657 c 0,-65.227 -52.882,-118.102 -118.109,-118.109 z m -8366.201,5492.099 c -65.228,0 -118.105,52.884 -118.11,118.112 v 511.799 c 0,65.228 52.882,118.104 118.11,118.111 h 177.189 v 98.379 h -177.189 c -65.227,0 -118.103,52.882 -118.11,118.109 v 511.901 c 0,65.228 52.882,118.104 118.11,118.111 h 186.287 l 1.679,68.879 h -168.265 c -65.228,0 -118.105,52.881 -118.112,118.109 v 492.1023 c 0,65.228 52.884,118.104 118.112,118.109 h 454.051 l 858.201,992.637 c 25.327,30.066 63.952,45.561 103.036,41.335 39.084,-4.225 73.505,-27.618 91.821,-62.402 0.359,-0.653 0.712,-1.309 1.059,-1.968 0.931,-1.872 1.812,-3.768 2.642,-5.686 1.096,-2.413 2.11,-4.863 3.041,-7.344 0.06,-0.17 0.12,-0.341 0.18,-0.511 16.788,-45.836 3.652,-97.278 -33.057,-129.453 l -780.15,-902.358 c 5.203,-13.517 7.876,-27.875 7.885,-42.359 v -492.1023 c 0,-65.227 -52.883,-118.102 -118.11,-118.109 h -186.043 l -1.679,-68.879 h 168.021 c 65.229,0 118.106,-52.882 118.112,-118.111 v -511.901 c 0,-65.228 -52.884,-118.104 -118.112,-118.109 h -177.189 v -98.379 h 177.189 c 65.229,0 118.106,-52.882 118.112,-118.111 v -511.799 c 0,-65.229 -52.883,-118.107 -118.112,-118.112 z m 2834.701,570.901 c -65.228,0 -118.105,52.881 -118.112,118.109 v 314.901 c 0,65.229 52.883,118.106 118.112,118.111 h 354.299 c 44.09,-0.02 84.499,-24.598 104.798,-63.738 l 575.762,179.937 414.188,966.4813 h -12.047 c -65.228,0 -118.105,52.881 -118.112,118.109 v 669.301 c 0,65.228 52.884,118.104 118.112,118.109 h 12.084 l -556.783,1299.18 h -500.602 c -65.227,0 -118.102,52.882 -118.109,118.109 v 59.09 H 52205.907 c -37.523,-6.183 -75.728,6.077 -102.646,32.94 -0.864,0.805 -1.716,1.623 -2.555,2.453 l -0.123,0.134 c -26.205,26.84 -38.105,64.53 -32.061,101.551 v 11772.76 c -6.183,37.522 6.077,75.726 32.94,102.644 0.805,0.865 1.624,1.717 2.455,2.557 l 0.129,0.117 c 26.84,26.208 64.532,38.109 101.555,32.065 H 63978.46 c 37.504,6.179 75.691,-6.067 102.607,-32.905 0.881,-0.82 1.75,-1.654 2.606,-2.501 l 0.08,-0.09 c 26.226,-26.841 38.137,-64.548 32.09,-101.584 V 14053.44 c 6.179,-37.497 -6.061,-75.677 -32.889,-102.593 -0.829,-0.891 -1.672,-1.768 -2.529,-2.633 l -0.01,-0.01 -0.03,-0.03 c -26.846,-26.25 -64.572,-38.173 -101.627,-32.119 H 53387.011 c -37.512,-6.183 -75.707,6.068 -102.625,32.916 -0.877,0.816 -1.741,1.646 -2.592,2.488 l -0.08,0.09 c -26.227,26.842 -38.139,64.549 -32.092,101.586 v 9410.558 c -6.183,37.523 6.077,75.727 32.94,102.645 0.805,0.864 1.623,1.716 2.453,2.555 l 0.134,0.123 c 26.84,26.205 64.53,38.104 101.551,32.06 h 9410.66 c 37.509,6.181 75.699,-6.068 102.616,-32.912 0.878,-0.818 1.744,-1.65 2.597,-2.494 l 0.08,-0.09 c 26.226,-26.841 38.137,-64.548 32.09,-101.584 v -8229.459 c 6.18,-37.508 -6.069,-75.699 -32.912,-102.615 -0.818,-0.879 -1.65,-1.745 -2.494,-2.598 l -0.09,-0.08 c -26.841,-26.226 -64.548,-38.137 -101.584,-32.09 h -8229.459 c -37.504,-6.179 -75.691,6.067 -102.607,32.905 -0.881,0.82 -1.75,1.654 -2.606,2.501 l -0.08,0.09 c -26.226,26.841 -38.137,64.548 -32.09,101.584 v 7048.358 c -6.18,37.505 6.066,75.693 32.905,102.609 0.82,0.881 1.654,1.75 2.501,2.606 l 0.09,0.08 c 26.841,26.226 64.548,38.137 101.584,32.09 h 7048.358 c 37.523,6.183 75.728,-6.077 102.646,-32.94 0.865,-0.805 1.717,-1.624 2.557,-2.455 l 0.117,-0.129 c 26.208,-26.84 38.109,-64.532 32.065,-101.555 v -5512.521 h 60.99 c 63.947,-0.04 116.247,-50.968 117.996,-114.891 11.614,-18.677 17.783,-40.226 17.812,-62.22 v -393.7 c 0,-65.227 -52.882,-118.103 -118.109,-118.11 h -393.699 c -42.111,0.07 -81.003,22.543 -102.08,59 h -510.121 c -65.228,0 -118.104,52.883 -118.11,118.111 v 115.889 l -761.207,46.404 c -47.336,-84.649 -137.971,-142.603 -240.783,-142.603 -150.871,0 -275.51,124.829 -275.51,275.609 0,150.78 124.639,275.612 275.51,275.612 114.643,0 214.134,-72.059 255.334,-172.846 l 746.656,-45.516 v 41.151 c 0,65.228 52.882,118.104 118.11,118.111 h 690.99 v 5413.379 h -6850.379 v -6850.379 h 8031.478 v 8031.478 h -9212.679 v -9212.58 h 10393.779 v 10393.68 H 52304.743 V 12971.177 h 10785.481 v 98.39 c 0,65.227 52.882,118.103 118.109,118.11 h 988.199 c 65.228,0 118.105,-52.882 118.112,-118.11 v -393.701 c -0.03,-7.317 -0.73,-14.615 -2.106,-21.801 -1.153,-64.364 -53.631,-115.954 -118.006,-116.007 h -220.156 l 548.342,-1279.481 h 400.215 c 65.228,0 118.104,-52.881 118.111,-118.109 v -669.301 c 0,-65.228 -52.883,-118.103 -118.111,-118.109 h -400.254 L 64054.05,9259.5377 c -6.043,-22.157 -18.415,-42.072 -35.6,-57.307 -17.088,-15.939 -38.519,-26.451 -61.582,-30.207 l -667.824,-208.709 v -125.949 c 0,-65.228 -52.883,-118.103 -118.111,-118.109 z m -1771.701,275.5 c -65.227,0 -118.103,52.882 -118.11,118.109 v 511.901 c 0,65.228 52.882,118.104 118.11,118.111 h 149.48 l -5.045,68.879 h -203.435 c -65.227,0 -118.103,52.882 -118.11,118.109 v 492.1023 c 0,65.227 52.883,118.102 118.11,118.109 h 590.5 c 65.228,0 118.104,-52.881 118.111,-118.109 v -492.1023 c 0,-65.228 -52.883,-118.103 -118.111,-118.109 h -150.211 l 5.043,-68.879 h 204.267 c 65.229,0 118.106,-52.882 118.112,-118.111 v -137.889 h 157.478 v 39.389 c 0,65.228 52.883,118.105 118.111,118.111 h 354.299 c 47.451,-0.06 90.262,-28.504 108.699,-72.227 l 402.237,113.489 57.549,104.283 c -45.916,17.338 -76.328,61.263 -76.395,110.344 v 511.9003 c 0,65.228 52.883,118.103 118.111,118.109 h 590.6 c 65.227,0 118.102,-52.882 118.109,-118.109 v -511.9003 c 0,-65.227 -52.882,-118.103 -118.109,-118.11 h -366.797 l -131.84,-238.9 c -7.54,-19.458 -20.1,-36.571 -36.402,-49.598 -1.18,-0.995 -2.38,-1.966 -3.598,-2.914 -0.272,-0.201 -0.544,-0.4 -0.818,-0.598 -16.081,-12.273 -35.045,-20.211 -55.074,-23.052 l -488.16,-137.731 v -117.998 c 0,-65.228 -52.884,-118.104 -118.112,-118.109 h -354.299 c -65.228,0 -118.104,52.881 -118.111,118.109 v 39.291 h -157.478 v -137.791 c 0,-65.228 -52.884,-118.104 -118.112,-118.109 z m 885.8,787.4 c -65.228,0 -118.104,52.882 -118.111,118.11 v 511.9003 c 0,65.228 52.883,118.103 118.111,118.109 h 227.118 l 64.423,472.381 h -153.742 c -65.227,0 -118.102,52.883 -118.109,118.11 v 669.3 c 0,65.227 52.882,118.103 118.109,118.11 h 669.301 c 65.227,0 118.102,-52.883 118.109,-118.11 v -14.853 l 295.584,125.037 c 6.295,145.522 128.386,263.826 275.307,263.826 150.871,0 275.609,-124.739 275.609,-275.609 0,-150.871 -124.829,-275.512 -275.609,-275.512 -69.619,0 -133.669,26.613 -182.49,70.07 l -388.401,-164.298 v -397.961 c 0,-65.227 -52.882,-118.103 -118.109,-118.11 h -277.152 l -64.424,-472.381 h 125.076 c 65.227,0 118.102,-52.882 118.109,-118.109 v -511.9003 c 0,-65.227 -52.882,-118.103 -118.109,-118.11 z"
       id="path3305"
       inkscape:connector-curvature="0"
       sodipodi:nodetypes="ccccccccccccccccccccccccccccccccccccccccccccccccccccccsccccccccccccccccccccccccccccccccccccccccccccccccccccccccccccccccccccccccccccccccccccccccccccccccccccccccccccssscccccccccccccccccccccccccccccccccccccccccccccccccccccccccccccccccccccccccccccccccccccccccccccccccccccsssccccccccccc" /><path
       style="color:#000000;font-style:normal;font-variant:normal;font-weight:normal;font-stretch:normal;font-size:medium;line-height:normal;font-family:sans-serif;font-variant-ligatures:normal;font-variant-position:normal;font-variant-caps:normal;font-variant-numeric:normal;font-variant-alternates:normal;font-feature-settings:normal;text-indent:0;text-align:start;text-decoration:none;text-decoration-line:none;text-decoration-style:solid;text-decoration-color:#000000;letter-spacing:normal;word-spacing:normal;text-transform:none;writing-mode:lr-tb;direction:ltr;text-orientation:mixed;dominant-baseline:auto;baseline-shift:baseline;text-anchor:start;white-space:normal;shape-padding:0;clip-rule:nonzero;display:inline;overflow:visible;visibility:visible;opacity:1;isolation:auto;mix-blend-mode:normal;color-interpolation:sRGB;color-interpolation-filters:linearRGB;solid-color:#000000;solid-opacity:1;vector-effect:none;fill:#000000;fill-opacity:1;fill-rule:nonzero;stroke:none;stroke-width:236.22001648;stroke-linecap:round;stroke-linejoin:round;stroke-miterlimit:10;stroke-dasharray:none;stroke-dashoffset:0;stroke-opacity:1;color-rendering:auto;image-rendering:auto;shape-rendering:auto;text-rendering:auto;enable-background:accumulate"
       d="m 100743.97,2864.59 c -65.23,0 -118.11,52.882 -118.11,118.11 v 5387.178 l -3740.887,-248.386 c -10.365,-1.562 -20.891,-1.739 -31.301,-0.52 -9.855,0.833 -19.56,3 -28.886,6.312 l -1934.357,504.57 c -16.78,-46.938 -61.217,-78.289 -111.063,-78.358 h -354.299 c -65.228,0 -118.104,52.882 -118.111,118.11 v 5.083 l -157.478,-17.889 v -183.998 c 0,-65.229 -52.883,-118.107 -118.112,-118.113 h -590.599 c -65.228,0 -118.105,52.885 -118.11,118.113 v 511.799 c 0,65.227 52.882,118.103 118.11,118.11 h 590.599 c 65.229,0 118.106,-52.882 118.112,-118.11 v -90.062 l 157.478,17.891 v 72.171 c 0,65.227 52.883,118.104 118.111,118.11 h 354.299 c 65.229,0 118.107,-52.882 118.112,-118.11 v -112.468 l 1979.772,-516.411 3748.61,248.895 v 6187.082 c 0,65.229 52.88,118.107 118.11,118.112 h 11811 c 65.23,0 118.1,-52.884 118.11,-118.112 V 2982.7 c 0,-65.227 -52.88,-118.102 -118.11,-118.11 z m -8366.203,5492.099 c -65.228,0 -118.105,52.885 -118.11,118.113 v 511.799 c 0,65.227 52.882,118.103 118.11,118.11 h 177.189 v 98.379 h -177.189 c -65.227,0 -118.103,52.883 -118.11,118.11 v 511.901 c 0,65.227 52.882,118.103 118.11,118.11 h 186.287 l 1.679,68.879 h -168.265 c -65.228,0 -118.105,52.882 -118.112,118.11 v 492.102 c 0,65.227 52.884,118.103 118.112,118.108 h 454.051 l 858.201,992.638 c 25.327,30.065 63.952,45.56 103.036,41.334 39.084,-4.229 73.505,-27.618 91.821,-62.402 0.354,-0.625 0.708,-1.313 1.059,-1.969 0.927,-1.875 1.812,-3.771 2.642,-5.687 1.096,-2.417 2.11,-4.865 3.041,-7.344 0.06,-0.208 0.125,-0.313 0.177,-0.521 16.788,-45.836 3.652,-97.278 -33.057,-129.453 l -780.15,-902.358 c 5.203,-13.517 7.876,-27.875 7.885,-42.359 v -492.102 c 0,-65.227 -52.883,-118.102 -118.11,-118.109 h -186.043 l -1.679,-68.879 h 168.021 c 65.229,0 118.106,-52.883 118.112,-118.111 v -511.901 c 0,-65.228 -52.884,-118.104 -118.112,-118.109 h -177.189 v -98.379 h 177.189 c 65.229,0 118.106,-52.883 118.112,-118.111 v -511.799 c 0,-65.229 -52.883,-118.107 -118.112,-118.112 z m 2834.701,570.901 c -65.228,0 -118.105,52.882 -118.112,118.11 v 314.901 c 0,65.228 52.883,118.105 118.112,118.11 h 354.299 c 44.09,-0.02 84.499,-24.598 104.798,-63.737 l 575.762,179.936 414.188,966.481 h -12.047 c -65.228,0 -118.105,52.882 -118.112,118.11 v 669.301 c 0,65.227 52.884,118.103 118.112,118.108 h 12.084 l -556.783,1299.18 h -500.602 c -65.227,0 -118.102,52.883 -118.109,118.11 v 59.089 H 84601.741 c -37.523,-6.187 -75.728,6.073 -102.646,32.94 -0.864,0.833 -1.716,1.625 -2.555,2.458 l -0.123,0.104 c -26.205,26.84 -38.105,64.531 -32.061,101.551 v 11772.785 c -6.183,37.522 6.077,75.726 32.94,102.644 0.805,0.865 1.624,1.717 2.455,2.557 l 0.129,0.117 c 26.84,26.208 64.532,38.109 101.555,32.065 h 11772.859 c 37.505,6.179 75.691,-6.067 102.607,-32.905 0.833,-0.82 1.75,-1.654 2.604,-2.501 l 0.08,-0.09 c 26.226,-26.841 38.138,-64.548 32.09,-101.584 V 14261.774 c 6.177,-37.497 -6.063,-75.677 -32.889,-102.594 -0.833,-0.938 -1.677,-1.771 -2.531,-2.635 v -0.01 l -0.03,-0.03 c -26.846,-26.25 -64.572,-38.173 -101.627,-32.119 H 85782.845 c -37.512,-6.187 -75.707,6.073 -102.625,32.916 -0.875,0.833 -1.741,1.646 -2.592,2.489 l -0.08,0.09 c -26.227,26.843 -38.139,64.549 -32.092,101.586 v 9410.56 c -6.183,37.523 6.077,75.727 32.94,102.645 0.802,0.865 1.623,1.716 2.453,2.556 l 0.136,0.125 c 26.84,26.205 64.53,38.104 101.551,32.06 h 9410.661 c 37.508,6.181 75.699,-6.068 102.615,-32.912 0.834,-0.823 1.74,-1.65 2.594,-2.494 l 0.08,-0.09 c 26.226,-26.841 38.138,-64.548 32.09,-101.584 v -8229.459 c 6.177,-37.508 -6.073,-75.699 -32.912,-102.615 -0.833,-0.875 -1.646,-1.745 -2.489,-2.598 l -0.09,-0.08 c -26.841,-26.226 -64.548,-38.137 -101.583,-32.09 h -8229.464 c -37.504,-6.179 -75.691,6.067 -102.607,32.905 -0.886,0.823 -1.75,1.654 -2.606,2.501 l -0.08,0.09 c -26.226,26.838 -38.137,64.545 -32.09,101.581 v 7048.358 c -6.18,37.505 6.065,75.693 32.905,102.609 0.823,0.886 1.654,1.75 2.501,2.607 l 0.09,0.08 c 26.841,26.226 64.548,38.137 101.584,32.09 h 7048.358 c 37.523,6.183 75.728,-6.077 102.646,-32.94 0.864,-0.802 1.716,-1.624 2.557,-2.456 l 0.115,-0.125 c 26.208,-26.84 38.109,-64.532 32.065,-101.555 v -5512.521 h 60.99 c 63.947,-0.04 116.247,-50.968 117.996,-114.891 11.614,-18.677 17.783,-40.226 17.812,-62.22 v -393.7 c 0,-65.227 -52.882,-118.103 -118.109,-118.11 h -393.699 c -42.111,0.07 -81.003,22.543 -102.08,59 h -510.121 c -65.228,0 -118.104,52.883 -118.11,118.111 v 115.885 l -761.207,46.404 c -47.336,-84.649 -137.971,-142.603 -240.783,-142.603 -150.871,0 -275.51,124.829 -275.51,275.609 0,150.78 124.639,275.612 275.51,275.612 114.643,0 214.134,-72.059 255.334,-172.846 l 746.656,-45.516 v 41.151 c 0,65.228 52.882,118.104 118.11,118.111 h 690.99 v 5413.379 h -6850.377 v -6850.379 h 8031.478 V 23573.19 H 85881.677 V 14360.61 H 96275.456 V 24754.29 H 84700.577 V 13179.51 h 10785.481 v 98.391 c 0,65.227 52.882,118.102 118.109,118.109 h 988.199 c 65.228,0 118.106,-52.882 118.112,-118.109 V 12884.2 c -0.03,-7.323 -0.729,-14.616 -2.104,-21.801 -1.157,-64.365 -53.632,-115.954 -118.007,-116.008 h -220.156 l 548.342,-1279.481 h 400.215 c 65.229,0 118.105,-52.881 118.111,-118.108 v -669.301 c 0,-65.228 -52.882,-118.103 -118.111,-118.11 h -400.254 l -468.629,-1093.519 c -6.042,-22.158 -18.414,-42.072 -35.6,-57.308 -17.087,-15.938 -38.519,-26.451 -61.582,-30.207 l -667.824,-208.708 V 9045.7 c 0,-65.228 -52.882,-118.103 -118.111,-118.11 z m -1771.701,275.5 c -65.227,0 -118.103,52.883 -118.11,118.11 v 511.901 c 0,65.227 52.882,118.103 118.11,118.11 h 149.48 l -5.045,68.879 h -203.435 c -65.227,0 -118.103,52.883 -118.11,118.11 v 492.102 c 0,65.226 52.883,118.101 118.11,118.108 h 590.5 c 65.228,0 118.104,-52.881 118.111,-118.108 V 10138.2 c 0,-65.228 -52.883,-118.103 -118.111,-118.11 h -150.211 l 5.043,-68.879 h 204.267 c 65.229,0 118.106,-52.882 118.112,-118.11 v -137.89 h 157.478 v 39.39 c 0,65.227 52.883,118.104 118.111,118.11 h 354.299 c 47.451,-0.06 90.262,-28.504 108.699,-72.227 l 402.237,113.49 57.549,104.282 c -45.916,17.339 -76.327,61.264 -76.395,110.345 v 511.9 c 0,65.227 52.883,118.102 118.111,118.108 h 590.6 c 65.227,0 118.102,-52.881 118.109,-118.108 v -511.9 c 0,-65.227 -52.882,-118.103 -118.109,-118.111 h -366.796 l -131.841,-238.9 c -7.542,-19.458 -20.1,-36.57 -36.402,-49.598 -1.177,-1.041 -2.375,-1.968 -3.594,-2.916 -0.312,-0.209 -0.521,-0.417 -0.833,-0.625 -16.082,-12.273 -35.045,-20.211 -55.074,-23.052 l -488.161,-137.73 v -117.998 c 0,-65.229 -52.883,-118.105 -118.111,-118.11 h -354.3 c -65.228,0 -118.104,52.881 -118.111,118.11 v 39.29 h -157.478 v -137.79 c 0,-65.229 -52.884,-118.105 -118.112,-118.11 z m 885.8,787.4 c -65.228,0 -118.104,52.883 -118.111,118.111 v 511.9 c 0,65.227 52.883,118.102 118.111,118.108 h 227.118 l 64.423,472.381 h -153.742 c -65.227,0 -118.102,52.884 -118.109,118.111 v 669.3 c 0,65.227 52.882,118.102 118.109,118.109 h 669.301 c 65.227,0 118.102,-52.882 118.109,-118.109 v -14.853 l 295.584,125.036 c 6.292,145.522 128.387,263.826 275.307,263.826 150.871,0 275.609,-124.738 275.609,-275.608 0,-150.872 -124.828,-275.513 -275.609,-275.513 -69.618,0 -133.668,26.614 -182.49,70.07 l -388.401,-164.298 v -397.96 c 0,-65.227 -52.882,-118.103 -118.109,-118.111 h -277.152 l -64.424,-472.381 h 125.076 c 65.227,0 118.102,-52.881 118.109,-118.108 v -511.9 c 0,-65.227 -52.882,-118.103 -118.109,-118.111 z"
       id="path3305-3"
       inkscape:connector-curvature="0"
       sodipodi:nodetypes="ccccccccccccccccccccccccccccccccccccccccccccccccccccccsccccccccccccccccccccccccccccccccccccccccccccccccccccccccccccccccccccccccccccccccccccccccccccccccccccccccccccssscccccccccccccccccccccccccccccccccccccccccccccccccccccccccccccccccccccccccccccccccccccccccccccccccccccsssccccccccccc" /><path
       style="color:#000000;font-style:normal;font-variant:normal;font-weight:normal;font-stretch:normal;font-size:medium;line-height:normal;font-family:sans-serif;font-variant-ligatures:normal;font-variant-position:normal;font-variant-caps:normal;font-variant-numeric:normal;font-variant-alternates:normal;font-feature-settings:normal;text-indent:0;text-align:start;text-decoration:none;text-decoration-line:none;text-decoration-style:solid;text-decoration-color:#000000;letter-spacing:normal;word-spacing:normal;text-transform:none;writing-mode:lr-tb;direction:ltr;text-orientation:mixed;dominant-baseline:auto;baseline-shift:baseline;text-anchor:start;white-space:normal;shape-padding:0;clip-rule:nonzero;display:inline;overflow:visible;visibility:visible;opacity:1;isolation:auto;mix-blend-mode:normal;color-interpolation:sRGB;color-interpolation-filters:linearRGB;solid-color:#000000;solid-opacity:1;vector-effect:none;fill:#000000;fill-opacity:1;fill-rule:nonzero;stroke:none;stroke-width:236.22001648;stroke-linecap:round;stroke-linejoin:round;stroke-miterlimit:10;stroke-dasharray:none;stroke-dashoffset:0;stroke-opacity:1;color-rendering:auto;image-rendering:auto;shape-rendering:auto;text-rendering:auto;enable-background:accumulate"
       d="m 69676.038,31019.586 c -65.228,0 -118.105,52.882 -118.112,118.11 v 5387.178 l -3740.883,-248.386 c -10.365,-1.562 -20.891,-1.739 -31.301,-0.52 -9.855,0.833 -19.56,3 -28.886,6.312 l -1934.357,504.57 c -16.78,-46.938 -61.217,-78.289 -111.063,-78.358 h -354.299 c -65.228,0 -118.104,52.882 -118.111,118.11 v 5.083 l -157.478,-17.889 v -183.998 c 0,-65.229 -52.883,-118.107 -118.112,-118.113 h -590.599 c -65.228,0 -118.105,52.885 -118.11,118.113 v 511.799 c 0,65.227 52.882,118.103 118.11,118.11 h 590.599 c 65.229,0 118.106,-52.882 118.112,-118.11 v -90.062 l 157.478,17.891 v 72.171 c 0,65.227 52.883,118.104 118.111,118.11 h 354.299 c 65.229,0 118.107,-52.882 118.112,-118.11 v -112.468 l 1979.772,-516.411 3748.606,248.895 v 6187.082 c 0,65.229 52.883,118.107 118.112,118.112 h 11811 c 65.229,0 118.105,-52.884 118.109,-118.112 V 31137.696 c 0,-65.227 -52.881,-118.102 -118.109,-118.11 z m -8366.201,5492.099 c -65.228,0 -118.105,52.885 -118.11,118.113 v 511.799 c 0,65.227 52.882,118.103 118.11,118.11 h 177.189 v 98.379 h -177.189 c -65.227,0 -118.103,52.883 -118.11,118.11 v 511.901 c 0,65.227 52.882,118.103 118.11,118.11 h 186.287 l 1.679,68.879 h -168.265 c -65.228,0 -118.105,52.882 -118.112,118.11 v 492.102 c 0,65.227 52.884,118.103 118.112,118.108 h 454.052 l 858.2,992.638 c 25.327,30.065 63.952,45.56 103.036,41.334 39.084,-4.229 73.505,-27.618 91.821,-62.402 0.355,-0.625 0.709,-1.313 1.06,-1.969 0.927,-1.875 1.811,-3.771 2.641,-5.687 1.096,-2.417 2.111,-4.865 3.041,-7.344 0.06,-0.208 0.125,-0.313 0.177,-0.521 16.788,-45.836 3.652,-97.278 -33.057,-129.453 l -780.15,-902.358 c 5.203,-13.517 7.876,-27.875 7.886,-42.359 v -492.102 c 0,-65.227 -52.883,-118.102 -118.11,-118.109 h -186.043 l -1.68,-68.879 h 168.021 c 65.229,0 118.106,-52.883 118.112,-118.111 v -511.901 c 0,-65.228 -52.884,-118.104 -118.112,-118.109 h -177.189 v -98.379 h 177.189 c 65.229,0 118.106,-52.883 118.112,-118.111 v -511.799 c 0,-65.229 -52.883,-118.107 -118.112,-118.112 z m 2834.701,570.901 c -65.228,0 -118.105,52.882 -118.112,118.11 v 314.901 c 0,65.228 52.883,118.105 118.112,118.11 h 354.299 c 44.09,-0.02 84.499,-24.598 104.798,-63.737 l 575.762,179.936 414.188,966.481 h -12.047 c -65.228,0 -118.105,52.882 -118.112,118.11 v 669.301 c 0,65.227 52.884,118.103 118.112,118.108 h 12.084 l -556.783,1299.18 h -500.602 c -65.227,0 -118.102,52.883 -118.109,118.11 v 59.089 H 53533.811 c -37.523,-6.187 -75.728,6.073 -102.646,32.94 -0.864,0.833 -1.716,1.625 -2.555,2.458 l -0.123,0.104 c -26.205,26.84 -38.105,64.531 -32.061,101.551 v 11772.785 c -6.183,37.522 6.077,75.726 32.94,102.644 0.805,0.865 1.624,1.717 2.455,2.557 l 0.129,0.117 c 26.84,26.208 64.532,38.109 101.555,32.065 h 11772.859 c 37.505,6.179 75.691,-6.067 102.607,-32.905 0.833,-0.82 1.75,-1.654 2.604,-2.501 l 0.08,-0.09 c 26.226,-26.841 38.138,-64.548 32.09,-101.584 V 42416.77 c 6.177,-37.497 -6.063,-75.677 -32.889,-102.594 -0.833,-0.938 -1.677,-1.771 -2.531,-2.635 v -0.01 l -0.03,-0.03 c -26.846,-26.25 -64.572,-38.173 -101.627,-32.119 H 54714.915 c -37.512,-6.187 -75.707,6.073 -102.625,32.916 -0.875,0.833 -1.74,1.646 -2.591,2.489 l -0.08,0.09 c -26.227,26.843 -38.139,64.549 -32.092,101.586 v 9410.56 c -6.184,37.523 6.077,75.727 32.94,102.645 0.802,0.865 1.623,1.716 2.453,2.556 l 0.135,0.125 c 26.84,26.205 64.53,38.104 101.551,32.06 h 9410.661 c 37.508,6.181 75.699,-6.068 102.615,-32.912 0.834,-0.823 1.74,-1.65 2.594,-2.494 l 0.08,-0.09 c 26.226,-26.841 38.138,-64.548 32.09,-101.584 V 43597.87 c 6.177,-37.508 -6.073,-75.699 -32.912,-102.615 -0.833,-0.875 -1.646,-1.745 -2.489,-2.598 l -0.09,-0.08 c -26.841,-26.226 -64.548,-38.137 -101.583,-32.09 h -8229.464 c -37.504,-6.179 -75.691,6.067 -102.607,32.905 -0.885,0.823 -1.75,1.654 -2.606,2.501 l -0.08,0.09 c -26.226,26.838 -38.137,64.545 -32.09,101.581 v 7048.358 c -6.18,37.505 6.066,75.693 32.905,102.609 0.823,0.886 1.654,1.75 2.501,2.607 l 0.09,0.08 c 26.841,26.226 64.548,38.137 101.584,32.09 h 7048.358 c 37.523,6.183 75.728,-6.077 102.646,-32.94 0.865,-0.802 1.717,-1.624 2.558,-2.456 l 0.114,-0.125 c 26.208,-26.84 38.109,-64.532 32.065,-101.555 v -5512.521 h 60.99 c 63.947,-0.04 116.247,-50.968 117.996,-114.891 11.614,-18.677 17.783,-40.226 17.812,-62.22 v -393.7 c 0,-65.227 -52.882,-118.103 -118.109,-118.11 h -393.699 c -42.111,0.07 -81.003,22.543 -102.08,59 h -510.121 c -65.228,0 -118.104,52.883 -118.11,118.111 v 115.885 l -761.207,46.404 c -47.336,-84.649 -137.971,-142.603 -240.783,-142.603 -150.871,0 -275.51,124.829 -275.51,275.609 0,150.78 124.639,275.612 275.51,275.612 114.643,0 214.134,-72.059 255.334,-172.846 l 746.656,-45.516 v 41.151 c 0,65.228 52.882,118.104 118.11,118.111 h 690.99 v 5413.379 h -6850.377 v -6850.379 h 8031.478 v 8031.478 h -9212.679 v -9212.58 h 10393.779 v 10393.68 H 53632.647 v -11574.78 h 10785.481 v 98.391 c 0,65.227 52.882,118.102 118.109,118.109 h 988.199 c 65.228,0 118.106,-52.882 118.112,-118.109 v -393.701 c -0.03,-7.323 -0.729,-14.616 -2.104,-21.801 -1.157,-64.365 -53.632,-115.954 -118.007,-116.008 h -220.156 l 548.342,-1279.481 h 400.215 c 65.229,0 118.105,-52.881 118.111,-118.108 v -669.301 c 0,-65.228 -52.882,-118.103 -118.111,-118.11 h -400.254 l -468.629,-1093.519 c -6.042,-22.158 -18.414,-42.072 -35.6,-57.308 -17.087,-15.938 -38.519,-26.451 -61.582,-30.207 l -667.824,-208.708 v -125.949 c 0,-65.228 -52.882,-118.103 -118.111,-118.11 z m -1771.701,275.5 c -65.227,0 -118.103,52.883 -118.11,118.11 v 511.901 c 0,65.227 52.882,118.103 118.11,118.11 h 149.48 l -5.045,68.879 h -203.435 c -65.227,0 -118.102,52.883 -118.11,118.11 v 492.102 c 0,65.226 52.883,118.101 118.11,118.108 h 590.5 c 65.228,0 118.104,-52.881 118.111,-118.108 v -492.102 c 0,-65.228 -52.883,-118.103 -118.111,-118.11 h -150.211 l 5.043,-68.879 h 204.267 c 65.229,0 118.106,-52.882 118.112,-118.11 v -137.89 h 157.478 v 39.39 c 0,65.227 52.883,118.104 118.111,118.11 h 354.299 c 47.451,-0.06 90.262,-28.504 108.699,-72.227 l 402.237,113.49 57.549,104.282 c -45.916,17.339 -76.327,61.264 -76.395,110.345 v 511.9 c 0,65.227 52.883,118.102 118.111,118.108 h 590.6 c 65.227,0 118.102,-52.881 118.109,-118.108 v -511.9 c 0,-65.227 -52.882,-118.103 -118.109,-118.111 h -366.796 l -131.841,-238.9 c -7.542,-19.458 -20.1,-36.57 -36.402,-49.598 -1.177,-1.041 -2.375,-1.968 -3.594,-2.916 -0.312,-0.209 -0.521,-0.417 -0.833,-0.625 -16.082,-12.273 -35.045,-20.211 -55.074,-23.052 l -488.161,-137.73 v -117.998 c 0,-65.229 -52.883,-118.105 -118.111,-118.11 h -354.299 c -65.228,0 -118.104,52.881 -118.111,118.11 v 39.29 h -157.478 v -137.79 c 0,-65.229 -52.884,-118.105 -118.112,-118.11 z m 885.8,787.4 c -65.228,0 -118.104,52.883 -118.111,118.111 v 511.9 c 0,65.227 52.883,118.102 118.111,118.108 h 227.118 l 64.423,472.381 h -153.742 c -65.227,0 -118.102,52.884 -118.109,118.111 v 669.3 c 0,65.227 52.882,118.102 118.109,118.109 h 669.301 c 65.227,0 118.102,-52.882 118.109,-118.109 v -14.853 l 295.584,125.036 c 6.292,145.522 128.387,263.826 275.307,263.826 150.871,0 275.609,-124.738 275.609,-275.608 0,-150.872 -124.828,-275.513 -275.609,-275.513 -69.618,0 -133.668,26.614 -182.49,70.07 l -388.401,-164.298 v -397.96 c 0,-65.227 -52.882,-118.103 -118.109,-118.111 h -277.152 l -64.424,-472.381 h 125.076 c 65.227,0 118.102,-52.881 118.109,-118.108 v -511.9 c 0,-65.227 -52.882,-118.103 -118.109,-118.111 z"
       id="path3305-6"
       inkscape:connector-curvature="0"
       sodipodi:nodetypes="ccccccccccccccccccccccccccccccccccccccccccccccccccccccsccccccccccccccccccccccccccccccccccccccccccccccccccccccccccccccccccccccccccccccccccccccccccccccccccccccccccccssscccccccccccccccccccccccccccccccccccccccccccccccccccccccccccccccccccccccccccccccccccccccccccccccccccccsssccccccccccc" /><path
       style="color:#000000;font-style:normal;font-variant:normal;font-weight:normal;font-stretch:normal;font-size:medium;line-height:normal;font-family:sans-serif;font-variant-ligatures:normal;font-variant-position:normal;font-variant-caps:normal;font-variant-numeric:normal;font-variant-alternates:normal;font-feature-settings:normal;text-indent:0;text-align:start;text-decoration:none;text-decoration-line:none;text-decoration-style:solid;text-decoration-color:#000000;letter-spacing:normal;word-spacing:normal;text-transform:none;writing-mode:lr-tb;direction:ltr;text-orientation:mixed;dominant-baseline:auto;baseline-shift:baseline;text-anchor:start;white-space:normal;shape-padding:0;clip-rule:nonzero;display:inline;overflow:visible;visibility:visible;opacity:1;isolation:auto;mix-blend-mode:normal;color-interpolation:sRGB;color-interpolation-filters:linearRGB;solid-color:#000000;solid-opacity:1;vector-effect:none;fill:#000000;fill-opacity:1;fill-rule:nonzero;stroke:none;stroke-width:236.22001648;stroke-linecap:round;stroke-linejoin:round;stroke-miterlimit:10;stroke-dasharray:none;stroke-dashoffset:0;stroke-opacity:1;color-rendering:auto;image-rendering:auto;shape-rendering:auto;text-rendering:auto;enable-background:accumulate"
       d="m 35509.371,2582.0852 c -65.228,0 -118.105,52.882 -118.112,118.11 v 5387.178 l -3740.883,-248.386 c -10.365,-1.562 -20.891,-1.739 -31.301,-0.52 -9.855,0.833 -19.56,3 -28.886,6.312 l -1934.357,504.57 c -16.78,-46.938 -61.217,-78.289 -111.063,-78.358 h -354.298 c -65.228,0 -118.104,52.882 -118.111,118.11 v 5.083 l -157.478,-17.889 v -183.998 c 0,-65.229 -52.883,-118.107 -118.112,-118.113 h -590.599 c -65.228,0 -118.105,52.885 -118.11,118.113 v 511.799 c 0,65.227 52.882,118.103 118.11,118.11 h 590.599 c 65.229,0 118.106,-52.882 118.112,-118.11 v -90.062 l 157.478,17.891 v 72.171 c 0,65.227 52.883,118.104 118.111,118.11 h 354.298 c 65.229,0 118.107,-52.882 118.112,-118.11 v -112.468 l 1979.772,-516.411 3748.606,248.895 v 6187.0818 c 0,65.229 52.883,118.107 118.112,118.112 h 11811 c 65.229,0 118.105,-52.884 118.109,-118.112 V 2700.1952 c 0,-65.227 -52.881,-118.102 -118.109,-118.11 z m -8366.2,5492.099 c -65.228,0 -118.105,52.885 -118.11,118.113 v 511.799 c 0,65.227 52.882,118.103 118.11,118.11 h 177.189 v 98.379 h -177.189 c -65.227,0 -118.103,52.883 -118.11,118.11 v 511.901 c 0,65.227 52.882,118.103 118.11,118.11 h 186.287 l 1.679,68.879 h -168.265 c -65.228,0 -118.105,52.882 -118.112,118.11 v 492.1018 c 0,65.227 52.884,118.103 118.112,118.108 h 454.051 l 858.201,992.638 c 25.327,30.065 63.952,45.56 103.036,41.334 39.084,-4.229 73.505,-27.618 91.821,-62.402 0.354,-0.625 0.708,-1.313 1.059,-1.969 0.927,-1.875 1.812,-3.771 2.642,-5.687 1.096,-2.417 2.11,-4.865 3.04,-7.344 0.06,-0.208 0.125,-0.313 0.177,-0.521 16.788,-45.836 3.653,-97.278 -33.057,-129.453 l -780.15,-902.358 c 5.204,-13.517 7.876,-27.875 7.886,-42.359 v -492.1018 c 0,-65.227 -52.883,-118.102 -118.11,-118.109 h -186.043 l -1.679,-68.879 h 168.021 c 65.229,0 118.106,-52.883 118.112,-118.111 v -511.901 c 0,-65.228 -52.884,-118.104 -118.112,-118.109 h -177.189 v -98.379 h 177.189 c 65.229,0 118.106,-52.883 118.112,-118.111 v -511.799 c 0,-65.229 -52.883,-118.107 -118.112,-118.112 z m 2834.7,570.901 c -65.228,0 -118.105,52.882 -118.112,118.11 v 314.901 c 0,65.228 52.883,118.105 118.112,118.11 h 354.299 c 44.09,-0.02 84.499,-24.598 104.798,-63.737 l 575.762,179.936 414.188,966.4808 h -12.047 c -65.228,0 -118.105,52.882 -118.112,118.11 v 669.301 c 0,65.227 52.884,118.103 118.112,118.108 h 12.084 l -556.783,1299.18 h -500.602 c -65.227,0 -118.102,52.883 -118.109,118.11 v 59.089 H 19367.145 c -37.523,-6.187 -75.728,6.073 -102.646,32.94 -0.864,0.833 -1.716,1.625 -2.555,2.458 l -0.123,0.104 c -26.205,26.84 -38.105,64.531 -32.061,101.551 v 11772.785 c -6.183,37.522 6.077,75.726 32.94,102.644 0.805,0.865 1.624,1.717 2.455,2.557 l 0.128,0.117 c 26.84,26.208 64.532,38.109 101.555,32.065 h 11772.859 c 37.505,6.179 75.691,-6.067 102.607,-32.905 0.833,-0.82 1.75,-1.654 2.604,-2.501 l 0.08,-0.09 c 26.226,-26.841 38.138,-64.548 32.09,-101.584 V 13979.269 c 6.177,-37.497 -6.063,-75.677 -32.889,-102.594 -0.833,-0.938 -1.677,-1.771 -2.531,-2.635 v -0.01 l -0.03,-0.03 c -26.846,-26.25 -64.572,-38.173 -101.627,-32.119 H 20548.249 c -37.512,-6.187 -75.707,6.073 -102.625,32.916 -0.875,0.833 -1.741,1.646 -2.592,2.489 l -0.08,0.09 c -26.227,26.843 -38.139,64.549 -32.092,101.586 v 9410.56 c -6.183,37.523 6.077,75.727 32.94,102.645 0.802,0.865 1.623,1.716 2.453,2.556 l 0.135,0.125 c 26.84,26.205 64.53,38.104 101.551,32.06 H 29958.6 c 37.508,6.181 75.699,-6.068 102.615,-32.912 0.834,-0.823 1.74,-1.65 2.594,-2.494 l 0.08,-0.09 c 26.226,-26.841 38.138,-64.548 32.09,-101.584 v -8229.459 c 6.177,-37.508 -6.073,-75.699 -32.912,-102.615 -0.833,-0.875 -1.646,-1.745 -2.489,-2.598 l -0.09,-0.08 c -26.841,-26.226 -64.548,-38.137 -101.583,-32.09 h -8229.463 c -37.504,-6.179 -75.691,6.067 -102.607,32.905 -0.886,0.823 -1.75,1.654 -2.607,2.501 l -0.08,0.09 c -26.225,26.838 -38.136,64.545 -32.089,101.581 v 7048.358 c -6.181,37.505 6.065,75.693 32.905,102.609 0.822,0.886 1.654,1.75 2.501,2.607 l 0.09,0.08 c 26.841,26.226 64.548,38.137 101.584,32.09 h 7048.358 c 37.523,6.183 75.728,-6.077 102.646,-32.94 0.864,-0.802 1.716,-1.624 2.557,-2.456 l 0.114,-0.125 c 26.208,-26.84 38.109,-64.532 32.065,-101.555 V 16696.21 h 60.99 c 63.947,-0.04 116.247,-50.968 117.997,-114.891 11.613,-18.677 17.782,-40.226 17.811,-62.22 v -393.7 c 0,-65.227 -52.881,-118.103 -118.109,-118.11 h -393.699 c -42.111,0.07 -81.003,22.543 -102.08,59 h -510.121 c -65.227,0 -118.104,52.883 -118.11,118.111 v 115.885 l -761.207,46.404 c -47.335,-84.649 -137.97,-142.603 -240.783,-142.603 -150.871,0 -275.51,124.829 -275.51,275.609 0,150.78 124.639,275.612 275.51,275.612 114.643,0 214.134,-72.059 255.334,-172.846 l 746.656,-45.516 v 41.151 c 0,65.228 52.883,118.104 118.11,118.111 h 690.99 v 5413.379 h -6850.376 v -6850.379 h 8031.477 v 8031.478 h -9212.678 v -9212.58 h 10393.778 v 10393.68 H 19465.981 v -11574.78 h 10785.48 v 98.391 c 0,65.227 52.882,118.102 118.109,118.109 h 988.199 c 65.228,0 118.106,-52.882 118.112,-118.109 v -393.701 c -0.03,-7.323 -0.729,-14.616 -2.104,-21.801 -1.157,-64.365 -53.632,-115.954 -118.007,-116.008 h -220.156 l 548.342,-1279.481 h 400.215 c 65.229,0 118.105,-52.881 118.111,-118.108 v -669.301 c 0,-65.228 -52.882,-118.103 -118.111,-118.11 h -400.254 l -468.629,-1093.5188 c -6.042,-22.158 -18.414,-42.072 -35.6,-57.308 -17.087,-15.938 -38.519,-26.451 -61.582,-30.207 l -667.824,-208.708 v -125.949 c 0,-65.228 -52.882,-118.103 -118.111,-118.11 z m -1771.7,275.5 c -65.227,0 -118.103,52.883 -118.11,118.11 v 511.901 c 0,65.227 52.882,118.103 118.11,118.11 h 149.48 l -5.045,68.879 h -203.435 c -65.227,0 -118.103,52.883 -118.11,118.11 v 492.1018 c 0,65.226 52.883,118.101 118.11,118.108 h 590.5 c 65.228,0 118.104,-52.881 118.111,-118.108 v -492.1018 c 0,-65.228 -52.883,-118.103 -118.111,-118.11 h -150.211 l 5.042,-68.879 h 204.267 c 65.229,0 118.106,-52.882 118.112,-118.11 v -137.89 h 157.478 v 39.39 c 0,65.227 52.883,118.104 118.111,118.11 h 354.299 c 47.451,-0.06 90.262,-28.504 108.699,-72.227 l 402.237,113.49 57.549,104.282 c -45.916,17.339 -76.327,61.264 -76.395,110.345 v 511.8998 c 0,65.227 52.883,118.102 118.111,118.108 h 590.6 c 65.227,0 118.102,-52.881 118.109,-118.108 v -511.8998 c 0,-65.227 -52.882,-118.103 -118.109,-118.111 h -366.796 l -131.841,-238.9 c -7.542,-19.458 -20.1,-36.57 -36.402,-49.598 -1.177,-1.041 -2.375,-1.968 -3.594,-2.916 -0.312,-0.209 -0.521,-0.417 -0.833,-0.625 -16.082,-12.273 -35.045,-20.211 -55.074,-23.052 l -488.161,-137.73 v -117.998 c 0,-65.229 -52.883,-118.105 -118.111,-118.11 h -354.299 c -65.228,0 -118.104,52.881 -118.111,118.11 v 39.29 h -157.478 v -137.79 c 0,-65.229 -52.884,-118.105 -118.112,-118.11 z m 885.8,787.4 c -65.228,0 -118.104,52.883 -118.111,118.111 v 511.8998 c 0,65.227 52.883,118.102 118.111,118.108 h 227.117 l 64.423,472.381 h -153.742 c -65.226,0 -118.101,52.884 -118.108,118.111 v 669.3 c 0,65.227 52.882,118.102 118.108,118.109 h 669.301 c 65.227,0 118.102,-52.882 118.109,-118.109 v -14.853 l 295.584,125.036 c 6.292,145.522 128.387,263.826 275.307,263.826 150.871,0 275.609,-124.738 275.609,-275.608 0,-150.872 -124.828,-275.513 -275.609,-275.513 -69.618,0 -133.668,26.614 -182.49,70.07 l -388.401,-164.298 v -397.96 c 0,-65.227 -52.882,-118.103 -118.109,-118.111 h -277.152 l -64.424,-472.381 h 125.076 c 65.227,0 118.102,-52.881 118.109,-118.108 v -511.8998 c 0,-65.227 -52.882,-118.103 -118.109,-118.111 z"
       id="path3305-7"
       inkscape:connector-curvature="0"
       sodipodi:nodetypes="ccccccccccccccccccccccccccccccccccccccccccccccccccccccsccccccccccccccccccccccccccccccccccccccccccccccccccccccccccccccccccccccccccccccccccccccccccccccccccccccccccccssscccccccccccccccccccccccccccccccccccccccccccccccccccccccccccccccccccccccccccccccccccccccccccccccccccccsssccccccccccc" /><path
       style="color:#000000;font-style:normal;font-variant:normal;font-weight:normal;font-stretch:normal;font-size:medium;line-height:normal;font-family:sans-serif;font-variant-ligatures:normal;font-variant-position:normal;font-variant-caps:normal;font-variant-numeric:normal;font-variant-alternates:normal;font-feature-settings:normal;text-indent:0;text-align:start;text-decoration:none;text-decoration-line:none;text-decoration-style:solid;text-decoration-color:#000000;letter-spacing:normal;word-spacing:normal;text-transform:none;writing-mode:lr-tb;direction:ltr;text-orientation:mixed;dominant-baseline:auto;baseline-shift:baseline;text-anchor:start;white-space:normal;shape-padding:0;clip-rule:nonzero;display:inline;overflow:visible;visibility:visible;opacity:1;isolation:auto;mix-blend-mode:normal;color-interpolation:sRGB;color-interpolation-filters:linearRGB;solid-color:#000000;solid-opacity:1;vector-effect:none;fill:#000000;fill-opacity:1;fill-rule:nonzero;stroke:none;stroke-width:236.22001648;stroke-linecap:round;stroke-linejoin:round;stroke-miterlimit:10;stroke-dasharray:none;stroke-dashoffset:0;stroke-opacity:1;color-rendering:auto;image-rendering:auto;shape-rendering:auto;text-rendering:auto;enable-background:accumulate"
       d="m 37592.705,31436.252 c -65.228,0 -118.105,52.882 -118.112,118.11 v 5387.178 l -3740.883,-248.386 c -10.365,-1.562 -20.891,-1.739 -31.301,-0.52 -9.855,0.833 -19.56,3 -28.886,6.312 l -1934.357,504.57 c -16.78,-46.938 -61.217,-78.289 -111.063,-78.358 h -354.299 c -65.228,0 -118.104,52.882 -118.111,118.11 v 5.083 l -157.478,-17.889 v -183.998 c 0,-65.229 -52.883,-118.107 -118.112,-118.113 h -590.599 c -65.228,0 -118.105,52.885 -118.11,118.113 v 511.799 c 0,65.227 52.882,118.103 118.11,118.11 h 590.599 c 65.229,0 118.106,-52.882 118.112,-118.11 v -90.062 l 157.478,17.891 v 72.171 c 0,65.227 52.883,118.104 118.111,118.11 h 354.299 c 65.229,0 118.107,-52.882 118.112,-118.11 v -112.468 l 1979.772,-516.411 3748.606,248.895 v 6187.082 c 0,65.229 52.883,118.107 118.112,118.112 h 11811 c 65.229,0 118.105,-52.884 118.109,-118.112 V 31554.362 c 0,-65.227 -52.881,-118.102 -118.109,-118.11 z m -8366.201,5492.099 c -65.228,0 -118.105,52.885 -118.11,118.113 v 511.799 c 0,65.227 52.882,118.103 118.11,118.11 h 177.189 v 98.379 h -177.189 c -65.227,0 -118.103,52.883 -118.11,118.11 v 511.901 c 0,65.227 52.882,118.103 118.11,118.11 h 186.287 l 1.679,68.879 h -168.265 c -65.228,0 -118.105,52.882 -118.112,118.11 v 492.102 c 0,65.227 52.884,118.103 118.112,118.108 h 454.051 l 858.201,992.638 c 25.327,30.065 63.952,45.56 103.036,41.334 39.084,-4.229 73.505,-27.618 91.821,-62.402 0.354,-0.625 0.708,-1.313 1.059,-1.969 0.927,-1.875 1.812,-3.771 2.642,-5.687 1.096,-2.417 2.11,-4.865 3.041,-7.344 0.06,-0.208 0.125,-0.313 0.177,-0.521 16.788,-45.836 3.652,-97.278 -33.057,-129.453 l -780.15,-902.358 c 5.203,-13.517 7.876,-27.875 7.885,-42.359 v -492.102 c 0,-65.227 -52.883,-118.102 -118.11,-118.109 h -186.043 l -1.679,-68.879 h 168.021 c 65.229,0 118.106,-52.883 118.112,-118.111 v -511.901 c 0,-65.228 -52.884,-118.104 -118.112,-118.109 h -177.189 v -98.379 h 177.189 c 65.229,0 118.106,-52.883 118.112,-118.111 v -511.799 c 0,-65.229 -52.883,-118.107 -118.112,-118.112 z m 2834.701,570.901 c -65.228,0 -118.105,52.882 -118.112,118.11 v 314.901 c 0,65.228 52.883,118.105 118.112,118.11 h 354.299 c 44.09,-0.02 84.499,-24.598 104.798,-63.737 l 575.762,179.936 414.188,966.481 h -12.047 c -65.228,0 -118.105,52.882 -118.112,118.11 v 669.301 c 0,65.227 52.884,118.103 118.112,118.108 h 12.084 l -556.783,1299.18 h -500.602 c -65.227,0 -118.102,52.883 -118.109,118.11 v 59.089 H 21450.478 c -37.523,-6.187 -75.728,6.073 -102.646,32.94 -0.864,0.833 -1.716,1.625 -2.555,2.458 l -0.123,0.104 c -26.205,26.84 -38.105,64.531 -32.061,101.551 v 11772.785 c -6.183,37.522 6.077,75.726 32.94,102.644 0.805,0.865 1.624,1.717 2.455,2.557 l 0.129,0.117 c 26.84,26.208 64.532,38.109 101.555,32.065 h 11772.859 c 37.505,6.179 75.691,-6.067 102.607,-32.905 0.833,-0.82 1.75,-1.654 2.604,-2.501 l 0.08,-0.09 c 26.226,-26.841 38.138,-64.548 32.09,-101.584 V 42833.436 c 6.177,-37.497 -6.063,-75.677 -32.889,-102.594 -0.833,-0.938 -1.677,-1.771 -2.531,-2.635 v -0.01 l -0.03,-0.03 c -26.846,-26.25 -64.572,-38.173 -101.627,-32.119 H 22631.582 c -37.512,-6.187 -75.707,6.073 -102.625,32.916 -0.875,0.833 -1.741,1.646 -2.592,2.489 l -0.08,0.09 c -26.227,26.843 -38.139,64.549 -32.092,101.586 v 9410.56 c -6.183,37.523 6.077,75.727 32.94,102.645 0.802,0.865 1.623,1.716 2.453,2.556 l 0.136,0.125 c 26.84,26.205 64.53,38.104 101.551,32.06 h 9410.661 c 37.508,6.181 75.699,-6.068 102.615,-32.912 0.834,-0.823 1.74,-1.65 2.594,-2.494 l 0.08,-0.09 c 26.226,-26.841 38.138,-64.548 32.09,-101.584 v -8229.459 c 6.177,-37.508 -6.073,-75.699 -32.912,-102.615 -0.833,-0.875 -1.646,-1.745 -2.489,-2.598 l -0.09,-0.08 c -26.841,-26.226 -64.548,-38.137 -101.583,-32.09 h -8229.464 c -37.504,-6.179 -75.691,6.067 -102.607,32.905 -0.886,0.823 -1.75,1.654 -2.606,2.501 l -0.08,0.09 c -26.226,26.838 -38.137,64.545 -32.09,101.581 v 7048.358 c -6.18,37.505 6.065,75.693 32.905,102.609 0.823,0.886 1.654,1.75 2.501,2.607 l 0.09,0.08 c 26.841,26.226 64.548,38.137 101.584,32.09 h 7048.358 c 37.523,6.183 75.728,-6.077 102.646,-32.94 0.864,-0.802 1.717,-1.624 2.557,-2.456 l 0.115,-0.125 c 26.208,-26.84 38.109,-64.532 32.065,-101.555 v -5512.521 h 60.99 c 63.947,-0.04 116.247,-50.968 117.996,-114.891 11.614,-18.677 17.783,-40.226 17.812,-62.22 v -393.7 c 0,-65.227 -52.882,-118.103 -118.109,-118.11 h -393.699 c -42.111,0.07 -81.003,22.543 -102.08,59 h -510.121 c -65.228,0 -118.104,52.883 -118.11,118.111 v 115.885 l -761.207,46.404 c -47.336,-84.649 -137.971,-142.603 -240.783,-142.603 -150.871,0 -275.51,124.829 -275.51,275.609 0,150.78 124.639,275.612 275.51,275.612 114.643,0 214.134,-72.059 255.334,-172.846 l 746.656,-45.516 v 41.151 c 0,65.228 52.882,118.104 118.11,118.111 h 690.99 v 5413.379 h -6850.377 v -6850.379 h 8031.478 v 8031.478 h -9212.679 v -9212.58 h 10393.779 v 10393.68 H 21549.314 v -11574.78 h 10785.481 v 98.391 c 0,65.227 52.882,118.102 118.109,118.109 h 988.199 c 65.228,0 118.106,-52.882 118.112,-118.109 v -393.701 c -0.03,-7.323 -0.729,-14.616 -2.104,-21.801 -1.157,-64.365 -53.632,-115.954 -118.007,-116.008 h -220.156 l 548.342,-1279.481 h 400.215 c 65.229,0 118.105,-52.881 118.111,-118.108 v -669.301 c 0,-65.228 -52.882,-118.103 -118.111,-118.11 h -400.254 l -468.629,-1093.519 c -6.042,-22.158 -18.414,-42.072 -35.6,-57.308 -17.087,-15.938 -38.519,-26.451 -61.582,-30.207 l -667.824,-208.708 v -125.949 c 0,-65.228 -52.882,-118.103 -118.111,-118.11 z m -1771.701,275.5 c -65.227,0 -118.103,52.883 -118.11,118.11 v 511.901 c 0,65.227 52.882,118.103 118.11,118.11 h 149.48 l -5.045,68.879 h -203.435 c -65.227,0 -118.103,52.883 -118.11,118.11 v 492.102 c 0,65.226 52.883,118.101 118.11,118.108 h 590.5 c 65.228,0 118.104,-52.881 118.111,-118.108 v -492.102 c 0,-65.228 -52.883,-118.103 -118.111,-118.11 h -150.211 l 5.043,-68.879 h 204.267 c 65.229,0 118.106,-52.882 118.112,-118.11 v -137.89 h 157.478 v 39.39 c 0,65.227 52.883,118.104 118.111,118.11 h 354.299 c 47.451,-0.06 90.262,-28.504 108.699,-72.227 l 402.237,113.49 57.549,104.282 c -45.916,17.339 -76.327,61.264 -76.395,110.345 v 511.9 c 0,65.227 52.883,118.102 118.111,118.108 h 590.6 c 65.227,0 118.102,-52.881 118.109,-118.108 v -511.9 c 0,-65.227 -52.882,-118.103 -118.109,-118.111 h -366.796 l -131.841,-238.9 c -7.542,-19.458 -20.1,-36.57 -36.402,-49.598 -1.177,-1.041 -2.375,-1.968 -3.594,-2.916 -0.312,-0.209 -0.521,-0.417 -0.833,-0.625 -16.082,-12.273 -35.045,-20.211 -55.074,-23.052 l -488.161,-137.73 v -117.998 c 0,-65.229 -52.883,-118.105 -118.111,-118.11 h -354.3 c -65.228,0 -118.104,52.881 -118.111,118.11 v 39.29 h -157.478 v -137.79 c 0,-65.229 -52.884,-118.105 -118.112,-118.11 z m 885.8,787.4 c -65.228,0 -118.104,52.883 -118.111,118.111 v 511.9 c 0,65.227 52.883,118.102 118.111,118.108 h 227.118 l 64.423,472.381 h -153.742 c -65.227,0 -118.102,52.884 -118.109,118.111 v 669.3 c 0,65.227 52.882,118.102 118.109,118.109 h 669.301 c 65.227,0 118.102,-52.882 118.109,-118.109 v -14.853 l 295.584,125.036 c 6.292,145.522 128.387,263.826 275.307,263.826 150.871,0 275.609,-124.738 275.609,-275.608 0,-150.872 -124.828,-275.513 -275.609,-275.513 -69.618,0 -133.668,26.614 -182.49,70.07 l -388.401,-164.298 v -397.96 c 0,-65.227 -52.882,-118.103 -118.109,-118.111 h -277.152 l -64.424,-472.381 h 125.076 c 65.227,0 118.102,-52.881 118.109,-118.108 v -511.9 c 0,-65.227 -52.882,-118.103 -118.109,-118.111 z"
       id="path3305-5"
       inkscape:connector-curvature="0"
       sodipodi:nodetypes="ccccccccccccccccccccccccccccccccccccccccccccccccccccccsccccccccccccccccccccccccccccccccccccccccccccccccccccccccccccccccccccccccccccccccccccccccccccccccccccccccccccssscccccccccccccccccccccccccccccccccccccccccccccccccccccccccccccccccccccccccccccccccccccccccccccccccccccsssccccccccccc" /><path
       style="color:#000000;font-style:normal;font-variant:normal;font-weight:normal;font-stretch:normal;font-size:medium;line-height:normal;font-family:sans-serif;font-variant-ligatures:normal;font-variant-position:normal;font-variant-caps:normal;font-variant-numeric:normal;font-variant-alternates:normal;font-feature-settings:normal;text-indent:0;text-align:start;text-decoration:none;text-decoration-line:none;text-decoration-style:solid;text-decoration-color:#000000;letter-spacing:normal;word-spacing:normal;text-transform:none;writing-mode:lr-tb;direction:ltr;text-orientation:mixed;dominant-baseline:auto;baseline-shift:baseline;text-anchor:start;white-space:normal;shape-padding:0;clip-rule:nonzero;display:inline;overflow:visible;visibility:visible;opacity:1;isolation:auto;mix-blend-mode:normal;color-interpolation:sRGB;color-interpolation-filters:linearRGB;solid-color:#000000;solid-opacity:1;vector-effect:none;fill:#000000;fill-opacity:1;fill-rule:nonzero;stroke:none;stroke-width:236.22001648;stroke-linecap:round;stroke-linejoin:round;stroke-miterlimit:10;stroke-dasharray:none;stroke-dashoffset:0;stroke-opacity:1;color-rendering:auto;image-rendering:auto;shape-rendering:auto;text-rendering:auto;enable-background:accumulate"
       d="m 100509.37,31332.085 c -65.23,0 -118.1,52.882 -118.11,118.11 v 5387.178 l -3740.884,-248.386 c -10.365,-1.562 -20.891,-1.739 -31.301,-0.52 -9.855,0.833 -19.56,3 -28.886,6.312 l -1934.357,504.57 c -16.78,-46.938 -61.217,-78.289 -111.063,-78.358 h -354.299 c -65.228,0 -118.104,52.882 -118.111,118.11 v 5.083 l -157.478,-17.889 v -183.998 c 0,-65.229 -52.883,-118.107 -118.112,-118.113 h -590.599 c -65.228,0 -118.105,52.885 -118.11,118.113 v 511.799 c 0,65.227 52.882,118.103 118.11,118.11 h 590.599 c 65.229,0 118.106,-52.882 118.112,-118.11 v -90.062 l 157.478,17.891 v 72.171 c 0,65.227 52.883,118.104 118.111,118.11 h 354.299 c 65.229,0 118.107,-52.882 118.112,-118.11 v -112.468 l 1979.772,-516.411 3748.607,248.895 v 6187.082 c 0,65.229 52.88,118.107 118.11,118.112 h 11811 c 65.23,0 118.11,-52.884 118.11,-118.112 V 31450.195 c 0,-65.227 -52.88,-118.102 -118.11,-118.11 z m -8366.2,5492.099 c -65.228,0 -118.105,52.885 -118.11,118.113 v 511.799 c 0,65.227 52.882,118.103 118.11,118.11 h 177.189 v 98.379 h -177.189 c -65.227,0 -118.103,52.883 -118.11,118.11 v 511.901 c 0,65.227 52.882,118.103 118.11,118.11 h 186.287 l 1.679,68.879 h -168.265 c -65.228,0 -118.105,52.882 -118.112,118.11 v 492.102 c 0,65.227 52.884,118.103 118.112,118.108 h 454.052 l 858.2,992.638 c 25.327,30.065 63.952,45.56 103.036,41.334 39.084,-4.229 73.505,-27.618 91.821,-62.402 0.355,-0.625 0.709,-1.313 1.06,-1.969 0.927,-1.875 1.811,-3.771 2.641,-5.687 1.096,-2.417 2.111,-4.865 3.041,-7.344 0.06,-0.208 0.125,-0.313 0.177,-0.521 16.788,-45.836 3.652,-97.278 -33.057,-129.453 l -780.15,-902.358 c 5.203,-13.517 7.876,-27.875 7.886,-42.359 v -492.102 c 0,-65.227 -52.883,-118.102 -118.11,-118.109 h -186.043 l -1.68,-68.879 h 168.021 c 65.229,0 118.106,-52.883 118.112,-118.111 v -511.901 c 0,-65.228 -52.884,-118.104 -118.112,-118.109 h -177.189 v -98.379 h 177.189 c 65.229,0 118.106,-52.883 118.112,-118.111 v -511.799 c 0,-65.229 -52.883,-118.107 -118.112,-118.112 z m 2834.701,570.901 c -65.228,0 -118.105,52.882 -118.112,118.11 v 314.901 c 0,65.228 52.883,118.105 118.112,118.11 h 354.299 c 44.09,-0.02 84.499,-24.598 104.798,-63.737 l 575.762,179.936 414.188,966.481 h -12.047 c -65.228,0 -118.105,52.882 -118.112,118.11 v 669.301 c 0,65.227 52.884,118.103 118.112,118.108 h 12.084 l -556.783,1299.18 h -500.602 c -65.227,0 -118.102,52.883 -118.109,118.11 v 59.089 H 84367.144 c -37.523,-6.187 -75.728,6.073 -102.646,32.94 -0.864,0.833 -1.716,1.625 -2.555,2.458 l -0.123,0.104 c -26.205,26.84 -38.105,64.531 -32.061,101.551 v 11772.785 c -6.183,37.522 6.077,75.726 32.94,102.644 0.805,0.865 1.624,1.717 2.455,2.557 l 0.129,0.117 c 26.84,26.208 64.532,38.109 101.555,32.065 h 11772.859 c 37.505,6.179 75.691,-6.067 102.607,-32.905 0.833,-0.82 1.75,-1.654 2.604,-2.501 l 0.08,-0.09 c 26.226,-26.841 38.138,-64.548 32.09,-101.584 V 42729.269 c 6.177,-37.497 -6.063,-75.677 -32.889,-102.594 -0.833,-0.938 -1.677,-1.771 -2.531,-2.635 v -0.01 l -0.03,-0.03 c -26.846,-26.25 -64.572,-38.173 -101.627,-32.119 H 85548.248 c -37.512,-6.187 -75.707,6.073 -102.625,32.916 -0.875,0.833 -1.74,1.646 -2.591,2.489 l -0.08,0.09 c -26.227,26.843 -38.139,64.549 -32.092,101.586 v 9410.56 c -6.184,37.523 6.077,75.727 32.94,102.645 0.802,0.865 1.623,1.716 2.453,2.556 l 0.135,0.125 c 26.84,26.205 64.53,38.104 101.551,32.06 H 94958.6 c 37.508,6.181 75.699,-6.068 102.615,-32.912 0.834,-0.823 1.74,-1.65 2.594,-2.494 l 0.08,-0.09 c 26.226,-26.841 38.138,-64.548 32.09,-101.584 v -8229.459 c 6.177,-37.508 -6.073,-75.699 -32.912,-102.615 -0.833,-0.875 -1.646,-1.745 -2.489,-2.598 l -0.09,-0.08 c -26.841,-26.226 -64.548,-38.137 -101.583,-32.09 h -8229.464 c -37.504,-6.179 -75.691,6.067 -102.607,32.905 -0.885,0.823 -1.75,1.654 -2.606,2.501 l -0.08,0.09 c -26.226,26.838 -38.137,64.545 -32.09,101.581 v 7048.358 c -6.18,37.505 6.066,75.693 32.905,102.609 0.823,0.886 1.654,1.75 2.501,2.607 l 0.09,0.08 c 26.841,26.226 64.548,38.137 101.584,32.09 h 7048.358 c 37.523,6.183 75.728,-6.077 102.646,-32.94 0.865,-0.802 1.717,-1.624 2.558,-2.456 l 0.114,-0.125 c 26.208,-26.84 38.109,-64.532 32.065,-101.555 V 45446.21 h 60.99 c 63.947,-0.04 116.247,-50.968 117.996,-114.891 11.614,-18.677 17.783,-40.226 17.812,-62.22 v -393.7 c 0,-65.227 -52.882,-118.103 -118.109,-118.11 h -393.699 c -42.111,0.07 -81.003,22.543 -102.08,59 h -510.121 c -65.228,0 -118.104,52.883 -118.11,118.111 v 115.885 l -761.207,46.404 c -47.336,-84.649 -137.971,-142.603 -240.783,-142.603 -150.871,0 -275.51,124.829 -275.51,275.609 0,150.78 124.639,275.612 275.51,275.612 114.643,0 214.134,-72.059 255.334,-172.846 l 746.656,-45.516 v 41.151 c 0,65.228 52.882,118.104 118.11,118.111 h 690.99 v 5413.379 h -6850.377 v -6850.379 h 8031.478 v 8031.478 H 85647.08 v -9212.58 h 10393.779 v 10393.68 H 84465.98 v -11574.78 h 10785.481 v 98.391 c 0,65.227 52.882,118.102 118.109,118.109 h 988.199 c 65.228,0 118.106,-52.882 118.112,-118.109 v -393.701 c -0.03,-7.323 -0.729,-14.616 -2.104,-21.801 -1.157,-64.365 -53.632,-115.954 -118.007,-116.008 h -220.156 l 548.342,-1279.481 h 400.215 c 65.229,0 118.105,-52.881 118.111,-118.108 v -669.301 c 0,-65.228 -52.882,-118.103 -118.111,-118.11 h -400.254 l -468.629,-1093.519 c -6.042,-22.158 -18.414,-42.072 -35.6,-57.308 -17.087,-15.938 -38.519,-26.451 -61.582,-30.207 l -667.824,-208.708 v -125.949 c 0,-65.228 -52.882,-118.103 -118.111,-118.11 z m -1771.701,275.5 c -65.227,0 -118.103,52.883 -118.11,118.11 v 511.901 c 0,65.227 52.882,118.103 118.11,118.11 h 149.48 l -5.045,68.879 h -203.435 c -65.227,0 -118.102,52.883 -118.11,118.11 v 492.102 c 0,65.226 52.883,118.101 118.11,118.108 h 590.5 c 65.228,0 118.104,-52.881 118.111,-118.108 v -492.102 c 0,-65.228 -52.883,-118.103 -118.111,-118.11 h -150.211 l 5.043,-68.879 h 204.267 c 65.229,0 118.106,-52.882 118.112,-118.11 v -137.89 h 157.478 v 39.39 c 0,65.227 52.883,118.104 118.111,118.11 h 354.299 c 47.451,-0.06 90.262,-28.504 108.699,-72.227 l 402.237,113.49 57.549,104.282 c -45.916,17.339 -76.327,61.264 -76.395,110.345 v 511.9 c 0,65.227 52.883,118.102 118.111,118.108 h 590.6 c 65.227,0 118.102,-52.881 118.109,-118.108 v -511.9 c 0,-65.227 -52.882,-118.103 -118.109,-118.111 h -366.796 l -131.841,-238.9 c -7.542,-19.458 -20.1,-36.57 -36.402,-49.598 -1.177,-1.041 -2.375,-1.968 -3.594,-2.916 -0.312,-0.209 -0.521,-0.417 -0.833,-0.625 -16.082,-12.273 -35.045,-20.211 -55.074,-23.052 l -488.161,-137.73 v -117.998 c 0,-65.229 -52.883,-118.105 -118.111,-118.11 h -354.299 c -65.228,0 -118.104,52.881 -118.111,118.11 v 39.29 h -157.478 v -137.79 c 0,-65.229 -52.884,-118.105 -118.112,-118.11 z m 885.8,787.4 c -65.228,0 -118.104,52.883 -118.111,118.111 v 511.9 c 0,65.227 52.883,118.102 118.111,118.108 h 227.118 l 64.423,472.381 h -153.742 c -65.227,0 -118.102,52.884 -118.109,118.111 v 669.3 c 0,65.227 52.882,118.102 118.109,118.109 h 669.301 c 65.227,0 118.102,-52.882 118.109,-118.109 v -14.853 l 295.584,125.036 c 6.292,145.522 128.387,263.826 275.307,263.826 150.871,0 275.609,-124.738 275.609,-275.608 0,-150.872 -124.828,-275.513 -275.609,-275.513 -69.618,0 -133.668,26.614 -182.49,70.07 l -388.401,-164.298 v -397.96 c 0,-65.227 -52.882,-118.103 -118.109,-118.111 h -277.152 l -64.424,-472.381 h 125.076 c 65.227,0 118.102,-52.881 118.109,-118.108 v -511.9 c 0,-65.227 -52.882,-118.103 -118.109,-118.111 z"
       id="path3305-35"
       inkscape:connector-curvature="0"
       sodipodi:nodetypes="ccccccccccccccccccccccccccccccccccccccccccccccccccccccsccccccccccccccccccccccccccccccccccccccccccccccccccccccccccccccccccccccccccccccccccccccccccccccccccccccccccccssscccccccccccccccccccccccccccccccccccccccccccccccccccccccccccccccccccccccccccccccccccccccccccccccccccccsssccccccccccc" /><path
       style="color:#000000;font-style:normal;font-variant:normal;font-weight:normal;font-stretch:normal;font-size:medium;line-height:normal;font-family:sans-serif;font-variant-ligatures:normal;font-variant-position:normal;font-variant-caps:normal;font-variant-numeric:normal;font-variant-alternates:normal;font-feature-settings:normal;text-indent:0;text-align:start;text-decoration:none;text-decoration-line:none;text-decoration-style:solid;text-decoration-color:#000000;letter-spacing:normal;word-spacing:normal;text-transform:none;writing-mode:lr-tb;direction:ltr;text-orientation:mixed;dominant-baseline:auto;baseline-shift:baseline;text-anchor:start;white-space:normal;shape-padding:0;clip-rule:nonzero;display:inline;overflow:visible;visibility:visible;opacity:1;isolation:auto;mix-blend-mode:normal;color-interpolation:sRGB;color-interpolation-filters:linearRGB;solid-color:#000000;solid-opacity:1;vector-effect:none;fill:#000000;fill-opacity:1;fill-rule:nonzero;stroke:none;stroke-width:236.22001648;stroke-linecap:round;stroke-linejoin:round;stroke-miterlimit:10;stroke-dasharray:none;stroke-dashoffset:0;stroke-opacity:1;color-rendering:auto;image-rendering:auto;shape-rendering:auto;text-rendering:auto;enable-background:accumulate"
       d="m 97696.87,56852.918 c -65.23,0 -118.1,52.882 -118.11,118.11 v 5387.178 l -3740.88,-248.386 c -10.37,-1.562 -20.89,-1.739 -31.3,-0.52 -9.86,0.833 -19.56,3 -28.89,6.312 l -1934.358,504.57 c -16.78,-46.938 -61.217,-78.289 -111.063,-78.358 h -354.298 c -65.228,0 -118.104,52.882 -118.111,118.11 v 5.083 l -157.478,-17.889 v -183.998 c 0,-65.229 -52.883,-118.107 -118.112,-118.113 h -590.599 c -65.228,0 -118.105,52.885 -118.11,118.113 v 511.799 c 0,65.227 52.882,118.103 118.11,118.11 h 590.599 c 65.229,0 118.106,-52.882 118.112,-118.11 v -90.062 l 157.478,17.891 v 72.171 c 0,65.227 52.883,118.104 118.111,118.11 h 354.298 c 65.229,0 118.107,-52.882 118.112,-118.11 v -112.468 l 1979.769,-516.411 3748.61,248.895 v 6187.082 c 0,65.229 52.88,118.107 118.11,118.112 h 11811 c 65.23,0 118.11,-52.884 118.11,-118.112 V 56971.028 c 0,-65.227 -52.88,-118.102 -118.11,-118.11 z m -8366.199,5492.099 c -65.228,0 -118.105,52.885 -118.11,118.113 v 511.799 c 0,65.227 52.882,118.103 118.11,118.11 h 177.189 v 98.379 h -177.189 c -65.227,0 -118.103,52.883 -118.11,118.11 v 511.901 c 0,65.227 52.882,118.103 118.11,118.11 h 186.287 l 1.679,68.879 h -168.265 c -65.228,0 -118.105,52.882 -118.112,118.11 v 492.102 c 0,65.227 52.884,118.103 118.112,118.108 h 454.051 l 858.201,992.638 c 25.327,30.065 63.952,45.56 103.036,41.334 39.084,-4.229 73.505,-27.618 91.821,-62.402 0.354,-0.625 0.708,-1.313 1.059,-1.969 0.927,-1.875 1.812,-3.771 2.642,-5.687 1.096,-2.417 2.11,-4.865 3.04,-7.344 0.06,-0.208 0.125,-0.313 0.177,-0.521 16.788,-45.836 3.653,-97.278 -33.057,-129.453 l -780.15,-902.358 c 5.204,-13.517 7.876,-27.875 7.886,-42.359 v -492.102 c 0,-65.227 -52.883,-118.102 -118.11,-118.109 h -186.043 l -1.679,-68.879 h 168.021 c 65.229,0 118.106,-52.883 118.112,-118.111 v -511.901 c 0,-65.228 -52.884,-118.104 -118.112,-118.109 h -177.189 v -98.379 h 177.189 c 65.229,0 118.106,-52.883 118.112,-118.111 v -511.799 c 0,-65.229 -52.883,-118.107 -118.112,-118.112 z m 2834.7,570.901 c -65.228,0 -118.105,52.882 -118.112,118.11 v 314.901 c 0,65.228 52.883,118.105 118.112,118.11 h 354.299 c 44.09,-0.02 84.5,-24.598 104.8,-63.737 l 575.76,179.936 414.19,966.481 h -12.05 c -65.23,0 -118.1,52.882 -118.11,118.11 v 669.301 c 0,65.227 52.88,118.103 118.11,118.108 h 12.09 l -556.79,1299.18 h -500.6 c -65.23,0 -118.1,52.883 -118.11,118.11 v 59.089 H 81554.645 c -37.523,-6.187 -75.728,6.073 -102.646,32.94 -0.864,0.833 -1.716,1.625 -2.555,2.458 l -0.123,0.104 c -26.205,26.84 -38.105,64.531 -32.061,101.551 v 11772.785 c -6.183,37.522 6.077,75.726 32.94,102.644 0.805,0.865 1.624,1.717 2.455,2.557 l 0.128,0.117 c 26.84,26.208 64.532,38.109 101.555,32.065 H 93327.2 c 37.5,6.179 75.69,-6.067 102.6,-32.905 0.84,-0.82 1.75,-1.654 2.61,-2.501 l 0.1,-0.09 c 26.22,-26.841 38.14,-64.548 32.09,-101.584 V 68250.102 c 6.18,-37.497 -6.06,-75.677 -32.89,-102.594 -0.83,-0.938 -1.68,-1.771 -2.53,-2.635 v -0.01 -0.03 c -26.85,-26.25 -64.57,-38.173 -101.63,-32.119 H 82735.749 c -37.512,-6.187 -75.707,6.073 -102.625,32.916 -0.875,0.833 -1.741,1.646 -2.592,2.489 l -0.08,0.09 c -26.227,26.843 -38.139,64.549 -32.092,101.586 v 9410.56 c -6.183,37.523 6.077,75.727 32.94,102.645 0.802,0.865 1.623,1.716 2.453,2.556 l 0.135,0.125 c 26.84,26.205 64.53,38.104 101.551,32.06 H 92146.1 c 37.508,6.181 75.7,-6.068 102.62,-32.912 0.83,-0.823 1.74,-1.65 2.59,-2.494 l 0.1,-0.09 c 26.23,-26.841 38.14,-64.548 32.09,-101.584 v -8229.459 c 6.18,-37.508 -6.07,-75.699 -32.91,-102.615 -0.84,-0.875 -1.65,-1.745 -2.49,-2.598 l -0.1,-0.08 c -26.84,-26.226 -64.55,-38.137 -101.585,-32.09 h -8229.463 c -37.504,-6.179 -75.691,6.067 -102.607,32.905 -0.886,0.823 -1.75,1.654 -2.607,2.501 l -0.08,0.09 c -26.225,26.838 -38.136,64.545 -32.089,101.581 v 7048.358 c -6.181,37.505 6.065,75.693 32.905,102.609 0.822,0.886 1.654,1.75 2.501,2.607 l 0.09,0.08 c 26.841,26.226 64.548,38.137 101.584,32.09 h 7048.358 c 37.523,6.183 75.728,-6.077 102.646,-32.94 0.864,-0.802 1.716,-1.624 2.557,-2.456 l 0.114,-0.125 c 26.208,-26.84 38.109,-64.532 32.065,-101.555 v -5512.521 h 60.99 c 63.947,-0.04 116.247,-50.968 117.997,-114.891 11.613,-18.677 17.782,-40.226 17.811,-62.22 v -393.7 c 0,-65.227 -52.881,-118.103 -118.109,-118.11 h -393.699 c -42.111,0.07 -81.003,22.543 -102.08,59 h -510.121 c -65.227,0 -118.104,52.883 -118.11,118.111 v 115.885 l -761.207,46.404 c -47.335,-84.649 -137.97,-142.603 -240.783,-142.603 -150.871,0 -275.51,124.829 -275.51,275.609 0,150.78 124.639,275.612 275.51,275.612 114.643,0 214.134,-72.059 255.334,-172.846 l 746.656,-45.516 v 41.151 c 0,65.228 52.883,118.104 118.11,118.111 h 690.99 v 5413.379 H 84015.792 V 69530.04 h 8031.477 v 8031.478 h -9212.678 v -9212.58 H 93228.37 v 10393.68 H 81653.481 V 67167.838 H 92438.96 v 98.391 c 0,65.227 52.88,118.102 118.11,118.109 h 988.2 c 65.23,0 118.11,-52.882 118.11,-118.109 v -393.701 c 0,-7.323 -0.73,-14.616 -2.1,-21.801 -1.16,-64.365 -53.63,-115.954 -118.01,-116.008 h -220.16 l 548.35,-1279.481 h 400.21 c 65.23,0 118.11,-52.881 118.11,-118.108 v -669.301 c 0,-65.228 -52.88,-118.103 -118.11,-118.11 h -400.25 L 93402.79,63456.2 c -6.04,-22.158 -18.42,-42.072 -35.6,-57.308 -17.09,-15.938 -38.52,-26.451 -61.58,-30.207 l -667.83,-208.708 v -125.949 c 0,-65.228 -52.88,-118.103 -118.11,-118.11 z m -1771.7,275.5 c -65.227,0 -118.103,52.883 -118.11,118.11 v 511.901 c 0,65.227 52.882,118.103 118.11,118.11 h 149.48 l -5.045,68.879 h -203.435 c -65.227,0 -118.103,52.883 -118.11,118.11 v 492.102 c 0,65.226 52.883,118.101 118.11,118.108 h 590.5 c 65.228,0 118.104,-52.881 118.111,-118.108 v -492.102 c 0,-65.228 -52.883,-118.103 -118.111,-118.11 h -150.211 l 5.042,-68.879 h 204.267 c 65.229,0 118.106,-52.882 118.112,-118.11 v -137.89 h 157.478 v 39.39 c 0,65.227 52.883,118.104 118.111,118.11 h 354.299 c 47.451,-0.06 90.262,-28.504 108.699,-72.227 l 402.242,113.49 57.54,104.282 c -45.91,17.339 -76.32,61.264 -76.39,110.345 v 511.9 c 0,65.227 52.88,118.102 118.11,118.108 h 590.6 c 65.23,0 118.1,-52.881 118.11,-118.108 v -511.9 c 0,-65.227 -52.88,-118.103 -118.11,-118.111 h -366.8 l -131.84,-238.9 c -7.54,-19.458 -20.1,-36.57 -36.4,-49.598 -1.18,-1.041 -2.37,-1.968 -3.59,-2.916 -0.31,-0.209 -0.52,-0.417 -0.84,-0.625 -16.08,-12.273 -35.04,-20.211 -55.07,-23.052 l -488.161,-137.73 v -117.998 c 0,-65.229 -52.883,-118.105 -118.111,-118.11 h -354.299 c -65.228,0 -118.104,52.881 -118.111,118.11 v 39.29 h -157.478 v -137.79 c 0,-65.229 -52.884,-118.105 -118.112,-118.11 z m 885.8,787.4 c -65.228,0 -118.104,52.883 -118.111,118.111 v 511.9 c 0,65.227 52.883,118.102 118.111,118.108 h 227.117 l 64.423,472.381 h -153.742 c -65.226,0 -118.101,52.884 -118.108,118.111 v 669.3 c 0,65.227 52.882,118.102 118.108,118.109 h 669.301 c 65.227,0 118.1,-52.882 118.11,-118.109 v -14.853 l 295.58,125.036 c 6.3,145.522 128.39,263.826 275.31,263.826 150.87,0 275.61,-124.738 275.61,-275.608 0,-150.872 -124.83,-275.513 -275.61,-275.513 -69.62,0 -133.67,26.614 -182.49,70.07 l -388.4,-164.298 v -397.96 c 0,-65.227 -52.883,-118.103 -118.11,-118.111 h -277.152 l -64.424,-472.381 h 125.076 c 65.227,0 118.102,-52.881 118.109,-118.108 v -511.9 c 0,-65.227 -52.882,-118.103 -118.109,-118.111 z"
       id="path3305-62"
       inkscape:connector-curvature="0"
       sodipodi:nodetypes="ccccccccccccccccccccccccccccccccccccccccccccccccccccccsccccccccccccccccccccccccccccccccccccccccccccccccccccccccccccccccccccccccccccccccccccccccccccccccccccccccccccssscccccccccccccccccccccccccccccccccccccccccccccccccccccccccccccccccccccccccccccccccccccccccccccccccccccsssccccccccccc" /><path
       style="color:#000000;font-style:normal;font-variant:normal;font-weight:normal;font-stretch:normal;font-size:medium;line-height:normal;font-family:sans-serif;font-variant-ligatures:normal;font-variant-position:normal;font-variant-caps:normal;font-variant-numeric:normal;font-variant-alternates:normal;font-feature-settings:normal;text-indent:0;text-align:start;text-decoration:none;text-decoration-line:none;text-decoration-style:solid;text-decoration-color:#000000;letter-spacing:normal;word-spacing:normal;text-transform:none;writing-mode:lr-tb;direction:ltr;text-orientation:mixed;dominant-baseline:auto;baseline-shift:baseline;text-anchor:start;white-space:normal;shape-padding:0;clip-rule:nonzero;display:inline;overflow:visible;visibility:visible;opacity:1;isolation:auto;mix-blend-mode:normal;color-interpolation:sRGB;color-interpolation-filters:linearRGB;solid-color:#000000;solid-opacity:1;vector-effect:none;fill:#000000;fill-opacity:1;fill-rule:nonzero;stroke:none;stroke-width:236.22001648;stroke-linecap:round;stroke-linejoin:round;stroke-miterlimit:10;stroke-dasharray:none;stroke-dashoffset:0;stroke-opacity:1;color-rendering:auto;image-rendering:auto;shape-rendering:auto;text-rendering:auto;enable-background:accumulate"
       d="m 62592.704,56957.085 c -65.228,0 -118.105,52.882 -118.112,118.11 v 5387.178 l -3740.883,-248.386 c -10.365,-1.562 -20.891,-1.739 -31.301,-0.52 -9.855,0.833 -19.56,3 -28.886,6.312 l -1934.357,504.57 c -16.78,-46.938 -61.217,-78.289 -111.063,-78.358 h -354.298 c -65.228,0 -118.104,52.882 -118.111,118.11 v 5.083 l -157.478,-17.889 v -183.998 c 0,-65.229 -52.883,-118.107 -118.112,-118.113 h -590.599 c -65.228,0 -118.105,52.885 -118.11,118.113 v 511.799 c 0,65.227 52.882,118.103 118.11,118.11 h 590.599 c 65.229,0 118.106,-52.882 118.112,-118.11 v -90.062 l 157.478,17.891 v 72.171 c 0,65.227 52.883,118.104 118.111,118.11 h 354.298 c 65.229,0 118.107,-52.882 118.112,-118.11 v -112.468 l 1979.772,-516.411 3748.606,248.895 v 6187.082 c 0,65.229 52.883,118.107 118.112,118.112 h 11810.999 c 65.23,0 118.11,-52.884 118.11,-118.112 V 57075.195 c 0,-65.227 -52.88,-118.102 -118.11,-118.11 z m -8366.2,5492.099 c -65.228,0 -118.105,52.885 -118.11,118.113 v 511.799 c 0,65.227 52.882,118.103 118.11,118.11 h 177.189 v 98.379 h -177.189 c -65.227,0 -118.103,52.883 -118.11,118.11 v 511.901 c 0,65.227 52.882,118.103 118.11,118.11 h 186.287 l 1.679,68.879 h -168.265 c -65.228,0 -118.105,52.882 -118.112,118.11 v 492.102 c 0,65.227 52.884,118.103 118.112,118.108 h 454.051 l 858.201,992.638 c 25.327,30.065 63.952,45.56 103.036,41.334 39.084,-4.229 73.505,-27.618 91.821,-62.402 0.354,-0.625 0.708,-1.313 1.059,-1.969 0.927,-1.875 1.812,-3.771 2.642,-5.687 1.096,-2.417 2.11,-4.865 3.04,-7.344 0.06,-0.208 0.125,-0.313 0.177,-0.521 16.788,-45.836 3.653,-97.278 -33.057,-129.453 l -780.15,-902.358 c 5.204,-13.517 7.876,-27.875 7.886,-42.359 v -492.102 c 0,-65.227 -52.883,-118.102 -118.11,-118.109 h -186.043 l -1.679,-68.879 h 168.021 c 65.229,0 118.106,-52.883 118.112,-118.111 v -511.901 c 0,-65.228 -52.884,-118.104 -118.112,-118.109 h -177.189 v -98.379 h 177.189 c 65.229,0 118.106,-52.883 118.112,-118.111 v -511.799 c 0,-65.229 -52.883,-118.107 -118.112,-118.112 z m 2834.7,570.901 c -65.228,0 -118.105,52.882 -118.112,118.11 v 314.901 c 0,65.228 52.883,118.105 118.112,118.11 h 354.299 c 44.09,-0.02 84.499,-24.598 104.798,-63.737 l 575.762,179.936 414.188,966.481 h -12.047 c -65.228,0 -118.105,52.882 -118.112,118.11 v 669.301 c 0,65.227 52.884,118.103 118.112,118.108 h 12.084 l -556.783,1299.18 h -500.602 c -65.227,0 -118.102,52.883 -118.109,118.11 v 59.089 H 46450.478 c -37.523,-6.187 -75.728,6.073 -102.646,32.94 -0.864,0.833 -1.716,1.625 -2.555,2.458 l -0.123,0.104 c -26.205,26.84 -38.105,64.531 -32.061,101.551 v 11772.785 c -6.183,37.522 6.077,75.726 32.94,102.644 0.805,0.865 1.624,1.717 2.455,2.557 l 0.128,0.117 c 26.84,26.208 64.532,38.109 101.555,32.065 H 58223.03 c 37.505,6.179 75.691,-6.067 102.607,-32.905 0.833,-0.82 1.75,-1.654 2.604,-2.501 l 0.08,-0.09 c 26.226,-26.841 38.138,-64.548 32.09,-101.584 V 68354.269 c 6.177,-37.497 -6.063,-75.677 -32.889,-102.594 -0.833,-0.938 -1.677,-1.771 -2.531,-2.635 v -0.01 l -0.03,-0.03 c -26.846,-26.25 -64.572,-38.173 -101.627,-32.119 H 47631.582 c -37.512,-6.187 -75.707,6.073 -102.625,32.916 -0.875,0.833 -1.741,1.646 -2.592,2.489 l -0.08,0.09 c -26.227,26.843 -38.139,64.549 -32.092,101.586 v 9410.56 c -6.183,37.523 6.077,75.727 32.94,102.645 0.802,0.865 1.623,1.716 2.453,2.556 l 0.135,0.125 c 26.84,26.205 64.53,38.104 101.551,32.06 h 9410.661 c 37.508,6.181 75.699,-6.068 102.615,-32.912 0.834,-0.823 1.74,-1.65 2.594,-2.494 l 0.08,-0.09 c 26.226,-26.841 38.138,-64.548 32.09,-101.584 v -8229.459 c 6.177,-37.508 -6.073,-75.699 -32.912,-102.615 -0.833,-0.875 -1.646,-1.745 -2.489,-2.598 l -0.09,-0.08 c -26.841,-26.226 -64.548,-38.137 -101.583,-32.09 h -8229.463 c -37.504,-6.179 -75.691,6.067 -102.607,32.905 -0.886,0.823 -1.75,1.654 -2.607,2.501 l -0.08,0.09 c -26.225,26.838 -38.136,64.545 -32.089,101.581 v 7048.358 c -6.181,37.505 6.065,75.693 32.905,102.609 0.822,0.886 1.654,1.75 2.501,2.607 l 0.09,0.08 c 26.841,26.226 64.548,38.137 101.584,32.09 h 7048.358 c 37.523,6.183 75.728,-6.077 102.646,-32.94 0.864,-0.802 1.716,-1.624 2.557,-2.456 l 0.114,-0.125 c 26.208,-26.84 38.109,-64.532 32.065,-101.555 V 71071.21 h 60.99 c 63.947,-0.04 116.247,-50.968 117.997,-114.891 11.613,-18.677 17.782,-40.226 17.811,-62.22 v -393.7 c 0,-65.227 -52.881,-118.103 -118.109,-118.11 h -393.699 c -42.111,0.07 -81.003,22.543 -102.08,59 h -510.121 c -65.227,0 -118.104,52.883 -118.11,118.111 v 115.885 l -761.207,46.404 c -47.335,-84.649 -137.97,-142.603 -240.783,-142.603 -150.871,0 -275.51,124.829 -275.51,275.609 0,150.78 124.639,275.612 275.51,275.612 114.643,0 214.134,-72.059 255.334,-172.846 l 746.656,-45.516 v 41.151 c 0,65.228 52.883,118.104 118.11,118.111 h 690.99 v 5413.379 h -6850.376 v -6850.379 h 8031.477 v 8031.478 h -9212.678 v -9212.58 h 10393.778 v 10393.68 H 46549.314 v -11574.78 h 10785.48 v 98.391 c 0,65.227 52.882,118.102 118.109,118.109 h 988.199 c 65.228,0 118.106,-52.882 118.112,-118.109 v -393.701 c -0.03,-7.323 -0.729,-14.616 -2.104,-21.801 -1.157,-64.365 -53.632,-115.954 -118.007,-116.008 h -220.156 l 548.342,-1279.481 h 400.215 c 65.229,0 118.105,-52.881 118.111,-118.108 v -669.301 c 0,-65.228 -52.882,-118.103 -118.111,-118.11 h -400.254 l -468.629,-1093.519 c -6.042,-22.158 -18.414,-42.072 -35.6,-57.308 -17.087,-15.938 -38.519,-26.451 -61.582,-30.207 l -667.824,-208.708 v -125.949 c 0,-65.228 -52.882,-118.103 -118.111,-118.11 z m -1771.7,275.5 c -65.227,0 -118.103,52.883 -118.11,118.11 v 511.901 c 0,65.227 52.882,118.103 118.11,118.11 h 149.48 l -5.045,68.879 h -203.435 c -65.227,0 -118.103,52.883 -118.11,118.11 v 492.102 c 0,65.226 52.883,118.101 118.11,118.108 h 590.5 c 65.228,0 118.104,-52.881 118.111,-118.108 v -492.102 c 0,-65.228 -52.883,-118.103 -118.111,-118.11 h -150.211 l 5.042,-68.879 h 204.267 c 65.229,0 118.106,-52.882 118.112,-118.11 v -137.89 h 157.478 v 39.39 c 0,65.227 52.883,118.104 118.111,118.11 h 354.299 c 47.451,-0.06 90.262,-28.504 108.699,-72.227 l 402.237,113.49 57.549,104.282 c -45.916,17.339 -76.327,61.264 -76.395,110.345 v 511.9 c 0,65.227 52.883,118.102 118.111,118.108 h 590.6 c 65.227,0 118.102,-52.881 118.109,-118.108 v -511.9 c 0,-65.227 -52.882,-118.103 -118.109,-118.111 h -366.796 l -131.841,-238.9 c -7.542,-19.458 -20.1,-36.57 -36.402,-49.598 -1.177,-1.041 -2.375,-1.968 -3.594,-2.916 -0.312,-0.209 -0.521,-0.417 -0.833,-0.625 -16.082,-12.273 -35.045,-20.211 -55.074,-23.052 l -488.161,-137.73 v -117.998 c 0,-65.229 -52.883,-118.105 -118.111,-118.11 h -354.299 c -65.228,0 -118.104,52.881 -118.111,118.11 v 39.29 h -157.478 v -137.79 c 0,-65.229 -52.884,-118.105 -118.112,-118.11 z m 885.8,787.4 c -65.228,0 -118.104,52.883 -118.111,118.111 v 511.9 c 0,65.227 52.883,118.102 118.111,118.108 h 227.117 l 64.423,472.381 h -153.742 c -65.226,0 -118.101,52.884 -118.108,118.111 v 669.3 c 0,65.227 52.882,118.102 118.108,118.109 h 669.301 c 65.227,0 118.102,-52.882 118.109,-118.109 v -14.853 l 295.584,125.036 c 6.292,145.522 128.387,263.826 275.307,263.826 150.871,0 275.609,-124.738 275.609,-275.608 0,-150.872 -124.828,-275.513 -275.609,-275.513 -69.618,0 -133.668,26.614 -182.49,70.07 l -388.401,-164.298 v -397.96 c 0,-65.227 -52.882,-118.103 -118.109,-118.111 h -277.152 l -64.424,-472.381 h 125.076 c 65.227,0 118.102,-52.881 118.109,-118.108 v -511.9 c 0,-65.227 -52.882,-118.103 -118.109,-118.111 z"
       id="path3305-9"
       inkscape:connector-curvature="0"
       sodipodi:nodetypes="ccccccccccccccccccccccccccccccccccccccccccccccccccccccsccccccccccccccccccccccccccccccccccccccccccccccccccccccccccccccccccccccccccccccccccccccccccccccccccccccccccccssscccccccccccccccccccccccccccccccccccccccccccccccccccccccccccccccccccccccccccccccccccccccccccccccccccccsssccccccccccc" /><path
       style="color:#000000;font-style:normal;font-variant:normal;font-weight:normal;font-stretch:normal;font-size:medium;line-height:normal;font-family:sans-serif;font-variant-ligatures:normal;font-variant-position:normal;font-variant-caps:normal;font-variant-numeric:normal;font-variant-alternates:normal;font-feature-settings:normal;text-indent:0;text-align:start;text-decoration:none;text-decoration-line:none;text-decoration-style:solid;text-decoration-color:#000000;letter-spacing:normal;word-spacing:normal;text-transform:none;writing-mode:lr-tb;direction:ltr;text-orientation:mixed;dominant-baseline:auto;baseline-shift:baseline;text-anchor:start;white-space:normal;shape-padding:0;clip-rule:nonzero;display:inline;overflow:visible;visibility:visible;opacity:1;isolation:auto;mix-blend-mode:normal;color-interpolation:sRGB;color-interpolation-filters:linearRGB;solid-color:#000000;solid-opacity:1;vector-effect:none;fill:#000000;fill-opacity:1;fill-rule:nonzero;stroke:none;stroke-width:236.22001648;stroke-linecap:round;stroke-linejoin:round;stroke-miterlimit:10;stroke-dasharray:none;stroke-dashoffset:0;stroke-opacity:1;color-rendering:auto;image-rendering:auto;shape-rendering:auto;text-rendering:auto;enable-background:accumulate"
       d="m 23634.371,57790.419 c -65.228,0 -118.105,52.882 -118.112,118.11 v 5387.178 l -3740.883,-248.386 c -10.365,-1.562 -20.891,-1.739 -31.301,-0.52 -9.855,0.833 -19.56,3 -28.886,6.312 l -1934.357,504.57 c -16.78,-46.938 -61.217,-78.289 -111.063,-78.358 h -354.299 c -65.228,0 -118.104,52.882 -118.111,118.11 v 5.083 l -157.478,-17.889 v -183.998 c 0,-65.229 -52.883,-118.107 -118.112,-118.113 h -590.599 c -65.228,0 -118.105,52.885 -118.11,118.113 v 511.799 c 0,65.227 52.882,118.103 118.11,118.11 h 590.599 c 65.229,0 118.106,-52.882 118.112,-118.11 v -90.062 l 157.478,17.891 v 72.171 c 0,65.227 52.883,118.104 118.111,118.11 h 354.299 c 65.229,0 118.107,-52.882 118.112,-118.11 v -112.468 l 1979.772,-516.411 3748.606,248.895 v 6187.082 c 0,65.229 52.883,118.107 118.112,118.112 h 11811 c 65.229,0 118.105,-52.884 118.109,-118.112 V 57908.529 c 0,-65.227 -52.881,-118.102 -118.109,-118.11 z m -8366.201,5492.099 c -65.228,0 -118.105,52.885 -118.11,118.113 v 511.799 c 0,65.227 52.882,118.103 118.11,118.11 h 177.189 v 98.379 h -177.189 c -65.227,0 -118.103,52.883 -118.11,118.11 v 511.901 c 0,65.227 52.882,118.103 118.11,118.11 h 186.287 l 1.679,68.879 h -168.265 c -65.228,0 -118.105,52.882 -118.112,118.11 v 492.102 c 0,65.227 52.884,118.103 118.112,118.108 h 454.052 l 858.2,992.638 c 25.327,30.065 63.952,45.56 103.036,41.334 39.084,-4.229 73.505,-27.618 91.821,-62.402 0.355,-0.625 0.709,-1.313 1.06,-1.969 0.927,-1.875 1.811,-3.771 2.641,-5.687 1.096,-2.417 2.111,-4.865 3.041,-7.344 0.06,-0.208 0.125,-0.313 0.177,-0.521 16.788,-45.836 3.652,-97.278 -33.057,-129.453 l -780.15,-902.358 c 5.203,-13.517 7.876,-27.875 7.886,-42.359 v -492.102 c 0,-65.227 -52.883,-118.102 -118.11,-118.109 h -186.043 l -1.68,-68.879 h 168.021 c 65.229,0 118.106,-52.883 118.112,-118.111 v -511.901 c 0,-65.228 -52.884,-118.104 -118.112,-118.109 h -177.189 v -98.379 h 177.189 c 65.229,0 118.106,-52.883 118.112,-118.111 v -511.799 c 0,-65.229 -52.883,-118.107 -118.112,-118.112 z m 2834.701,570.901 c -65.228,0 -118.105,52.882 -118.112,118.11 v 314.901 c 0,65.228 52.883,118.105 118.112,118.11 h 354.299 c 44.09,-0.02 84.499,-24.598 104.798,-63.737 l 575.762,179.936 414.188,966.481 h -12.047 c -65.228,0 -118.105,52.882 -118.112,118.11 v 669.301 c 0,65.227 52.884,118.103 118.112,118.108 h 12.084 l -556.783,1299.18 h -500.602 c -65.227,0 -118.102,52.883 -118.109,118.11 v 59.089 H 7492.1443 c -37.523,-6.187 -75.728,6.073 -102.646,32.94 -0.864,0.833 -1.716,1.625 -2.555,2.458 l -0.123,0.104 c -26.205,26.84 -38.105,64.531 -32.061,101.551 v 11772.785 c -6.183,37.522 6.077,75.726 32.94,102.644 0.805,0.865 1.624,1.717 2.455,2.557 l 0.129,0.117 c 26.84,26.208 64.532,38.109 101.555,32.065 H 19264.697 c 37.505,6.179 75.691,-6.067 102.607,-32.905 0.833,-0.82 1.75,-1.654 2.604,-2.501 l 0.08,-0.09 c 26.226,-26.841 38.138,-64.548 32.09,-101.584 V 69187.603 c 6.177,-37.497 -6.063,-75.677 -32.889,-102.594 -0.833,-0.938 -1.677,-1.771 -2.531,-2.635 v -0.01 l -0.03,-0.03 c -26.846,-26.25 -64.572,-38.173 -101.627,-32.119 H 8673.2483 c -37.512,-6.187 -75.707,6.073 -102.625,32.916 -0.875,0.833 -1.74,1.646 -2.591,2.489 l -0.08,0.09 c -26.227,26.843 -38.139,64.549 -32.092,101.586 v 9410.56 c -6.184,37.523 6.077,75.727 32.94,102.645 0.802,0.865 1.623,1.716 2.453,2.556 l 0.135,0.125 c 26.84,26.205 64.53,38.104 101.551,32.06 H 18083.6 c 37.508,6.181 75.699,-6.068 102.615,-32.912 0.834,-0.823 1.74,-1.65 2.594,-2.494 l 0.08,-0.09 c 26.226,-26.841 38.138,-64.548 32.09,-101.584 v -8229.459 c 6.177,-37.508 -6.073,-75.699 -32.912,-102.615 -0.833,-0.875 -1.646,-1.745 -2.489,-2.598 l -0.09,-0.08 c -26.841,-26.226 -64.548,-38.137 -101.583,-32.09 H 9854.4413 c -37.504,-6.179 -75.691,6.067 -102.607,32.905 -0.885,0.823 -1.75,1.654 -2.606,2.501 l -0.08,0.09 c -26.226,26.838 -38.137,64.545 -32.09,101.581 v 7048.358 c -6.18,37.505 6.066,75.693 32.905,102.609 0.823,0.886 1.654,1.75 2.501,2.607 l 0.09,0.08 c 26.841,26.226 64.548,38.137 101.584,32.09 h 7048.3577 c 37.523,6.183 75.728,-6.077 102.646,-32.94 0.865,-0.802 1.717,-1.624 2.558,-2.456 l 0.114,-0.125 c 26.208,-26.84 38.109,-64.532 32.065,-101.555 v -5512.521 h 60.99 c 63.947,-0.04 116.247,-50.968 117.996,-114.891 11.614,-18.677 17.783,-40.226 17.812,-62.22 v -393.7 c 0,-65.227 -52.882,-118.103 -118.109,-118.11 h -393.699 c -42.111,0.07 -81.003,22.543 -102.08,59 h -510.121 c -65.228,0 -118.104,52.883 -118.11,118.111 v 115.885 l -761.207,46.404 c -47.336,-84.649 -137.971,-142.603 -240.783,-142.603 -150.871,0 -275.51,124.829 -275.51,275.609 0,150.78 124.639,275.612 275.51,275.612 114.643,0 214.134,-72.059 255.334,-172.846 l 746.656,-45.516 v 41.151 c 0,65.228 52.882,118.104 118.11,118.111 h 690.99 V 77317.92 H 9953.2813 v -6850.379 h 8031.4777 v 8031.478 H 8772.0803 v -9212.58 H 19165.859 v 10393.68 H 7590.9803 V 68105.339 H 18376.461 v 98.391 c 0,65.227 52.882,118.102 118.109,118.109 h 988.199 c 65.228,0 118.106,-52.882 118.112,-118.109 v -393.701 c -0.03,-7.323 -0.729,-14.616 -2.104,-21.801 -1.157,-64.365 -53.632,-115.954 -118.007,-116.008 h -220.156 l 548.342,-1279.481 h 400.215 c 65.229,0 118.105,-52.881 118.111,-118.108 v -669.301 c 0,-65.228 -52.882,-118.103 -118.111,-118.11 h -400.254 l -468.629,-1093.519 c -6.042,-22.158 -18.414,-42.072 -35.6,-57.308 -17.087,-15.938 -38.519,-26.451 -61.582,-30.207 l -667.824,-208.708 v -125.949 c 0,-65.228 -52.882,-118.103 -118.111,-118.11 z m -1771.701,275.5 c -65.227,0 -118.103,52.883 -118.11,118.11 v 511.901 c 0,65.227 52.882,118.103 118.11,118.11 h 149.48 l -5.045,68.879 h -203.435 c -65.227,0 -118.102,52.883 -118.11,118.11 v 492.102 c 0,65.226 52.883,118.101 118.11,118.108 h 590.5 c 65.228,0 118.104,-52.881 118.111,-118.108 v -492.102 c 0,-65.228 -52.883,-118.103 -118.111,-118.11 h -150.211 l 5.043,-68.879 h 204.267 c 65.229,0 118.106,-52.882 118.112,-118.11 v -137.89 h 157.478 v 39.39 c 0,65.227 52.883,118.104 118.111,118.11 h 354.299 c 47.451,-0.06 90.262,-28.504 108.699,-72.227 l 402.237,113.49 57.549,104.282 c -45.916,17.339 -76.327,61.264 -76.395,110.345 v 511.9 c 0,65.227 52.883,118.102 118.111,118.108 h 590.6 c 65.227,0 118.102,-52.881 118.109,-118.108 v -511.9 c 0,-65.227 -52.882,-118.103 -118.109,-118.111 h -366.796 l -131.841,-238.9 c -7.542,-19.458 -20.1,-36.57 -36.402,-49.598 -1.177,-1.041 -2.375,-1.968 -3.594,-2.916 -0.312,-0.209 -0.521,-0.417 -0.833,-0.625 -16.082,-12.273 -35.045,-20.211 -55.074,-23.052 l -488.161,-137.73 V 64345.5 c 0,-65.229 -52.883,-118.105 -118.111,-118.11 h -354.299 c -65.228,0 -118.104,52.881 -118.111,118.11 v 39.29 H 17039.87 V 64247 c 0,-65.229 -52.884,-118.105 -118.112,-118.11 z m 885.8,787.4 c -65.228,0 -118.104,52.883 -118.111,118.111 v 511.9 c 0,65.227 52.883,118.102 118.111,118.108 h 227.118 l 64.423,472.381 h -153.742 c -65.227,0 -118.102,52.884 -118.109,118.111 v 669.3 c 0,65.227 52.882,118.102 118.109,118.109 h 669.301 c 65.227,0 118.102,-52.882 118.109,-118.109 v -14.853 l 295.584,125.036 c 6.292,145.522 128.387,263.826 275.307,263.826 150.871,0 275.609,-124.738 275.609,-275.608 0,-150.872 -124.828,-275.513 -275.609,-275.513 -69.618,0 -133.668,26.614 -182.49,70.07 l -388.401,-164.298 v -397.96 c 0,-65.227 -52.882,-118.103 -118.109,-118.111 h -277.152 l -64.424,-472.381 h 125.076 c 65.227,0 118.102,-52.881 118.109,-118.108 v -511.9 c 0,-65.227 -52.882,-118.103 -118.109,-118.111 z"
       id="path3305-1"
       inkscape:connector-curvature="0"
       sodipodi:nodetypes="ccccccccccccccccccccccccccccccccccccccccccccccccccccccsccccccccccccccccccccccccccccccccccccccccccccccccccccccccccccccccccccccccccccccccccccccccccccccccccccccccccccssscccccccccccccccccccccccccccccccccccccccccccccccccccccccccccccccccccccccccccccccccccccccccccccccccccccsssccccccccccc" /></g></svg>