<?xml version="1.0" encoding="UTF-8" standalone="no"?>
<!-- Created with Inkscape (http://www.inkscape.org/) -->

<svg
   xmlns:dc="http://purl.org/dc/elements/1.1/"
   xmlns:cc="http://creativecommons.org/ns#"
   xmlns:rdf="http://www.w3.org/1999/02/22-rdf-syntax-ns#"
   xmlns:svg="http://www.w3.org/2000/svg"
   xmlns="http://www.w3.org/2000/svg"
   xmlns:sodipodi="http://sodipodi.sourceforge.net/DTD/sodipodi-0.dtd"
   xmlns:inkscape="http://www.inkscape.org/namespaces/inkscape"
   version="1.1"
   id="svg1914"
   xml:space="preserve"
   width="1122.6667"
   height="794.66669"
   viewBox="0 0 1122.6667 794.66669"
   sodipodi:docname="bug_radio-F.Cu.pdf"><metadata
     id="metadata1920"><rdf:RDF><cc:Work
         rdf:about=""><dc:format>image/svg+xml</dc:format><dc:type
           rdf:resource="http://purl.org/dc/dcmitype/StillImage" /></cc:Work></rdf:RDF></metadata><defs
     id="defs1918" /><sodipodi:namedview
     pagecolor="#ffffff"
     bordercolor="#666666"
     borderopacity="1"
     objecttolerance="10"
     gridtolerance="10"
     guidetolerance="10"
     inkscape:pageopacity="0"
     inkscape:pageshadow="2"
     inkscape:window-width="640"
     inkscape:window-height="480"
     id="namedview1916"
     showgrid="false" /><g
     id="g1922"
     inkscape:groupmode="layer"
     inkscape:label="bug_radio-F.Cu"
     transform="matrix(0.0096,0,0,-0.0096,0,794.66667)"><path
       style="color:#000000;font-style:normal;font-variant:normal;font-weight:normal;font-stretch:normal;font-size:medium;line-height:normal;font-family:sans-serif;font-variant-ligatures:normal;font-variant-position:normal;font-variant-caps:normal;font-variant-numeric:normal;font-variant-alternates:normal;font-feature-settings:normal;text-indent:0;text-align:start;text-decoration:none;text-decoration-line:none;text-decoration-style:solid;text-decoration-color:#000000;letter-spacing:normal;word-spacing:normal;text-transform:none;writing-mode:lr-tb;direction:ltr;text-orientation:mixed;dominant-baseline:auto;baseline-shift:baseline;text-anchor:start;white-space:normal;shape-padding:0;clip-rule:nonzero;display:inline;overflow:visible;visibility:visible;opacity:1;isolation:auto;mix-blend-mode:normal;color-interpolation:sRGB;color-interpolation-filters:linearRGB;solid-color:#000000;solid-opacity:1;vector-effect:none;fill:#000000;fill-opacity:1;fill-rule:nonzero;stroke:none;stroke-width:236.22000122;stroke-linecap:round;stroke-linejoin:round;stroke-miterlimit:10;stroke-dasharray:none;stroke-dashoffset:0;stroke-opacity:1;color-rendering:auto;image-rendering:auto;shape-rendering:auto;text-rendering:auto;enable-background:accumulate"
       d="m 54389.801,36302.09 a 118.12181,118.12181 0 0 0 -118.112,118.109 v 5387.178 l -3740.884,-248.385 a 118.12181,118.12181 0 0 0 -31.301,-0.521 118.12181,118.12181 0 0 0 -28.885,6.308 l -1934.357,504.569 a 118.12181,118.12181 0 0 0 -111.063,-78.358 H 48070.9 a 118.12181,118.12181 0 0 0 -118.111,118.11 v 5.089 l -157.478,-17.89 v -183.998 a 118.12181,118.12181 0 0 0 -118.112,-118.112 H 47086.6 a 118.12181,118.12181 0 0 0 -118.11,118.112 v 511.799 a 118.12181,118.12181 0 0 0 118.11,118.111 h 590.599 a 118.12181,118.12181 0 0 0 118.112,-118.111 v -90.061 l 157.478,17.891 v 72.17 a 118.12181,118.12181 0 0 0 118.111,118.111 h 354.299 a 118.12181,118.12181 0 0 0 118.112,-118.111 v -112.467 l 1979.771,-516.412 3748.607,248.896 v 6187.082 a 118.12181,118.12181 0 0 0 118.112,118.112 h 11811 a 118.12181,118.12181 0 0 0 118.109,-118.112 v -11811 a 118.12181,118.12181 0 0 0 -118.109,-118.109 z m 118.109,236.221 H 66082.689 V 48113.09 H 54507.91 v -6053.287 l 5779.565,383.748 a 118.12181,118.12181 0 1 0 15.65,-235.701 l -5795.215,-384.788 z m -8484.31,5255.878 a 118.12181,118.12181 0 0 0 -118.11,118.112 v 511.799 a 118.12181,118.12181 0 0 0 118.11,118.111 h 177.189 v 98.379 H 46023.6 a 118.12181,118.12181 0 0 0 -118.11,118.109 v 511.901 a 118.12181,118.12181 0 0 0 118.11,118.111 h 186.287 l 1.679,68.879 h -168.265 a 118.12181,118.12181 0 0 0 -118.112,118.109 v 492.102 a 118.12181,118.12181 0 0 0 118.112,118.109 h 454.051 l 858.201,992.637 a 118.12181,118.12181 0 0 0 194.857,-21.067 118.12181,118.12181 0 0 0 1.059,-1.968 118.12181,118.12181 0 0 0 2.642,-5.686 118.12181,118.12181 0 0 0 3.041,-7.344 118.12181,118.12181 0 0 0 0.18,-0.511 118.12181,118.12181 0 0 0 -33.057,-129.453 l -780.15,-902.358 a 118.12181,118.12181 0 0 0 7.885,-42.359 v -492.102 a 118.12181,118.12181 0 0 0 -118.11,-118.109 h -186.043 l -1.679,-68.879 h 168.021 a 118.12181,118.12181 0 0 0 118.112,-118.111 v -511.901 a 118.12181,118.12181 0 0 0 -118.112,-118.109 h -177.189 v -98.379 h 177.189 a 118.12181,118.12181 0 0 0 118.112,-118.111 v -511.799 a 118.12181,118.12181 0 0 0 -118.112,-118.112 z m 118.111,236.221 h 354.379 v 275.58 h -59.08 v -137.791 a 118.12181,118.12181 0 1 0 -236.221,0 v 137.791 h -59.078 z m 1063,0 h 354.379 v 39.051 l -163.858,-18.615 a 118.12181,118.12181 0 1 0 -26.666,234.709 l 179.87,20.435 h -343.725 z m 1653.59,334.68 a 118.12181,118.12181 0 0 0 -118.112,118.109 v 314.901 a 118.12181,118.12181 0 0 0 118.112,118.111 h 354.299 a 118.12181,118.12181 0 0 0 104.798,-63.738 l 575.762,179.937 414.188,966.481 h -12.047 A 118.12181,118.12181 0 0 0 50177.189,44117 v 669.301 a 118.12181,118.12181 0 0 0 118.112,118.109 h 12.084 l -556.783,1299.18 H 49250 a 118.12181,118.12181 0 0 0 -118.109,118.109 v 59.09 H 38247.574 a 118.12181,118.12181 0 0 0 -102.646,32.94 118.12181,118.12181 0 0 0 -2.555,2.453 118.12181,118.12181 0 0 0 -0.123,0.134 118.12181,118.12181 0 0 0 -32.061,101.551 v 11772.76 a 118.12181,118.12181 0 0 0 32.94,102.644 118.12181,118.12181 0 0 0 2.455,2.557 118.12181,118.12181 0 0 0 0.129,0.117 118.12181,118.12181 0 0 0 101.555,32.065 h 11772.859 a 118.12181,118.12181 0 0 0 102.607,-32.905 118.12181,118.12181 0 0 0 2.606,-2.501 118.12181,118.12181 0 0 0 0.08,-0.09 118.12181,118.12181 0 0 0 32.09,-101.584 V 47699.273 a 118.12181,118.12181 0 0 0 -32.889,-102.593 118.12181,118.12181 0 0 0 -2.529,-2.633 118.12181,118.12181 0 0 0 -0.01,-0.01 118.12181,118.12181 0 0 0 -0.03,-0.03 118.12181,118.12181 0 0 0 -101.627,-32.119 H 39428.678 a 118.12181,118.12181 0 0 0 -102.625,32.916 118.12181,118.12181 0 0 0 -2.592,2.488 118.12181,118.12181 0 0 0 -0.08,0.09 118.12181,118.12181 0 0 0 -32.092,101.586 v 9410.558 a 118.12181,118.12181 0 0 0 32.94,102.645 118.12181,118.12181 0 0 0 2.453,2.555 118.12181,118.12181 0 0 0 0.134,0.123 118.12181,118.12181 0 0 0 101.551,32.06 h 9410.66 a 118.12181,118.12181 0 0 0 102.616,-32.912 118.12181,118.12181 0 0 0 2.597,-2.494 118.12181,118.12181 0 0 0 0.08,-0.09 118.12181,118.12181 0 0 0 32.09,-101.584 v -8229.459 a 118.12181,118.12181 0 0 0 -32.912,-102.615 118.12181,118.12181 0 0 0 -2.494,-2.598 118.12181,118.12181 0 0 0 -0.09,-0.08 118.12181,118.12181 0 0 0 -101.584,-32.09 h -8229.459 a 118.12181,118.12181 0 0 0 -102.607,32.905 118.12181,118.12181 0 0 0 -2.606,2.501 118.12181,118.12181 0 0 0 -0.08,0.09 118.12181,118.12181 0 0 0 -32.09,101.584 v 7048.358 a 118.12181,118.12181 0 0 0 32.905,102.609 118.12181,118.12181 0 0 0 2.501,2.606 118.12181,118.12181 0 0 0 0.09,0.08 118.12181,118.12181 0 0 0 101.584,32.09 h 7048.358 a 118.12181,118.12181 0 0 0 102.646,-32.94 118.12181,118.12181 0 0 0 2.557,-2.455 118.12181,118.12181 0 0 0 0.117,-0.129 118.12181,118.12181 0 0 0 32.065,-101.555 v -5512.521 h 60.99 a 118.12181,118.12181 0 0 0 117.996,-114.891 118.12181,118.12181 0 0 0 17.812,-62.22 v -393.7 A 118.12181,118.12181 0 0 0 47874,49727.289 h -393.699 a 118.12181,118.12181 0 0 0 -102.08,59 H 46868.1 a 118.12181,118.12181 0 0 0 -118.11,118.111 v 115.889 l -761.207,46.404 c -47.336,-84.649 -137.971,-142.603 -240.783,-142.603 -150.871,0 -275.51,124.829 -275.51,275.609 0,150.78 124.639,275.612 275.51,275.612 114.643,0 214.134,-72.059 255.334,-172.846 l 746.656,-45.516 v 41.151 a 118.12181,118.12181 0 0 0 118.11,118.111 h 690.99 v 5413.379 h -6850.379 v -6850.379 h 8031.478 v 8031.478 H 39527.51 v -9212.58 h 10393.779 v 10393.68 H 38346.41 V 46617.01 h 10785.481 v 98.39 a 118.12181,118.12181 0 0 0 118.109,118.11 h 988.199 a 118.12181,118.12181 0 0 0 118.112,-118.11 v -393.701 a 118.12181,118.12181 0 0 0 -2.106,-21.801 118.12181,118.12181 0 0 0 -118.006,-116.007 h -220.156 l 548.342,-1279.481 h 400.215 a 118.12181,118.12181 0 0 0 118.111,-118.109 V 44117 a 118.12181,118.12181 0 0 0 -118.111,-118.109 h -400.254 l -468.629,-1093.52 a 118.12181,118.12181 0 0 0 -35.6,-57.307 118.12181,118.12181 0 0 0 -61.582,-30.207 l -667.824,-208.709 v -125.949 A 118.12181,118.12181 0 0 0 49212.6,42365.09 Z m -1771.701,275.5 a 118.12181,118.12181 0 0 0 -118.11,118.109 v 511.901 a 118.12181,118.12181 0 0 0 118.11,118.111 h 149.48 l -5.045,68.879 H 47027.6 a 118.12181,118.12181 0 0 0 -118.11,118.109 v 492.102 a 118.12181,118.12181 0 0 0 118.11,118.109 h 590.5 a 118.12181,118.12181 0 0 0 118.111,-118.109 v -492.102 A 118.12181,118.12181 0 0 0 47618.1,43457.59 h -150.211 l 5.043,-68.879 h 204.267 a 118.12181,118.12181 0 0 0 118.112,-118.111 v -137.889 h 157.478 v 39.389 a 118.12181,118.12181 0 0 0 118.111,118.111 h 354.299 a 118.12181,118.12181 0 0 0 108.699,-72.227 l 402.237,113.489 57.549,104.283 a 118.12181,118.12181 0 0 0 -76.395,110.344 v 511.9 a 118.12181,118.12181 0 0 0 118.111,118.109 H 49626 A 118.12181,118.12181 0 0 0 49744.109,44058 v -511.9 A 118.12181,118.12181 0 0 0 49626,43427.99 h -366.797 l -131.84,-238.9 a 118.12181,118.12181 0 0 0 -36.402,-49.598 118.12181,118.12181 0 0 0 -3.598,-2.914 118.12181,118.12181 0 0 0 -0.818,-0.598 118.12181,118.12181 0 0 0 -55.074,-23.052 l -488.16,-137.731 v -117.998 a 118.12181,118.12181 0 0 0 -118.112,-118.109 H 48070.9 a 118.12181,118.12181 0 0 0 -118.111,118.109 v 39.291 h -157.478 v -137.791 a 118.12181,118.12181 0 0 0 -118.112,-118.109 z m -944.889,236.221 h 59.078 v 137.789 a 118.12181,118.12181 0 0 0 0.03,0.769 118.12181,118.12181 0 0 0 0,2.113 l 3.295,135.008 h -62.408 z m 295.299,0 h 59.08 v 275.679 h -55.68 l -3.4,-139.332 z m 767.701,0 h 354.379 v 19.679 h -157.506 a 118.12181,118.12181 0 0 0 -96.061,26.619 118.12181,118.12181 0 0 0 -0.228,0.19 118.12181,118.12181 0 0 0 -5.299,4.799 118.12181,118.12181 0 0 0 -37.299,97.117 l -9.32,127.275 h -48.666 z m 286.967,255.9 h 67.412 v 19.779 h -68.86 z m 480.722,295.279 a 118.12181,118.12181 0 0 0 -118.111,118.11 v 511.9 a 118.12181,118.12181 0 0 0 118.111,118.109 h 227.118 l 64.423,472.381 h -153.742 a 118.12181,118.12181 0 0 0 -118.109,118.11 v 669.3 a 118.12181,118.12181 0 0 0 118.109,118.11 h 669.301 a 118.12181,118.12181 0 0 0 118.109,-118.11 v -14.853 l 295.584,125.037 c 6.295,145.522 128.386,263.826 275.307,263.826 150.871,0 275.609,-124.739 275.609,-275.609 0,-150.871 -124.829,-275.512 -275.609,-275.512 -69.619,0 -133.669,26.613 -182.49,70.07 l -388.401,-164.298 V 44766.6 a 118.12181,118.12181 0 0 0 -118.109,-118.11 h -277.152 l -64.424,-472.381 H 48563 A 118.12181,118.12181 0 0 0 48681.109,44058 v -511.9 A 118.12181,118.12181 0 0 0 48563,43427.99 Z m 118.11,236.221 h 354.381 v 275.68 h -39.182 l -20.982,-153.852 a 118.12181,118.12181 0 1 0 -234.053,31.922 l 16.629,121.93 h -76.793 z m 1299.052,0 h 118.329 v 275.68 h -354.381 v -214.52 l 73.781,133.695 a 118.12181,118.12181 0 1 0 206.818,-114.132 z m -3228.152,29.6 h 55.924 l 2.799,114.699 a 118.12181,118.12181 0 0 0 8.164,56.599 118.12181,118.12181 0 0 0 31.566,46.112 l 33.258,38.468 h -131.711 z m 292.215,0 h 62.164 v 152.244 l -60.146,-69.569 z m 692.086,0 h 68.027 l -8.732,119.263 a 118.12181,118.12181 0 1 0 235.588,17.252 l 9.996,-136.515 h 49.4 v 255.878 h -354.279 z m 3519.867,541.298 h 180.912 v 433.08 h -180.871 l 65.762,-153.445 a 118.12181,118.12181 0 0 0 17.15,-60.5 118.12181,118.12181 0 0 0 0,-5.771 118.12181,118.12181 0 0 0 -0.05,-1.522 118.12181,118.12181 0 0 0 -16.75,-57.461 z m -252.168,11.27 87.992,205.32 -87.992,205.317 z m -2185.099,638.332 h 67.847 l 29.217,214.227 a 118.12181,118.12181 0 0 0 23.307,72.156 118.12181,118.12181 0 0 0 67.814,46.433 l 237.014,100.262 h -425.199 z m 306.253,0 h 126.827 v 179.926 l -108.551,-45.92 z"
       id="path2020"
       inkscape:connector-curvature="0" /></g></svg>