<?xml version="1.0" standalone="no"?>
 <!DOCTYPE svg PUBLIC "-//W3C//DTD SVG 1.1//EN" 
 "http://www.w3.org/Graphics/SVG/1.1/DTD/svg11.dtd"> 
<svg xmlns="http://www.w3.org/2000/svg" version="1.1" 
    width="8.3185cm" height="6.9088cm" viewBox="0 0 32750 27200 ">
<title>SVG Picture created as bug_radio-brd.svg date 2020/11/25 14:10:16 </title>
  <desc>Picture generated by PCBNEW </desc>
<g style="fill:#000000; fill-opacity:1;stroke:#000000; stroke-opacity:1;
stroke-linecap:round; stroke-linejoin:round; "
 transform="translate(0 0) scale(1 1)">
</g>
<g style="fill:#000000; fill-opacity:0.0; 
stroke:#000000; stroke-width:-0.000393701; stroke-opacity:1; 
stroke-linecap:round; stroke-linejoin:round;">
</g>
<g style="fill:#000000; fill-opacity:0.0; 
stroke:#000000; stroke-width:1181.1; stroke-opacity:1; 
stroke-linecap:round; stroke-linejoin:round;">
<path d="M11614 5885
L11614 9822
" />
<path d="M5314 5885
L11614 5885
" />
<path d="M5314 12185
L5314 5885
" />
<path d="M13976 12185
L5314 12185
" />
<path d="M13976 3523
L13976 12185
" />
<path d="M2952 3523
L13976 3523
" />
<path d="M2952 14547
L2952 3523
" />
<path d="M16338 14547
L2952 14547
" />
<path d="M16338 1161
L16338 14547
" />
<path d="M590 1161
L16338 1161
" />
<path d="M590 16909
L590 1161
" />
<path d="M16338 16909
L590 16909
" />
</g>
<g style="fill:#000000; fill-opacity:0.0; 
stroke:#000000; stroke-width:0; stroke-opacity:1; 
stroke-linecap:round; stroke-linejoin:round;">
</g>
<g style="fill:#000000; fill-opacity:1.0; 
stroke:#000000; stroke-width:0; stroke-opacity:1; 
stroke-linecap:round; stroke-linejoin:round;">
<polyline style="fill-rule:evenodd;"
points="20728,11811
20728,0
32539,0
32539,11811
20728,11811
" /> 
<polyline style="fill-rule:evenodd;"
points="11023,10413
11023,9232
12204,9232
12204,10413
11023,10413
" /> 
<polyline style="fill-rule:evenodd;"
points="15748,17500
15748,16318
16929,16318
16929,17500
15748,17500
" /> 
<polyline style="fill-rule:evenodd;"
points="11120,9940
11120,9547
12108,9547
12108,9940
11120,9940
" /> 
<polyline style="fill-rule:evenodd;"
points="15923,17047
15923,16653
16911,16653
16911,17047
15923,17047
" /> 
<polyline style="fill-rule:evenodd;"
points="14192,19301
14192,19793
13602,19793
13602,19301
14192,19301
" /> 
<polyline style="fill-rule:evenodd;"
points="13208,19301
13208,19793
12618,19793
12618,19301
13208,19301
" /> 
<polyline style="fill-rule:evenodd;"
points="10925,18917
12106,18917
12106,20098
10925,20098
10925,18917
" /> 
</g>
<g style="fill:#000000; fill-opacity:1.0; 
stroke:#000000; stroke-width:1181.1; stroke-opacity:1; 
stroke-linecap:round; stroke-linejoin:round;">
</g>
<g style="fill:#000000; fill-opacity:0.0; 
stroke:#000000; stroke-width:1181.1; stroke-opacity:1; 
stroke-linecap:round; stroke-linejoin:round;">
<path d="M11318 21496
L11318 21496
" />
</g>
<g style="fill:#000000; fill-opacity:0.0; 
stroke:#000000; stroke-width:0; stroke-opacity:1; 
stroke-linecap:round; stroke-linejoin:round;">
</g>
<g style="fill:#000000; fill-opacity:1.0; 
stroke:#000000; stroke-width:0; stroke-opacity:1; 
stroke-linecap:round; stroke-linejoin:round;">
<polyline style="fill-rule:evenodd;"
points="14625,20767
14625,20452
14980,20452
14980,20767
14625,20767
" /> 
<polyline style="fill-rule:evenodd;"
points="14625,21515
14625,21200
14980,21200
14980,21515
14625,21515
" /> 
<polyline style="fill-rule:evenodd;"
points="15413,21141
15413,20826
15767,20826
15767,21141
15413,21141
" /> 
<polyline style="fill-rule:evenodd;"
points="14606,19803
14606,19291
15196,19291
15196,19803
14606,19803
" /> 
<polyline style="fill-rule:evenodd;"
points="15669,19803
15669,19291
16259,19291
16259,19803
15669,19803
" /> 
<polyline style="fill-rule:evenodd;"
points="14232,20354
14232,20866
13641,20866
13641,20354
14232,20354
" /> 
<polyline style="fill-rule:evenodd;"
points="13169,20354
13169,20866
12578,20866
12578,20354
13169,20354
" /> 
<polyline style="fill-rule:evenodd;"
points="13149,21437
13149,21948
12559,21948
12559,21437
13149,21437
" /> 
<polyline style="fill-rule:evenodd;"
points="14212,21437
14212,21948
13622,21948
13622,21437
14212,21437
" /> 
<polyline style="fill-rule:evenodd;"
points="16850,19507
16850,18838
17519,18838
17519,19507
16850,19507
" /> 
<polyline style="fill-rule:evenodd;"
points="20944,27204
20944,15393
32755,15393
32755,27204
20944,27204
" /> 
<circle cx="11476.4" cy="18444.9" r="157.48" /> 
</g>
<g style="fill:#000000; fill-opacity:1.0; 
stroke:#000000; stroke-width:19.685; stroke-opacity:1; 
stroke-linecap:round; stroke-linejoin:round;">
</g>
<g style="fill:#000000; fill-opacity:1.0; 
stroke:#000000; stroke-width:0; stroke-opacity:1; 
stroke-linecap:round; stroke-linejoin:round;">
<circle cx="10413.4" cy="9862.2" r="157.48" /> 
</g>
<g style="fill:#000000; fill-opacity:1.0; 
stroke:#000000; stroke-width:19.685; stroke-opacity:1; 
stroke-linecap:round; stroke-linejoin:round;">
</g>
<g style="fill:#000000; fill-opacity:1.0; 
stroke:#000000; stroke-width:314.961; stroke-opacity:1; 
stroke-linecap:round; stroke-linejoin:round;">
</g>
<g style="fill:#000000; fill-opacity:0.0; 
stroke:#000000; stroke-width:314.961; stroke-opacity:1; 
stroke-linecap:round; stroke-linejoin:round;">
<path d="M13897 19547
L13937 20610
" />
<path d="M13937 20610
L14803 20610
" />
<path d="M14803 20610
L15570 20393
" />
<path d="M15570 20393
L15964 19547
" />
<path d="M12854 21692
L12874 20610
" />
<path d="M12874 20610
L12913 19547
" />
</g>
<g style="fill:#000000; fill-opacity:0.0; 
stroke:#000000; stroke-width:472.441; stroke-opacity:1; 
stroke-linecap:round; stroke-linejoin:round;">
<path d="M11318 21496
L12854 21692
" />
<path d="M11515 19507
L12381 18700
" />
<path d="M12381 18700
L14724 18720
" />
<path d="M14724 18720
L14901 19547
" />
</g>
<g style="fill:#000000; fill-opacity:0.0; 
stroke:#000000; stroke-width:314.961; stroke-opacity:1; 
stroke-linecap:round; stroke-linejoin:round;">
<path d="M11614 9822
L10413 9862
" />
<path d="M11476 18444
L11515 19507
" />
<path d="M15590 20984
L16535 20688
" />
<path d="M16535 20688
L17185 19173
" />
<path d="M16338 16909
L17185 19173
" />
<path d="M13917 21692
L14803 21358
" />
</g>
<g style="fill:#000000; fill-opacity:0.0; 
stroke:#000000; stroke-width:472.441; stroke-opacity:1; 
stroke-linecap:round; stroke-linejoin:round;">
<path d="M14803 21358
L17066 21948
" />
<path d="M17066 21948
L26850 21299
" />
<path d="M26633 5905
L18779 5925
" />
<path d="M18779 5925
L18858 5905
" />
</g>
<g style="fill:#FFFFFF; fill-opacity:0.0; 
stroke:#FFFFFF; stroke-width:472.441; stroke-opacity:1; 
stroke-linecap:round; stroke-linejoin:round;">
</g>
<g style="fill:#FFFFFF; fill-opacity:1.0; 
stroke:#FFFFFF; stroke-width:0; stroke-opacity:1; 
stroke-linecap:round; stroke-linejoin:round;">
<circle cx="11476.4" cy="18444.9" r="78.7402" /> 
</g>
<g style="fill:#FFFFFF; fill-opacity:1.0; 
stroke:#FFFFFF; stroke-width:19.685; stroke-opacity:1; 
stroke-linecap:round; stroke-linejoin:round;">
</g>
<g style="fill:#FFFFFF; fill-opacity:1.0; 
stroke:#FFFFFF; stroke-width:0; stroke-opacity:1; 
stroke-linecap:round; stroke-linejoin:round;">
<circle cx="10413.4" cy="9862.2" r="78.7402" /> 
</g>
<g style="fill:#FFFFFF; fill-opacity:1.0; 
stroke:#FFFFFF; stroke-width:19.685; stroke-opacity:1; 
stroke-linecap:round; stroke-linejoin:round;">
</g>
<g style="fill:#FFFFFF; fill-opacity:1.0; 
stroke:#FFFFFF; stroke-width:0; stroke-opacity:1; 
stroke-linecap:round; stroke-linejoin:round;">
<circle cx="17185" cy="19173.2" r="196.85" /> 
</g>
<g style="fill:#FFFFFF; fill-opacity:1.0; 
stroke:#FFFFFF; stroke-width:19.685; stroke-opacity:1; 
stroke-linecap:round; stroke-linejoin:round;">
</g>
<g style="fill:#000000; fill-opacity:1.0; 
stroke:#000000; stroke-width:19.685; stroke-opacity:1; 
stroke-linecap:round; stroke-linejoin:round;">
</g> 
</svg>
